<?xml version="1.0" encoding="UTF-8" standalone="no"?>
<!DOCTYPE svg PUBLIC "-//W3C//DTD SVG 1.1//EN" "http://www.w3.org/Graphics/SVG/1.1/DTD/svg11.dtd">
<!-- Created with Vectornator (http://vectornator.io/) -->
<svg height="100%" stroke-miterlimit="10" style="fill-rule:nonzero;clip-rule:evenodd;stroke-linecap:round;stroke-linejoin:round;" version="1.1" viewBox="0 0 1080 1675" width="100%" xml:space="preserve" xmlns="http://www.w3.org/2000/svg" xmlns:vectornator="http://vectornator.io" xmlns:xlink="http://www.w3.org/1999/xlink">
<defs/>
<path d="M0 0L1080 0L1080 1675L0 1675L0 0Z" fill="#ffffff" fill-rule="nonzero" opacity="1" stroke="none"/>
<g id="Calque-1" vectornator:layerName="Calque 1">
<path d="M40 40L1040 40L1040 120L40 120L40 40Z" fill="none" opacity="1" stroke="#000000" stroke-linecap="butt" stroke-linejoin="round" stroke-width="5.07805" vectornator:layerName="Rectangle 1"/>
<path d="M40 165L1040 165L1040 235L40 235L40 165Z" fill="none" opacity="1" stroke="#000000" stroke-linecap="butt" stroke-linejoin="round" stroke-width="5.07805" vectornator:layerName="Rectangle 5"/>
<g fill="#000000" opacity="1" stroke="none" vectornator:layerName="Texte 4">
<path d="M511.145 216.5L511.145 186.764L500.524 186.764L500.524 180.709L528.967 180.709L528.967 186.764L518.371 186.764L518.371 216.5L511.145 216.5Z"/>
<path d="M532.678 187.057L532.678 180.709L539.538 180.709L539.538 187.057L532.678 187.057ZM532.678 216.5L532.678 190.572L539.538 190.572L539.538 216.5L532.678 216.5Z"/>
<path d="M558.459 190.572L558.459 196.041L553.772 196.041L553.772 206.49C553.772 208.606 553.816 209.839 553.906 210.189C553.995 210.539 554.199 210.828 554.516 211.056C554.834 211.284 555.22 211.397 555.676 211.397C556.311 211.397 557.23 211.178 558.435 210.738L559.021 216.061C557.426 216.744 555.619 217.086 553.601 217.086C552.364 217.086 551.249 216.878 550.256 216.463C549.263 216.048 548.535 215.511 548.071 214.852C547.607 214.193 547.286 213.302 547.107 212.179C546.96 211.381 546.887 209.77 546.887 207.345L546.887 196.041L543.737 196.041L543.737 190.572L546.887 190.572L546.887 185.421L553.772 181.417L553.772 190.572L558.459 190.572Z"/>
<path d="M569.787 216.5L562.927 216.5L562.927 190.572L569.299 190.572L569.299 194.259C570.389 192.517 571.37 191.37 572.241 190.816C573.112 190.263 574.1 189.986 575.207 189.986C576.77 189.986 578.275 190.418 579.724 191.28L577.6 197.262C576.444 196.513 575.37 196.139 574.377 196.139C573.417 196.139 572.603 196.403 571.936 196.932C571.268 197.461 570.743 198.417 570.361 199.801C569.978 201.184 569.787 204.081 569.787 208.492L569.787 216.5Z"/>
<path d="M597.692 208.248L604.528 209.396C603.649 211.902 602.262 213.81 600.366 215.121C598.47 216.431 596.097 217.086 593.249 217.086C588.741 217.086 585.404 215.613 583.239 212.667C581.53 210.307 580.676 207.328 580.676 203.731C580.676 199.435 581.799 196.069 584.045 193.636C586.291 191.203 589.131 189.986 592.566 189.986C596.423 189.986 599.467 191.26 601.696 193.807C603.926 196.354 604.992 200.257 604.895 205.514L587.707 205.514C587.756 207.548 588.309 209.131 589.367 210.262C590.425 211.393 591.744 211.959 593.322 211.959C594.397 211.959 595.3 211.666 596.032 211.08C596.765 210.494 597.318 209.55 597.692 208.248ZM598.083 201.314C598.034 199.329 597.522 197.819 596.545 196.786C595.568 195.752 594.38 195.235 592.981 195.235C591.483 195.235 590.246 195.781 589.27 196.871C588.293 197.962 587.813 199.443 587.829 201.314L598.083 201.314Z"/>
</g>
<g fill="#000000" opacity="1" stroke="none" vectornator:layerName="Texte 5">
<path d="M440.916 99.8761L440.916 64.085L447.947 64.085L462.595 87.9864L462.595 64.085L469.309 64.085L469.309 99.8761L462.058 99.8761L447.629 76.5362L447.629 99.8761L440.916 99.8761Z"/>
<path d="M482.029 81.8585L475.803 80.7354C476.503 78.2289 477.708 76.3735 479.417 75.169C481.125 73.9646 483.665 73.3624 487.034 73.3624C490.094 73.3624 492.372 73.7245 493.87 74.4488C495.367 75.1731 496.421 76.0927 497.031 77.2076C497.642 78.3225 497.947 80.3692 497.947 83.3477L497.874 91.3556C497.874 93.6342 497.983 95.3147 498.203 96.3971C498.423 97.4794 498.834 98.6391 499.436 99.8761L492.649 99.8761C492.47 99.4203 492.25 98.7449 491.99 97.8497C491.876 97.4428 491.794 97.1742 491.746 97.044C490.574 98.1833 489.32 99.0378 487.986 99.6075C486.651 100.177 485.227 100.462 483.713 100.462C481.044 100.462 478.94 99.7377 477.402 98.2891C475.864 96.8406 475.095 95.0095 475.095 92.796C475.095 91.3311 475.445 90.025 476.145 88.8775C476.845 87.7301 477.826 86.8512 479.087 86.2408C480.348 85.6305 482.167 85.0974 484.543 84.6417C487.75 84.0395 489.972 83.4779 491.208 82.9571L491.208 82.2735C491.208 80.9552 490.883 80.0152 490.232 79.4537C489.581 78.8922 488.352 78.6114 486.545 78.6114C485.325 78.6114 484.373 78.8515 483.689 79.3316C483.005 79.8118 482.452 80.6541 482.029 81.8585ZM491.208 87.4249C490.33 87.7179 488.938 88.0678 487.034 88.4747C485.129 88.8816 483.884 89.2804 483.298 89.671C482.403 90.3057 481.956 91.1114 481.956 92.088C481.956 93.0483 482.314 93.8783 483.03 94.5782C483.746 95.2781 484.657 95.628 485.764 95.628C487.001 95.628 488.181 95.2211 489.304 94.4073C490.134 93.7888 490.68 93.032 490.94 92.1368C491.119 91.5509 491.208 90.436 491.208 88.7921L491.208 87.4249Z"/>
<path d="M511.838 99.8761L501.389 73.9483L508.591 73.9483L513.474 87.1807L514.89 91.5997C515.264 90.4766 515.5 89.7361 515.598 89.378C515.826 88.6456 516.07 87.9132 516.331 87.1807L521.262 73.9483L528.318 73.9483L518.015 99.8761L511.838 99.8761Z"/>
<path d="M532.517 70.4327L532.517 64.085L539.377 64.085L539.377 70.4327L532.517 70.4327ZM532.517 99.8761L532.517 73.9483L539.377 73.9483L539.377 99.8761L532.517 99.8761Z"/>
<path d="M545.774 101.585L553.611 102.537C553.741 103.449 554.042 104.075 554.514 104.417C555.165 104.905 556.191 105.149 557.59 105.149C559.381 105.149 560.723 104.881 561.619 104.344C562.221 103.986 562.677 103.408 562.986 102.61C563.197 102.041 563.303 100.991 563.303 99.461L563.303 95.6768C561.252 98.4763 558.665 99.8761 555.54 99.8761C552.056 99.8761 549.298 98.4031 547.263 95.4571C545.668 93.1296 544.871 90.2325 544.871 86.7657C544.871 82.42 545.916 79.0997 548.008 76.8048C550.099 74.5098 552.699 73.3624 555.808 73.3624C559.014 73.3624 561.659 74.7703 563.743 77.586L563.743 73.9483L570.164 73.9483L570.164 97.2149C570.164 100.275 569.911 102.562 569.407 104.075C568.902 105.589 568.194 106.777 567.283 107.64C566.371 108.502 565.155 109.178 563.633 109.666C562.111 110.154 560.186 110.399 557.859 110.399C553.464 110.399 550.347 109.646 548.508 108.14C546.669 106.635 545.75 104.726 545.75 102.415C545.75 102.187 545.758 101.911 545.774 101.585ZM551.902 86.3751C551.902 89.1257 552.435 91.1399 553.501 92.4176C554.567 93.6952 555.881 94.3341 557.444 94.3341C559.12 94.3341 560.536 93.679 561.692 92.3687C562.847 91.0585 563.425 89.1176 563.425 86.546C563.425 83.8604 562.872 81.8666 561.765 80.5645C560.658 79.2625 559.259 78.6114 557.566 78.6114C555.922 78.6114 554.567 79.2502 553.501 80.5279C552.435 81.8056 551.902 83.7546 551.902 86.3751Z"/>
<path d="M582.078 81.8585L575.852 80.7354C576.552 78.2289 577.756 76.3735 579.465 75.169C581.174 73.9646 583.713 73.3624 587.083 73.3624C590.142 73.3624 592.421 73.7245 593.918 74.4488C595.416 75.1731 596.47 76.0927 597.08 77.2076C597.69 78.3225 597.996 80.3692 597.996 83.3477L597.922 91.3556C597.922 93.6342 598.032 95.3147 598.252 96.3971C598.472 97.4794 598.883 98.6391 599.485 99.8761L592.698 99.8761C592.519 99.4203 592.299 98.7449 592.039 97.8497C591.925 97.4428 591.843 97.1742 591.794 97.044C590.623 98.1833 589.369 99.0378 588.035 99.6075C586.7 100.177 585.276 100.462 583.762 100.462C581.093 100.462 578.989 99.7377 577.451 98.2891C575.913 96.8406 575.144 95.0095 575.144 92.796C575.144 91.3311 575.494 90.025 576.194 88.8775C576.894 87.7301 577.874 86.8512 579.136 86.2408C580.397 85.6305 582.216 85.0974 584.592 84.6417C587.799 84.0395 590.02 83.4779 591.257 82.9571L591.257 82.2735C591.257 80.9552 590.932 80.0152 590.281 79.4537C589.63 78.8922 588.401 78.6114 586.594 78.6114C585.374 78.6114 584.421 78.8515 583.738 79.3316C583.054 79.8118 582.501 80.6541 582.078 81.8585ZM591.257 87.4249C590.378 87.7179 588.987 88.0678 587.083 88.4747C585.178 88.8816 583.933 89.2804 583.347 89.671C582.452 90.3057 582.004 91.1114 582.004 92.088C582.004 93.0483 582.362 93.8783 583.079 94.5782C583.795 95.2781 584.706 95.628 585.813 95.628C587.05 95.628 588.23 95.2211 589.353 94.4073C590.183 93.7888 590.728 93.032 590.989 92.1368C591.168 91.5509 591.257 90.436 591.257 88.7921L591.257 87.4249Z"/>
<path d="M616.648 73.9483L616.648 79.4171L611.96 79.4171L611.96 89.8663C611.96 91.9822 612.005 93.2151 612.095 93.565C612.184 93.915 612.388 94.2039 612.705 94.4317C613.022 94.6596 613.409 94.7735 613.865 94.7735C614.5 94.7735 615.419 94.5538 616.624 94.1143L617.209 99.4366C615.614 100.12 613.808 100.462 611.79 100.462C610.553 100.462 609.438 100.254 608.445 99.8394C607.452 99.4244 606.724 98.8873 606.26 98.2281C605.796 97.5689 605.474 96.6778 605.295 95.5548C605.149 94.7572 605.076 93.1459 605.076 90.7208L605.076 79.4171L601.926 79.4171L601.926 73.9483L605.076 73.9483L605.076 68.797L611.96 64.7931L611.96 73.9483L616.648 73.9483Z"/>
<path d="M621.409 70.4327L621.409 64.085L628.269 64.085L628.269 70.4327L621.409 70.4327ZM621.409 99.8761L621.409 73.9483L628.269 73.9483L628.269 99.8761L621.409 99.8761Z"/>
<path d="M633.713 86.546C633.713 84.2673 634.275 82.0619 635.398 79.9298C636.521 77.7976 638.112 76.17 640.171 75.047C642.23 73.9239 644.529 73.3624 647.068 73.3624C650.99 73.3624 654.205 74.636 656.711 77.1832C659.218 79.7304 660.471 82.949 660.471 86.8389C660.471 90.7615 659.206 94.0126 656.675 96.5924C654.144 99.1721 650.958 100.462 647.117 100.462C644.74 100.462 642.474 99.9249 640.317 98.8507C638.161 97.7764 636.521 96.2017 635.398 94.1265C634.275 92.0514 633.713 89.5245 633.713 86.546ZM640.745 86.9122C640.745 89.4838 641.355 91.4532 642.576 92.8204C643.796 94.1876 645.302 94.8712 647.092 94.8712C648.883 94.8712 650.384 94.1876 651.597 92.8204C652.809 91.4532 653.416 89.4675 653.416 86.8634C653.416 84.3243 652.809 82.3712 651.597 81.004C650.384 79.6368 648.883 78.9532 647.092 78.9532C645.302 78.9532 643.796 79.6368 642.576 81.004C641.355 82.3712 640.745 84.3406 640.745 86.9122Z"/>
<path d="M689.426 99.8761L682.566 99.8761L682.566 86.6436C682.566 83.8442 682.419 82.0334 682.126 81.2115C681.833 80.3896 681.357 79.7507 680.698 79.295C680.039 78.8393 679.246 78.6114 678.318 78.6114C677.13 78.6114 676.064 78.9369 675.12 79.588C674.176 80.239 673.529 81.1016 673.179 82.1759C672.829 83.2501 672.654 85.2358 672.654 88.1329L672.654 99.8761L665.793 99.8761L665.793 73.9483L672.166 73.9483L672.166 77.7569C674.428 74.8272 677.276 73.3624 680.71 73.3624C682.224 73.3624 683.608 73.635 684.861 74.1803C686.114 74.7255 687.062 75.4213 687.705 76.2677C688.348 77.114 688.796 78.0743 689.048 79.1485C689.3 80.2227 689.426 81.7608 689.426 83.7628L689.426 99.8761Z"/>
</g>
<path d="M40 1332.03L1040 1332.03L1040 1397.03L40 1397.03L40 1332.03Z" fill="none" opacity="1" stroke="#000000" stroke-linecap="butt" stroke-linejoin="round" stroke-width="5.07805" vectornator:layerName="Rectangle 10"/>
<g fill="#000000" opacity="1" stroke="none" vectornator:layerName="Texte 8">
<path d="M414.426 1376.59L414.426 1340.8L426.023 1340.8C430.417 1340.8 433.282 1340.98 434.617 1341.34C436.667 1341.87 438.385 1343.04 439.768 1344.84C441.152 1346.64 441.843 1348.96 441.843 1351.81C441.843 1354.01 441.444 1355.85 440.647 1357.35C439.849 1358.85 438.836 1360.03 437.607 1360.88C436.379 1361.73 435.129 1362.3 433.86 1362.58C432.135 1362.92 429.636 1363.09 426.365 1363.09L421.653 1363.09L421.653 1376.59L414.426 1376.59ZM421.653 1346.85L421.653 1357.01L425.608 1357.01C428.456 1357.01 430.361 1356.82 431.321 1356.45C432.281 1356.07 433.034 1355.49 433.579 1354.69C434.124 1353.89 434.397 1352.97 434.397 1351.91C434.397 1350.61 434.014 1349.53 433.25 1348.69C432.485 1347.84 431.516 1347.31 430.344 1347.1C429.482 1346.94 427.748 1346.85 425.144 1346.85L421.653 1346.85Z"/>
<path d="M447.727 1347.15L447.727 1340.8L454.587 1340.8L454.587 1347.15L447.727 1347.15ZM447.727 1376.59L447.727 1350.66L454.587 1350.66L454.587 1376.59L447.727 1376.59Z"/>
<path d="M476.633 1368.34L483.469 1369.49C482.59 1371.99 481.203 1373.9 479.307 1375.21C477.41 1376.52 475.038 1377.18 472.19 1377.18C467.681 1377.18 464.345 1375.7 462.18 1372.76C460.471 1370.4 459.617 1367.42 459.617 1363.82C459.617 1359.53 460.74 1356.16 462.986 1353.73C465.232 1351.29 468.072 1350.08 471.506 1350.08C475.364 1350.08 478.407 1351.35 480.637 1353.9C482.867 1356.44 483.933 1360.35 483.835 1365.6L466.648 1365.6C466.697 1367.64 467.25 1369.22 468.308 1370.35C469.366 1371.48 470.684 1372.05 472.263 1372.05C473.337 1372.05 474.241 1371.76 474.973 1371.17C475.706 1370.58 476.259 1369.64 476.633 1368.34ZM477.024 1361.41C476.975 1359.42 476.462 1357.91 475.486 1356.88C474.509 1355.84 473.321 1355.33 471.921 1355.33C470.424 1355.33 469.187 1355.87 468.21 1356.96C467.234 1358.05 466.754 1359.53 466.77 1361.41L477.024 1361.41Z"/>
<path d="M513.206 1376.59L506.833 1376.59L506.833 1372.78C505.776 1374.26 504.526 1375.37 503.086 1376.09C501.646 1376.81 500.193 1377.18 498.728 1377.18C495.75 1377.18 493.198 1375.98 491.074 1373.58C488.95 1371.17 487.888 1367.83 487.888 1363.53C487.888 1359.13 488.922 1355.79 490.989 1353.51C493.056 1351.22 495.668 1350.08 498.826 1350.08C501.723 1350.08 504.229 1351.28 506.345 1353.69L506.345 1340.8L513.206 1340.8L513.206 1376.59ZM494.895 1363.07C494.895 1365.83 495.278 1367.83 496.042 1369.07C497.149 1370.86 498.695 1371.76 500.681 1371.76C502.26 1371.76 503.603 1371.09 504.709 1369.74C505.816 1368.4 506.37 1366.39 506.37 1363.72C506.37 1360.75 505.833 1358.6 504.758 1357.29C503.684 1355.98 502.309 1355.33 500.632 1355.33C499.005 1355.33 497.642 1355.97 496.543 1357.27C495.444 1358.56 494.895 1360.49 494.895 1363.07Z"/>
<path d="M557.639 1376.59L551.267 1376.59L551.267 1372.78C550.209 1374.26 548.96 1375.37 547.52 1376.09C546.079 1376.81 544.626 1377.18 543.162 1377.18C540.183 1377.18 537.632 1375.98 535.508 1373.58C533.384 1371.17 532.322 1367.83 532.322 1363.53C532.322 1359.13 533.355 1355.79 535.422 1353.51C537.489 1351.22 540.102 1350.08 543.259 1350.08C546.156 1350.08 548.663 1351.28 550.779 1353.69L550.779 1340.8L557.639 1340.8L557.639 1376.59ZM539.329 1363.07C539.329 1365.83 539.711 1367.83 540.476 1369.07C541.583 1370.86 543.129 1371.76 545.115 1371.76C546.694 1371.76 548.036 1371.09 549.143 1369.74C550.25 1368.4 550.803 1366.39 550.803 1363.72C550.803 1360.75 550.266 1358.6 549.192 1357.29C548.118 1355.98 546.742 1355.33 545.066 1355.33C543.438 1355.33 542.075 1355.97 540.977 1357.27C539.878 1358.56 539.329 1360.49 539.329 1363.07Z"/>
<path d="M579.417 1368.34L586.252 1369.49C585.374 1371.99 583.986 1373.9 582.09 1375.21C580.194 1376.52 577.821 1377.18 574.973 1377.18C570.465 1377.18 567.128 1375.7 564.963 1372.76C563.254 1370.4 562.4 1367.42 562.4 1363.82C562.4 1359.53 563.523 1356.16 565.769 1353.73C568.015 1351.29 570.855 1350.08 574.29 1350.08C578.147 1350.08 581.191 1351.35 583.42 1353.9C585.65 1356.44 586.716 1360.35 586.619 1365.6L569.431 1365.6C569.48 1367.64 570.033 1369.22 571.091 1370.35C572.149 1371.48 573.468 1372.05 575.046 1372.05C576.121 1372.05 577.024 1371.76 577.756 1371.17C578.489 1370.58 579.042 1369.64 579.417 1368.34ZM579.807 1361.41C579.758 1359.42 579.246 1357.91 578.269 1356.88C577.292 1355.84 576.104 1355.33 574.705 1355.33C573.207 1355.33 571.97 1355.87 570.994 1356.96C570.017 1358.05 569.537 1359.53 569.553 1361.41L579.807 1361.41Z"/>
<path d="M605.906 1350.66L612.302 1350.66L612.302 1354.47C613.132 1353.17 614.255 1352.11 615.671 1351.3C617.087 1350.48 618.658 1350.08 620.383 1350.08C623.394 1350.08 625.95 1351.26 628.049 1353.62C630.149 1355.98 631.199 1359.26 631.199 1363.48C631.199 1367.81 630.141 1371.17 628.025 1373.58C625.909 1375.98 623.346 1377.18 620.334 1377.18C618.902 1377.18 617.604 1376.89 616.44 1376.32C615.277 1375.75 614.052 1374.78 612.766 1373.39L612.766 1386.45L605.906 1386.45L605.906 1350.66ZM612.693 1363.19C612.693 1366.1 613.271 1368.25 614.426 1369.64C615.582 1371.04 616.99 1371.73 618.65 1371.73C620.245 1371.73 621.571 1371.09 622.629 1369.82C623.687 1368.54 624.216 1366.44 624.216 1363.53C624.216 1360.81 623.671 1358.79 622.581 1357.47C621.49 1356.16 620.139 1355.5 618.528 1355.5C616.851 1355.5 615.46 1356.14 614.353 1357.44C613.246 1358.73 612.693 1360.65 612.693 1363.19Z"/>
<path d="M641.77 1358.57L635.544 1357.45C636.244 1354.94 637.449 1353.09 639.158 1351.88C640.867 1350.68 643.406 1350.08 646.775 1350.08C649.835 1350.08 652.113 1350.44 653.611 1351.16C655.108 1351.89 656.162 1352.81 656.772 1353.92C657.383 1355.04 657.688 1357.08 657.688 1360.06L657.615 1368.07C657.615 1370.35 657.725 1372.03 657.944 1373.11C658.164 1374.19 658.575 1375.35 659.177 1376.59L652.39 1376.59C652.211 1376.13 651.991 1375.46 651.731 1374.56C651.617 1374.16 651.536 1373.89 651.487 1373.76C650.315 1374.9 649.062 1375.75 647.727 1376.32C646.392 1376.89 644.968 1377.18 643.455 1377.18C640.785 1377.18 638.682 1376.45 637.144 1375C635.605 1373.56 634.836 1371.72 634.836 1369.51C634.836 1368.05 635.186 1366.74 635.886 1365.59C636.586 1364.44 637.567 1363.57 638.828 1362.96C640.09 1362.34 641.908 1361.81 644.285 1361.36C647.491 1360.75 649.713 1360.19 650.95 1359.67L650.95 1358.99C650.95 1357.67 650.624 1356.73 649.973 1356.17C649.322 1355.61 648.093 1355.33 646.287 1355.33C645.066 1355.33 644.114 1355.57 643.43 1356.05C642.747 1356.53 642.193 1357.37 641.77 1358.57ZM650.95 1364.14C650.071 1364.43 648.679 1364.78 646.775 1365.19C644.871 1365.6 643.625 1365.99 643.04 1366.39C642.144 1367.02 641.697 1367.83 641.697 1368.8C641.697 1369.76 642.055 1370.59 642.771 1371.29C643.487 1371.99 644.399 1372.34 645.505 1372.34C646.742 1372.34 647.922 1371.94 649.045 1371.12C649.875 1370.5 650.421 1369.75 650.681 1368.85C650.86 1368.27 650.95 1367.15 650.95 1365.51L650.95 1364.14Z"/>
<path d="M663.816 1378.3L671.653 1379.25C671.783 1380.16 672.084 1380.79 672.556 1381.13C673.207 1381.62 674.233 1381.86 675.632 1381.86C677.423 1381.86 678.765 1381.6 679.661 1381.06C680.263 1380.7 680.719 1380.12 681.028 1379.32C681.239 1378.76 681.345 1377.71 681.345 1376.18L681.345 1372.39C679.294 1375.19 676.707 1376.59 673.582 1376.59C670.098 1376.59 667.34 1375.12 665.305 1372.17C663.71 1369.84 662.913 1366.95 662.913 1363.48C662.913 1359.13 663.958 1355.81 666.05 1353.52C668.141 1351.22 670.741 1350.08 673.85 1350.08C677.056 1350.08 679.701 1351.48 681.785 1354.3L681.785 1350.66L688.206 1350.66L688.206 1373.93C688.206 1376.99 687.953 1379.28 687.449 1380.79C686.944 1382.3 686.236 1383.49 685.325 1384.35C684.413 1385.22 683.197 1385.89 681.675 1386.38C680.153 1386.87 678.228 1387.11 675.901 1387.11C671.506 1387.11 668.389 1386.36 666.55 1384.85C664.711 1383.35 663.792 1381.44 663.792 1379.13C663.792 1378.9 663.8 1378.63 663.816 1378.3ZM669.944 1363.09C669.944 1365.84 670.477 1367.85 671.543 1369.13C672.609 1370.41 673.923 1371.05 675.486 1371.05C677.162 1371.05 678.578 1370.39 679.734 1369.08C680.889 1367.77 681.467 1365.83 681.467 1363.26C681.467 1360.57 680.914 1358.58 679.807 1357.28C678.7 1355.98 677.301 1355.33 675.608 1355.33C673.964 1355.33 672.609 1355.96 671.543 1357.24C670.477 1358.52 669.944 1360.47 669.944 1363.09Z"/>
<path d="M710.007 1368.34L716.843 1369.49C715.964 1371.99 714.577 1373.9 712.681 1375.21C710.785 1376.52 708.412 1377.18 705.564 1377.18C701.056 1377.18 697.719 1375.7 695.554 1372.76C693.845 1370.4 692.991 1367.42 692.991 1363.82C692.991 1359.53 694.114 1356.16 696.36 1353.73C698.606 1351.29 701.446 1350.08 704.88 1350.08C708.738 1350.08 711.781 1351.35 714.011 1353.9C716.241 1356.44 717.307 1360.35 717.209 1365.6L700.022 1365.6C700.071 1367.64 700.624 1369.22 701.682 1370.35C702.74 1371.48 704.058 1372.05 705.637 1372.05C706.711 1372.05 707.615 1371.76 708.347 1371.17C709.08 1370.58 709.633 1369.64 710.007 1368.34ZM710.398 1361.41C710.349 1359.42 709.836 1357.91 708.86 1356.88C707.883 1355.84 706.695 1355.33 705.295 1355.33C703.798 1355.33 702.561 1355.87 701.584 1356.96C700.608 1358.05 700.128 1359.53 700.144 1361.41L710.398 1361.41Z"/>
</g>
<path d="M40 136.5L1040 136.5L1040 1261.98L40 1261.98L40 136.5Z" fill="none" opacity="1" stroke="#000000" stroke-linecap="butt" stroke-linejoin="round" stroke-width="5.07805" vectornator:layerName="Rectangle 11"/>
<path d="M307.173 264.92L799.173 264.92L799.173 464.92L307.173 464.92L307.173 264.92Z" fill="none" opacity="1" stroke="#000000" stroke-linecap="butt" stroke-linejoin="round" stroke-width="5.07805" vectornator:layerName="Rectangle 12"/>
<g fill="#000000" opacity="1" stroke="none" vectornator:layerName="Texte 9">
<path d="M483.724 358.927L483.724 323.136L490.951 323.136L490.951 358.927L483.724 358.927Z"/>
<path d="M497.274 332.999L503.597 332.999L503.597 336.539C505.86 333.789 508.553 332.413 511.678 332.413C513.339 332.413 514.779 332.755 516 333.439C517.22 334.122 518.221 335.156 519.003 336.539C520.142 335.156 521.371 334.122 522.689 333.439C524.008 332.755 525.415 332.413 526.913 332.413C528.817 332.413 530.428 332.8 531.747 333.573C533.065 334.346 534.05 335.481 534.701 336.979C535.173 338.085 535.409 339.876 535.409 342.35L535.409 358.927L528.549 358.927L528.549 344.108C528.549 341.536 528.313 339.876 527.841 339.127C527.206 338.15 526.229 337.662 524.911 337.662C523.951 337.662 523.047 337.955 522.201 338.541C521.355 339.127 520.744 339.986 520.37 341.117C519.995 342.248 519.808 344.034 519.808 346.476L519.808 358.927L512.948 358.927L512.948 344.718C512.948 342.195 512.826 340.567 512.582 339.835C512.338 339.103 511.959 338.557 511.446 338.199C510.934 337.841 510.238 337.662 509.359 337.662C508.301 337.662 507.349 337.947 506.503 338.517C505.656 339.086 505.05 339.908 504.684 340.983C504.318 342.057 504.134 343.839 504.134 346.329L504.134 358.927L497.274 358.927L497.274 332.999Z"/>
<path d="M547.372 340.909L541.146 339.786C541.846 337.28 543.05 335.424 544.759 334.22C546.468 333.015 549.008 332.413 552.377 332.413C555.437 332.413 557.715 332.775 559.213 333.5C560.71 334.224 561.764 335.143 562.374 336.258C562.985 337.373 563.29 339.42 563.29 342.399L563.216 350.406C563.216 352.685 563.326 354.365 563.546 355.448C563.766 356.53 564.177 357.69 564.779 358.927L557.992 358.927C557.813 358.471 557.593 357.796 557.333 356.9C557.219 356.494 557.137 356.225 557.089 356.095C555.917 357.234 554.663 358.089 553.329 358.658C551.994 359.228 550.57 359.513 549.056 359.513C546.387 359.513 544.283 358.789 542.745 357.34C541.207 355.891 540.438 354.06 540.438 351.847C540.438 350.382 540.788 349.076 541.488 347.928C542.188 346.781 543.168 345.902 544.43 345.292C545.691 344.681 547.51 344.148 549.886 343.692C553.093 343.09 555.314 342.529 556.551 342.008L556.551 341.324C556.551 340.006 556.226 339.066 555.575 338.504C554.924 337.943 553.695 337.662 551.888 337.662C550.668 337.662 549.716 337.902 549.032 338.382C548.348 338.863 547.795 339.705 547.372 340.909ZM556.551 346.476C555.673 346.769 554.281 347.119 552.377 347.525C550.472 347.932 549.227 348.331 548.641 348.722C547.746 349.357 547.299 350.162 547.299 351.139C547.299 352.099 547.657 352.929 548.373 353.629C549.089 354.329 550 354.679 551.107 354.679C552.344 354.679 553.524 354.272 554.647 353.458C555.477 352.84 556.022 352.083 556.283 351.188C556.462 350.602 556.551 349.487 556.551 347.843L556.551 346.476Z"/>
<path d="M569.418 360.636L577.255 361.588C577.385 362.499 577.686 363.126 578.158 363.468C578.809 363.956 579.834 364.2 581.234 364.2C583.024 364.2 584.367 363.932 585.262 363.395C585.865 363.037 586.32 362.459 586.63 361.661C586.841 361.092 586.947 360.042 586.947 358.512L586.947 354.728C584.896 357.527 582.308 358.927 579.183 358.927C575.7 358.927 572.941 357.454 570.907 354.508C569.312 352.18 568.514 349.283 568.514 345.816C568.514 341.471 569.56 338.15 571.652 335.856C573.743 333.561 576.343 332.413 579.452 332.413C582.658 332.413 585.303 333.821 587.386 336.637L587.386 332.999L593.807 332.999L593.807 356.266C593.807 359.326 593.555 361.612 593.05 363.126C592.546 364.64 591.838 365.828 590.926 366.691C590.015 367.553 588.798 368.229 587.277 368.717C585.755 369.205 583.83 369.449 581.503 369.449C577.108 369.449 573.991 368.697 572.152 367.191C570.313 365.685 569.393 363.777 569.393 361.466C569.393 361.238 569.401 360.961 569.418 360.636ZM575.546 345.426C575.546 348.177 576.079 350.191 577.145 351.468C578.211 352.746 579.525 353.385 581.088 353.385C582.764 353.385 584.18 352.73 585.336 351.42C586.491 350.109 587.069 348.168 587.069 345.597C587.069 342.911 586.516 340.917 585.409 339.615C584.302 338.313 582.902 337.662 581.21 337.662C579.566 337.662 578.211 338.301 577.145 339.579C576.079 340.856 575.546 342.805 575.546 345.426Z"/>
<path d="M615.609 350.675L622.445 351.822C621.566 354.329 620.179 356.237 618.282 357.547C616.386 358.858 614.014 359.513 611.166 359.513C606.657 359.513 603.321 358.04 601.156 355.094C599.447 352.734 598.592 349.755 598.592 346.158C598.592 341.861 599.716 338.496 601.962 336.063C604.208 333.63 607.048 332.413 610.482 332.413C614.34 332.413 617.383 333.687 619.613 336.234C621.843 338.781 622.909 342.683 622.811 347.941L605.624 347.941C605.673 349.975 606.226 351.558 607.284 352.689C608.342 353.82 609.66 354.386 611.239 354.386C612.313 354.386 613.216 354.093 613.949 353.507C614.681 352.921 615.235 351.977 615.609 350.675ZM616 343.741C615.951 341.756 615.438 340.246 614.462 339.212C613.485 338.179 612.297 337.662 610.897 337.662C609.4 337.662 608.163 338.207 607.186 339.298C606.21 340.388 605.73 341.87 605.746 343.741L616 343.741Z"/>
</g>
<path d="M265 500L865 500L865 940.953L265 940.953L265 500Z" fill="none" opacity="1" stroke="#000000" stroke-linecap="butt" stroke-linejoin="round" stroke-width="5.07805" vectornator:layerName="Rectangle 13"/>
<g fill="#000000" opacity="1" stroke="none" vectornator:layerName="Texte 10">
<path d="M433.984 725.191L433.984 689.4L445.581 689.4C449.975 689.4 452.84 689.579 454.174 689.937C456.225 690.474 457.942 691.642 459.326 693.441C460.709 695.239 461.401 697.563 461.401 700.411C461.401 702.608 461.002 704.455 460.205 705.953C459.407 707.45 458.394 708.626 457.165 709.481C455.936 710.335 454.687 710.901 453.417 711.177C451.692 711.519 449.194 711.69 445.922 711.69L441.21 711.69L441.21 725.191L433.984 725.191ZM441.21 695.455L441.21 705.611L445.165 705.611C448.014 705.611 449.918 705.424 450.878 705.049C451.839 704.675 452.591 704.089 453.137 703.292C453.682 702.494 453.955 701.566 453.955 700.508C453.955 699.206 453.572 698.132 452.807 697.286C452.042 696.439 451.074 695.91 449.902 695.699C449.039 695.536 447.306 695.455 444.702 695.455L441.21 695.455Z"/>
<path d="M472.412 707.174L466.186 706.05C466.886 703.544 468.09 701.688 469.799 700.484C471.508 699.28 474.047 698.677 477.416 698.677C480.476 698.677 482.755 699.04 484.252 699.764C485.75 700.488 486.804 701.408 487.414 702.523C488.024 703.638 488.33 705.684 488.33 708.663L488.256 716.671C488.256 718.949 488.366 720.63 488.586 721.712C488.806 722.794 489.217 723.954 489.819 725.191L483.032 725.191C482.853 724.735 482.633 724.06 482.373 723.165C482.259 722.758 482.177 722.489 482.128 722.359C480.956 723.498 479.703 724.353 478.369 724.923C477.034 725.492 475.61 725.777 474.096 725.777C471.427 725.777 469.323 725.053 467.785 723.604C466.247 722.156 465.478 720.325 465.478 718.111C465.478 716.646 465.828 715.34 466.528 714.193C467.228 713.045 468.208 712.166 469.47 711.556C470.731 710.945 472.55 710.412 474.926 709.957C478.133 709.355 480.354 708.793 481.591 708.272L481.591 707.589C481.591 706.27 481.266 705.33 480.615 704.769C479.964 704.207 478.735 703.926 476.928 703.926C475.707 703.926 474.755 704.167 474.072 704.647C473.388 705.127 472.835 705.969 472.412 707.174ZM481.591 712.74C480.712 713.033 479.321 713.383 477.416 713.79C475.512 714.197 474.267 714.595 473.681 714.986C472.786 715.621 472.338 716.426 472.338 717.403C472.338 718.363 472.696 719.193 473.413 719.893C474.129 720.593 475.04 720.943 476.147 720.943C477.384 720.943 478.564 720.536 479.687 719.722C480.517 719.104 481.062 718.347 481.323 717.452C481.502 716.866 481.591 715.751 481.591 714.107L481.591 712.74Z"/>
<path d="M501.66 725.191L494.799 725.191L494.799 699.263L501.171 699.263L501.171 702.95C502.262 701.208 503.242 700.061 504.113 699.507C504.984 698.954 505.973 698.677 507.08 698.677C508.642 698.677 510.148 699.109 511.596 699.971L509.472 705.953C508.317 705.204 507.242 704.83 506.249 704.83C505.289 704.83 504.475 705.094 503.808 705.623C503.141 706.152 502.616 707.108 502.233 708.492C501.851 709.875 501.66 712.772 501.66 717.183L501.66 725.191Z"/>
<path d="M519.677 707.174L513.452 706.05C514.151 703.544 515.356 701.688 517.065 700.484C518.774 699.28 521.313 698.677 524.682 698.677C527.742 698.677 530.021 699.04 531.518 699.764C533.015 700.488 534.069 701.408 534.68 702.523C535.29 703.638 535.595 705.684 535.595 708.663L535.522 716.671C535.522 718.949 535.632 720.63 535.852 721.712C536.071 722.794 536.482 723.954 537.084 725.191L530.297 725.191C530.118 724.735 529.899 724.06 529.638 723.165C529.524 722.758 529.443 722.489 529.394 722.359C528.222 723.498 526.969 724.353 525.634 724.923C524.3 725.492 522.875 725.777 521.362 725.777C518.693 725.777 516.589 725.053 515.051 723.604C513.513 722.156 512.744 720.325 512.744 718.111C512.744 716.646 513.094 715.34 513.793 714.193C514.493 713.045 515.474 712.166 516.735 711.556C517.997 710.945 519.816 710.412 522.192 709.957C525.398 709.355 527.62 708.793 528.857 708.272L528.857 707.589C528.857 706.27 528.531 705.33 527.88 704.769C527.229 704.207 526 703.926 524.194 703.926C522.973 703.926 522.021 704.167 521.337 704.647C520.654 705.127 520.1 705.969 519.677 707.174ZM528.857 712.74C527.978 713.033 526.586 713.383 524.682 713.79C522.778 714.197 521.533 714.595 520.947 714.986C520.052 715.621 519.604 716.426 519.604 717.403C519.604 718.363 519.962 719.193 520.678 719.893C521.394 720.593 522.306 720.943 523.413 720.943C524.65 720.943 525.83 720.536 526.953 719.722C527.783 719.104 528.328 718.347 528.588 717.452C528.767 716.866 528.857 715.751 528.857 714.107L528.857 712.74Z"/>
<path d="M541.723 726.9L549.56 727.852C549.69 728.764 549.991 729.39 550.463 729.732C551.114 730.22 552.14 730.465 553.54 730.465C555.33 730.465 556.673 730.196 557.568 729.659C558.17 729.301 558.626 728.723 558.935 727.925C559.147 727.356 559.252 726.306 559.252 724.776L559.252 720.992C557.202 723.791 554.614 725.191 551.489 725.191C548.006 725.191 545.247 723.718 543.212 720.772C541.617 718.445 540.82 715.548 540.82 712.081C540.82 707.735 541.866 704.415 543.957 702.12C546.048 699.825 548.649 698.677 551.757 698.677C554.964 698.677 557.609 700.085 559.692 702.901L559.692 699.263L566.113 699.263L566.113 722.53C566.113 725.59 565.86 727.877 565.356 729.39C564.851 730.904 564.143 732.092 563.232 732.955C562.32 733.817 561.104 734.493 559.582 734.981C558.06 735.469 556.136 735.714 553.808 735.714C549.414 735.714 546.297 734.961 544.457 733.455C542.618 731.95 541.699 730.041 541.699 727.73C541.699 727.502 541.707 727.226 541.723 726.9ZM547.851 711.69C547.851 714.441 548.384 716.455 549.45 717.733C550.516 719.01 551.831 719.649 553.393 719.649C555.069 719.649 556.485 718.994 557.641 717.684C558.797 716.374 559.374 714.433 559.374 711.861C559.374 709.175 558.821 707.182 557.714 705.88C556.608 704.577 555.208 703.926 553.515 703.926C551.871 703.926 550.516 704.565 549.45 705.843C548.384 707.121 547.851 709.07 547.851 711.69Z"/>
<path d="M579.467 725.191L572.607 725.191L572.607 699.263L578.979 699.263L578.979 702.95C580.069 701.208 581.05 700.061 581.921 699.507C582.792 698.954 583.78 698.677 584.887 698.677C586.45 698.677 587.955 699.109 589.404 699.971L587.28 705.953C586.124 705.204 585.05 704.83 584.057 704.83C583.097 704.83 582.283 705.094 581.616 705.623C580.948 706.152 580.423 707.108 580.041 708.492C579.658 709.875 579.467 712.772 579.467 717.183L579.467 725.191Z"/>
<path d="M597.485 707.174L591.259 706.05C591.959 703.544 593.164 701.688 594.873 700.484C596.581 699.28 599.121 698.677 602.49 698.677C605.55 698.677 607.828 699.04 609.326 699.764C610.823 700.488 611.877 701.408 612.487 702.523C613.098 703.638 613.403 705.684 613.403 708.663L613.33 716.671C613.33 718.949 613.439 720.63 613.659 721.712C613.879 722.794 614.29 723.954 614.892 725.191L608.105 725.191C607.926 724.735 607.706 724.06 607.446 723.165C607.332 722.758 607.25 722.489 607.202 722.359C606.03 723.498 604.776 724.353 603.442 724.923C602.107 725.492 600.683 725.777 599.169 725.777C596.5 725.777 594.396 725.053 592.858 723.604C591.32 722.156 590.551 720.325 590.551 718.111C590.551 716.646 590.901 715.34 591.601 714.193C592.301 713.045 593.282 712.166 594.543 711.556C595.804 710.945 597.623 710.412 599.999 709.957C603.206 709.355 605.428 708.793 606.665 708.272L606.665 707.589C606.665 706.27 606.339 705.33 605.688 704.769C605.037 704.207 603.808 703.926 602.001 703.926C600.781 703.926 599.829 704.167 599.145 704.647C598.461 705.127 597.908 705.969 597.485 707.174ZM606.665 712.74C605.786 713.033 604.394 713.383 602.49 713.79C600.585 714.197 599.34 714.595 598.754 714.986C597.859 715.621 597.412 716.426 597.412 717.403C597.412 718.363 597.77 719.193 598.486 719.893C599.202 720.593 600.113 720.943 601.22 720.943C602.457 720.943 603.637 720.536 604.76 719.722C605.59 719.104 606.136 718.347 606.396 717.452C606.575 716.866 606.665 715.751 606.665 714.107L606.665 712.74Z"/>
<path d="M619.97 699.263L626.367 699.263L626.367 703.072C627.197 701.77 628.32 700.712 629.736 699.898C631.152 699.084 632.722 698.677 634.448 698.677C637.459 698.677 640.014 699.857 642.114 702.217C644.213 704.577 645.263 707.865 645.263 712.081C645.263 716.41 644.205 719.775 642.089 722.176C639.973 724.577 637.41 725.777 634.399 725.777C632.967 725.777 631.669 725.492 630.505 724.923C629.341 724.353 628.116 723.376 626.831 721.993L626.831 735.054L619.97 735.054L619.97 699.263ZM626.757 711.788C626.757 714.701 627.335 716.854 628.491 718.245C629.646 719.637 631.054 720.333 632.714 720.333C634.309 720.333 635.636 719.694 636.694 718.416C637.752 717.139 638.281 715.043 638.281 712.13C638.281 709.411 637.735 707.393 636.645 706.075C635.554 704.757 634.204 704.097 632.592 704.097C630.916 704.097 629.524 704.744 628.417 706.038C627.311 707.332 626.757 709.249 626.757 711.788Z"/>
<path d="M657.543 689.4L657.543 702.559C659.757 699.971 662.402 698.677 665.478 698.677C667.057 698.677 668.481 698.97 669.75 699.556C671.02 700.142 671.976 700.891 672.619 701.802C673.262 702.714 673.701 703.723 673.937 704.83C674.173 705.937 674.291 707.654 674.291 709.981L674.291 725.191L667.431 725.191L667.431 711.495C667.431 708.777 667.301 707.051 667.04 706.319C666.78 705.587 666.32 705.005 665.661 704.573C665.002 704.142 664.176 703.926 663.183 703.926C662.044 703.926 661.026 704.203 660.131 704.757C659.236 705.31 658.581 706.144 658.166 707.259C657.751 708.374 657.543 710.022 657.543 712.203L657.543 725.191L650.683 725.191L650.683 689.4L657.543 689.4Z"/>
<path d="M696.264 716.939L703.1 718.087C702.221 720.593 700.834 722.501 698.937 723.812C697.041 725.122 694.669 725.777 691.821 725.777C687.312 725.777 683.976 724.304 681.811 721.358C680.102 718.998 679.248 716.02 679.248 712.423C679.248 708.126 680.371 704.761 682.617 702.327C684.863 699.894 687.703 698.677 691.137 698.677C694.995 698.677 698.038 699.951 700.268 702.498C702.498 705.045 703.564 708.948 703.466 714.205L686.279 714.205C686.328 716.239 686.881 717.822 687.939 718.953C688.997 720.084 690.315 720.65 691.894 720.65C692.968 720.65 693.872 720.357 694.604 719.771C695.336 719.185 695.89 718.241 696.264 716.939ZM696.655 710.006C696.606 708.02 696.093 706.51 695.117 705.477C694.14 704.443 692.952 703.926 691.552 703.926C690.055 703.926 688.818 704.472 687.841 705.562C686.865 706.653 686.385 708.134 686.401 710.006L696.655 710.006Z"/>
</g>
<path d="M265 1015.48L865 1015.48L865 1186.13L265 1186.13L265 1015.48Z" fill="none" opacity="1" stroke="#000000" stroke-linecap="butt" stroke-linejoin="round" stroke-width="5.07805" vectornator:layerName="Rectangle 15"/>
<g fill="#000000" opacity="1" stroke="none" vectornator:layerName="Texte 11">
<path d="M510.483 1105.1L510.483 1069.61L517.71 1069.61L517.71 1099.07L535.679 1099.07L535.679 1105.1L510.483 1105.1Z"/>
<path d="M540.781 1075.66L540.781 1069.31L547.642 1069.31L547.642 1075.66L540.781 1075.66ZM540.781 1105.1L540.781 1079.18L547.642 1079.18L547.642 1105.1L540.781 1105.1Z"/>
<path d="M552.256 1097.71L559.141 1096.66C559.434 1097.99 560.028 1099.01 560.923 1099.7C561.818 1100.39 563.071 1100.73 564.683 1100.73C566.457 1100.73 567.791 1100.41 568.687 1099.76C569.289 1099.3 569.59 1098.69 569.59 1097.93C569.59 1097.41 569.427 1096.97 569.102 1096.63C568.76 1096.31 567.995 1096.01 566.807 1095.73C561.273 1094.51 557.765 1093.39 556.284 1092.38C554.233 1090.99 553.208 1089.04 553.208 1086.55C553.208 1084.3 554.095 1082.42 555.869 1080.89C557.643 1079.36 560.394 1078.59 564.121 1078.59C567.669 1078.59 570.306 1079.17 572.031 1080.32C573.757 1081.48 574.945 1083.19 575.596 1085.45L569.126 1086.65C568.849 1085.64 568.324 1084.87 567.551 1084.33C566.778 1083.79 565.675 1083.52 564.243 1083.52C562.437 1083.52 561.143 1083.77 560.361 1084.28C559.84 1084.64 559.58 1085.1 559.58 1085.67C559.58 1086.16 559.808 1086.57 560.264 1086.92C560.882 1087.37 563.018 1088.01 566.672 1088.84C570.326 1089.67 572.878 1090.69 574.326 1091.9C575.758 1093.12 576.475 1094.82 576.475 1097C576.475 1099.38 575.482 1101.42 573.496 1103.13C571.51 1104.84 568.573 1105.69 564.683 1105.69C561.151 1105.69 558.355 1104.97 556.296 1103.54C554.237 1102.11 552.891 1100.16 552.256 1097.71Z"/>
<path d="M594.37 1079.18L594.37 1084.65L589.683 1084.65L589.683 1095.09C589.683 1097.21 589.727 1098.44 589.817 1098.79C589.906 1099.14 590.11 1099.43 590.427 1099.66C590.745 1099.89 591.131 1100 591.587 1100C592.222 1100 593.141 1099.78 594.346 1099.34L594.932 1104.67C593.337 1105.35 591.53 1105.69 589.512 1105.69C588.275 1105.69 587.16 1105.48 586.167 1105.07C585.174 1104.65 584.446 1104.12 583.982 1103.46C583.518 1102.8 583.197 1101.91 583.018 1100.78C582.871 1099.99 582.798 1098.37 582.798 1095.95L582.798 1084.65L579.648 1084.65L579.648 1079.18L582.798 1079.18L582.798 1074.03L589.683 1070.02L589.683 1079.18L594.37 1079.18Z"/>
<path d="M614.146 1096.85L620.981 1098C620.103 1100.51 618.715 1102.42 616.819 1103.73C614.923 1105.04 612.55 1105.69 609.702 1105.69C605.194 1105.69 601.857 1104.22 599.692 1101.27C597.983 1098.91 597.129 1095.93 597.129 1092.34C597.129 1088.04 598.252 1084.67 600.498 1082.24C602.744 1079.81 605.584 1078.59 609.019 1078.59C612.876 1078.59 615.92 1079.86 618.149 1082.41C620.379 1084.96 621.445 1088.86 621.348 1094.12L604.16 1094.12C604.209 1096.15 604.762 1097.74 605.82 1098.87C606.878 1100 608.197 1100.56 609.775 1100.56C610.85 1100.56 611.753 1100.27 612.485 1099.68C613.218 1099.1 613.771 1098.15 614.146 1096.85ZM614.536 1089.92C614.487 1087.93 613.975 1086.42 612.998 1085.39C612.021 1084.36 610.833 1083.84 609.434 1083.84C607.936 1083.84 606.699 1084.39 605.723 1085.48C604.746 1086.57 604.266 1088.05 604.282 1089.92L614.536 1089.92Z"/>
</g>
</g>
</svg>
