<?xml version="1.0" encoding="UTF-8" standalone="no"?>
<!DOCTYPE svg PUBLIC "-//W3C//DTD SVG 1.1//EN" "http://www.w3.org/Graphics/SVG/1.1/DTD/svg11.dtd">
<!-- Created with Vectornator (http://vectornator.io/) -->
<svg height="100%" stroke-miterlimit="10" style="fill-rule:nonzero;clip-rule:evenodd;stroke-linecap:round;stroke-linejoin:round;" version="1.1" viewBox="0 0 1080 1675" width="100%" xml:space="preserve" xmlns="http://www.w3.org/2000/svg" xmlns:vectornator="http://vectornator.io" xmlns:xlink="http://www.w3.org/1999/xlink">
<defs/>
<path d="M0 0L1080 0L1080 1675L0 1675L0 0Z" fill="#ffffff" fill-rule="nonzero" opacity="1" stroke="none"/>
<g id="Calque-1" vectornator:layerName="Calque 1">
<path d="M40 136.5L1040 136.5L1040 1527.08L40 1527.08L40 136.5Z" fill="none" opacity="1" stroke="#000000" stroke-linecap="butt" stroke-linejoin="round" stroke-width="5.07805" vectornator:layerName="Rectangle 2"/>
<path d="M143.62 801.341L879.5 801.341L879.5 1001.34L143.62 1001.34L143.62 801.341Z" fill="none" opacity="1" stroke="#000000" stroke-linecap="butt" stroke-linejoin="round" stroke-width="5.07805" vectornator:layerName="Rectangle 6"/>
<path d="M307.173 250L811 250L811 450L307.173 450L307.173 250Z" fill="none" opacity="1" stroke="#000000" stroke-linecap="butt" stroke-linejoin="round" stroke-width="5.07805" vectornator:layerName="Rectangle 3"/>
<path d="M77.5 475L1002.5 475L1002.5 775L77.5 775L77.5 475Z" fill="none" opacity="1" stroke="#000000" stroke-linecap="butt" stroke-linejoin="round" stroke-width="5.07805" vectornator:layerName="Rectangle 4"/>
<path d="M40 40L1040 40L1040 120L40 120L40 40Z" fill="none" opacity="1" stroke="#000000" stroke-linecap="butt" stroke-linejoin="round" stroke-width="5.07805" vectornator:layerName="Rectangle 1"/>
<path d="M77.5 158.5L1002.5 158.5L1002.5 228.5L77.5 228.5L77.5 158.5Z" fill="none" opacity="1" stroke="#000000" stroke-linecap="butt" stroke-linejoin="round" stroke-width="5.07805" vectornator:layerName="Rectangle 5"/>
<path d="M77.5 1043.28L1002.5 1043.28L1002.5 1493.28L77.5 1493.28L77.5 1043.28Z" fill="none" opacity="1" stroke="#000000" stroke-linecap="butt" stroke-linejoin="round" stroke-width="5.07805" vectornator:layerName="Rectangle 7"/>
<path d="M107.173 1068.28L507.173 1068.28L507.173 1468.28L107.173 1468.28L107.173 1068.28Z" fill="none" opacity="1" stroke="#000000" stroke-linecap="butt" stroke-linejoin="round" stroke-width="5.07805" vectornator:layerName="Rectangle 9"/>
<path d="M565 1068.28L965 1068.28L965 1468.28L565 1468.28L565 1068.28Z" fill="none" opacity="1" stroke="#000000" stroke-linecap="butt" stroke-linejoin="round" stroke-width="5.07805" vectornator:layerName="Rectangle 8"/>
<g fill="#000000" opacity="1" stroke="none" vectornator:layerName="Texte 1">
<path d="M428.438 307.35L448.467 307.35C452.432 307.35 455.388 307.515 457.336 307.846C459.285 308.176 461.028 308.865 462.566 309.914C464.104 310.962 465.386 312.357 466.411 314.101C467.437 315.844 467.949 317.798 467.949 319.962C467.949 322.309 467.317 324.463 466.052 326.422C464.788 328.382 463.073 329.852 460.908 330.832C463.962 331.72 466.309 333.236 467.949 335.377C469.59 337.519 470.41 340.037 470.41 342.931C470.41 345.21 469.88 347.426 468.821 349.579C467.761 351.732 466.314 353.453 464.48 354.74C462.646 356.028 460.384 356.82 457.695 357.116C456.009 357.298 451.942 357.412 445.493 357.458L428.438 357.458L428.438 307.35ZM438.555 315.69L438.555 327.277L445.186 327.277C449.128 327.277 451.577 327.22 452.534 327.106C454.266 326.901 455.627 326.303 456.619 325.312C457.61 324.32 458.105 323.016 458.105 321.398C458.105 319.849 457.678 318.59 456.824 317.621C455.969 316.653 454.699 316.066 453.013 315.861C452.01 315.747 449.128 315.69 444.365 315.69L438.555 315.69ZM438.555 335.617L438.555 349.015L447.92 349.015C451.566 349.015 453.879 348.913 454.858 348.708C456.362 348.434 457.587 347.768 458.533 346.708C459.478 345.648 459.951 344.23 459.951 342.453C459.951 340.949 459.587 339.673 458.857 338.625C458.128 337.576 457.074 336.813 455.696 336.335C454.317 335.856 451.326 335.617 446.724 335.617L438.555 335.617Z"/>
<path d="M478.887 357.458L478.887 307.35L488.491 307.35L488.491 357.458L478.887 357.458Z"/>
<path d="M505.513 332.233L496.797 330.661C497.777 327.152 499.463 324.554 501.855 322.868C504.248 321.182 507.803 320.338 512.52 320.338C516.803 320.338 519.993 320.845 522.09 321.859C524.186 322.873 525.662 324.161 526.516 325.722C527.371 327.283 527.798 330.148 527.798 334.318L527.695 345.529C527.695 348.719 527.849 351.072 528.157 352.587C528.464 354.102 529.04 355.726 529.883 357.458L520.381 357.458C520.13 356.82 519.823 355.874 519.458 354.621C519.299 354.051 519.185 353.675 519.116 353.493C517.476 355.088 515.721 356.284 513.853 357.082C511.984 357.879 509.99 358.278 507.871 358.278C504.134 358.278 501.189 357.264 499.036 355.236C496.882 353.208 495.806 350.644 495.806 347.545C495.806 345.495 496.296 343.666 497.275 342.06C498.255 340.453 499.628 339.223 501.394 338.368C503.16 337.514 505.706 336.767 509.033 336.129C513.522 335.286 516.632 334.5 518.364 333.771L518.364 332.814C518.364 330.968 517.909 329.652 516.997 328.866C516.086 328.08 514.365 327.687 511.836 327.687C510.127 327.687 508.794 328.023 507.837 328.695C506.88 329.368 506.105 330.547 505.513 332.233ZM518.364 340.026C517.134 340.436 515.186 340.926 512.52 341.496C509.854 342.065 508.11 342.624 507.29 343.17C506.037 344.059 505.41 345.187 505.41 346.554C505.41 347.899 505.911 349.061 506.914 350.041C507.917 351.02 509.193 351.51 510.742 351.51C512.474 351.51 514.126 350.941 515.698 349.801C516.86 348.935 517.624 347.876 517.988 346.623C518.239 345.802 518.364 344.241 518.364 341.94L518.364 340.026Z"/>
<path d="M533.882 347.101L543.521 345.631C543.931 347.5 544.762 348.918 546.016 349.887C547.269 350.855 549.023 351.339 551.279 351.339C553.763 351.339 555.632 350.884 556.885 349.972C557.728 349.334 558.149 348.48 558.149 347.409C558.149 346.68 557.922 346.076 557.466 345.597C556.987 345.141 555.916 344.72 554.253 344.333C546.506 342.624 541.595 341.063 539.521 339.65C536.65 337.69 535.215 334.967 535.215 331.481C535.215 328.336 536.457 325.693 538.94 323.551C541.424 321.409 545.275 320.338 550.493 320.338C555.461 320.338 559.152 321.147 561.567 322.765C563.983 324.383 565.646 326.776 566.558 329.943L557.5 331.618C557.113 330.205 556.378 329.123 555.295 328.371C554.213 327.619 552.669 327.243 550.664 327.243C548.135 327.243 546.323 327.596 545.229 328.302C544.5 328.804 544.136 329.453 544.136 330.251C544.136 330.934 544.455 331.515 545.093 331.994C545.959 332.632 548.949 333.532 554.065 334.694C559.181 335.856 562.752 337.28 564.78 338.966C566.785 340.675 567.788 343.057 567.788 346.11C567.788 349.437 566.398 352.296 563.618 354.689C560.838 357.082 556.725 358.278 551.279 358.278C546.335 358.278 542.421 357.275 539.539 355.27C536.656 353.265 534.771 350.542 533.882 347.101Z"/>
<path d="M573.975 338.795C573.975 335.605 574.761 332.518 576.333 329.533C577.905 326.548 580.133 324.269 583.015 322.697C585.898 321.125 589.116 320.338 592.671 320.338C598.162 320.338 602.663 322.121 606.172 325.688C609.681 329.254 611.436 333.76 611.436 339.206C611.436 344.697 609.664 349.249 606.121 352.86C602.577 356.472 598.117 358.278 592.739 358.278C589.412 358.278 586.239 357.526 583.22 356.022C580.201 354.518 577.905 352.314 576.333 349.408C574.761 346.503 573.975 342.965 573.975 338.795ZM583.818 339.308C583.818 342.908 584.673 345.666 586.382 347.58C588.091 349.494 590.199 350.451 592.705 350.451C595.212 350.451 597.314 349.494 599.011 347.58C600.709 345.666 601.558 342.886 601.558 339.24C601.558 335.685 600.709 332.951 599.011 331.037C597.314 329.123 595.212 328.166 592.705 328.166C590.199 328.166 588.091 329.123 586.382 331.037C584.673 332.951 583.818 335.708 583.818 339.308Z"/>
<path d="M651.973 357.458L642.368 357.458L642.368 338.932C642.368 335.013 642.163 332.478 641.753 331.327C641.343 330.176 640.676 329.282 639.753 328.644C638.831 328.006 637.72 327.687 636.421 327.687C634.757 327.687 633.265 328.143 631.943 329.054C630.622 329.966 629.716 331.173 629.226 332.677C628.736 334.181 628.491 336.961 628.491 341.017L628.491 357.458L618.887 357.458L618.887 321.159L627.808 321.159L627.808 326.491C630.975 322.389 634.963 320.338 639.771 320.338C641.89 320.338 643.826 320.72 645.581 321.483C647.336 322.247 648.663 323.221 649.563 324.406C650.463 325.591 651.09 326.935 651.443 328.439C651.796 329.943 651.973 332.096 651.973 334.899L651.973 357.458Z"/>
</g>
<g fill="#000000" opacity="1" stroke="none" vectornator:layerName="Texte 4">
<path d="M497.971 210L497.971 180.264L487.351 180.264L487.351 174.209L515.793 174.209L515.793 180.264L505.198 180.264L505.198 210L497.971 210Z"/>
<path d="M519.504 180.557L519.504 174.209L526.365 174.209L526.365 180.557L519.504 180.557ZM519.504 210L519.504 184.072L526.365 184.072L526.365 210L519.504 210Z"/>
<path d="M545.286 184.072L545.286 189.541L540.598 189.541L540.598 199.99C540.598 202.106 540.643 203.339 540.732 203.689C540.822 204.039 541.025 204.328 541.343 204.556C541.66 204.784 542.047 204.897 542.502 204.897C543.137 204.897 544.057 204.678 545.261 204.238L545.847 209.561C544.252 210.244 542.445 210.586 540.427 210.586C539.19 210.586 538.075 210.378 537.083 209.963C536.09 209.548 535.361 209.011 534.897 208.352C534.434 207.693 534.112 206.802 533.933 205.679C533.787 204.881 533.713 203.27 533.713 200.845L533.713 189.541L530.564 189.541L530.564 184.072L533.713 184.072L533.713 178.921L540.598 174.917L540.598 184.072L545.286 184.072Z"/>
<path d="M556.614 210L549.753 210L549.753 184.072L556.125 184.072L556.125 187.759C557.216 186.017 558.197 184.87 559.067 184.316C559.938 183.763 560.927 183.486 562.034 183.486C563.596 183.486 565.102 183.918 566.55 184.78L564.426 190.762C563.271 190.013 562.196 189.639 561.204 189.639C560.243 189.639 559.43 189.903 558.762 190.432C558.095 190.961 557.57 191.917 557.188 193.301C556.805 194.684 556.614 197.581 556.614 201.992L556.614 210Z"/>
<path d="M584.519 201.748L591.355 202.896C590.476 205.402 589.089 207.31 587.192 208.621C585.296 209.931 582.924 210.586 580.076 210.586C575.567 210.586 572.231 209.113 570.066 206.167C568.357 203.807 567.502 200.828 567.502 197.231C567.502 192.935 568.625 189.569 570.872 187.136C573.118 184.703 575.958 183.486 579.392 183.486C583.25 183.486 586.293 184.76 588.523 187.307C590.753 189.854 591.819 193.757 591.721 199.014L574.534 199.014C574.583 201.048 575.136 202.631 576.194 203.762C577.252 204.893 578.57 205.459 580.149 205.459C581.223 205.459 582.126 205.166 582.859 204.58C583.591 203.994 584.145 203.05 584.519 201.748ZM584.91 194.814C584.861 192.829 584.348 191.319 583.372 190.286C582.395 189.252 581.207 188.735 579.807 188.735C578.31 188.735 577.073 189.281 576.096 190.371C575.12 191.462 574.639 192.943 574.656 194.814L584.91 194.814Z"/>
</g>
<g fill="#000000" opacity="1" stroke="none" vectornator:layerName="Texte 2">
<path d="M424.165 625L424.165 574.893L434.282 574.893L434.282 625L424.165 625Z"/>
<path d="M443.135 588.701L451.987 588.701L451.987 593.657C455.155 589.806 458.926 587.881 463.301 587.881C465.625 587.881 467.642 588.359 469.351 589.316C471.06 590.273 472.461 591.72 473.555 593.657C475.15 591.72 476.87 590.273 478.716 589.316C480.562 588.359 482.533 587.881 484.629 587.881C487.295 587.881 489.551 588.422 491.396 589.504C493.242 590.587 494.621 592.176 495.532 594.272C496.193 595.822 496.523 598.328 496.523 601.792L496.523 625L486.919 625L486.919 604.253C486.919 600.653 486.589 598.328 485.928 597.28C485.039 595.913 483.672 595.229 481.826 595.229C480.482 595.229 479.217 595.64 478.032 596.46C476.847 597.28 475.993 598.482 475.469 600.066C474.945 601.65 474.683 604.15 474.683 607.568L474.683 625L465.078 625L465.078 605.107C465.078 601.576 464.907 599.297 464.565 598.271C464.224 597.246 463.694 596.483 462.976 595.981C462.258 595.48 461.284 595.229 460.054 595.229C458.573 595.229 457.24 595.628 456.055 596.426C454.87 597.223 454.021 598.374 453.508 599.878C452.996 601.382 452.739 603.877 452.739 607.363L452.739 625L443.135 625L443.135 588.701Z"/>
<path d="M513.271 599.775L504.556 598.203C505.535 594.694 507.222 592.096 509.614 590.41C512.007 588.724 515.562 587.881 520.278 587.881C524.562 587.881 527.752 588.388 529.849 589.402C531.945 590.416 533.42 591.703 534.275 593.264C535.129 594.825 535.557 597.69 535.557 601.86L535.454 613.071C535.454 616.261 535.608 618.614 535.916 620.129C536.223 621.645 536.799 623.268 537.642 625L528.14 625C527.889 624.362 527.581 623.416 527.217 622.163C527.057 621.593 526.943 621.217 526.875 621.035C525.234 622.63 523.48 623.826 521.611 624.624C519.743 625.422 517.749 625.82 515.63 625.82C511.893 625.82 508.948 624.806 506.794 622.778C504.641 620.75 503.564 618.187 503.564 615.088C503.564 613.037 504.054 611.208 505.034 609.602C506.014 607.996 507.387 606.765 509.153 605.911C510.919 605.056 513.465 604.31 516.792 603.672C521.281 602.829 524.391 602.043 526.123 601.313L526.123 600.356C526.123 598.511 525.667 597.195 524.756 596.409C523.844 595.623 522.124 595.229 519.595 595.229C517.886 595.229 516.553 595.566 515.596 596.238C514.639 596.91 513.864 598.089 513.271 599.775ZM526.123 607.568C524.893 607.979 522.944 608.468 520.278 609.038C517.612 609.608 515.869 610.166 515.049 610.713C513.796 611.602 513.169 612.729 513.169 614.097C513.169 615.441 513.67 616.603 514.673 617.583C515.675 618.563 516.951 619.053 518.501 619.053C520.233 619.053 521.885 618.483 523.457 617.344C524.619 616.478 525.382 615.418 525.747 614.165C525.998 613.345 526.123 611.784 526.123 609.482L526.123 607.568Z"/>
<path d="M544.136 627.393L555.107 628.726C555.29 630.002 555.711 630.879 556.372 631.357C557.284 632.041 558.719 632.383 560.679 632.383C563.185 632.383 565.065 632.007 566.318 631.255C567.161 630.754 567.799 629.945 568.232 628.828C568.529 628.031 568.677 626.561 568.677 624.419L568.677 619.121C565.806 623.04 562.183 625 557.808 625C552.931 625 549.069 622.938 546.221 618.813C543.988 615.555 542.871 611.499 542.871 606.646C542.871 600.562 544.335 595.913 547.263 592.7C550.191 589.487 553.831 587.881 558.184 587.881C562.673 587.881 566.375 589.852 569.292 593.794L569.292 588.701L578.281 588.701L578.281 621.274C578.281 625.558 577.928 628.76 577.222 630.879C576.515 632.998 575.524 634.661 574.248 635.869C572.972 637.077 571.269 638.022 569.138 638.706C567.008 639.39 564.313 639.731 561.055 639.731C554.902 639.731 550.539 638.678 547.964 636.57C545.389 634.462 544.102 631.79 544.102 628.555C544.102 628.236 544.113 627.848 544.136 627.393ZM552.715 606.099C552.715 609.95 553.461 612.769 554.954 614.558C556.446 616.347 558.286 617.241 560.474 617.241C562.821 617.241 564.803 616.324 566.421 614.49C568.039 612.655 568.848 609.938 568.848 606.338C568.848 602.578 568.073 599.787 566.523 597.964C564.974 596.141 563.014 595.229 560.645 595.229C558.343 595.229 556.446 596.124 554.954 597.913C553.461 599.701 552.715 602.43 552.715 606.099Z"/>
<path d="M608.804 613.447L618.374 615.054C617.144 618.563 615.201 621.235 612.546 623.069C609.892 624.903 606.571 625.82 602.583 625.82C596.271 625.82 591.6 623.758 588.569 619.634C586.177 616.33 584.98 612.16 584.98 607.124C584.98 601.108 586.553 596.397 589.697 592.991C592.842 589.584 596.818 587.881 601.626 587.881C607.026 587.881 611.287 589.664 614.409 593.23C617.531 596.796 619.023 602.259 618.887 609.619L594.824 609.619C594.893 612.467 595.667 614.683 597.148 616.267C598.63 617.851 600.475 618.643 602.686 618.643C604.189 618.643 605.454 618.232 606.479 617.412C607.505 616.592 608.28 615.27 608.804 613.447ZM609.351 603.74C609.282 600.96 608.564 598.847 607.197 597.4C605.83 595.953 604.167 595.229 602.207 595.229C600.111 595.229 598.379 595.993 597.012 597.52C595.645 599.046 594.972 601.12 594.995 603.74L609.351 603.74Z"/>
<path d="M623.33 614.644L632.969 613.174C633.379 615.042 634.211 616.461 635.464 617.429C636.717 618.398 638.472 618.882 640.728 618.882C643.211 618.882 645.08 618.426 646.333 617.515C647.176 616.877 647.598 616.022 647.598 614.951C647.598 614.222 647.37 613.618 646.914 613.14C646.436 612.684 645.365 612.262 643.701 611.875C635.954 610.166 631.043 608.605 628.97 607.192C626.099 605.233 624.663 602.51 624.663 599.023C624.663 595.879 625.905 593.236 628.389 591.094C630.872 588.952 634.723 587.881 639.941 587.881C644.909 587.881 648.6 588.69 651.016 590.308C653.431 591.925 655.094 594.318 656.006 597.485L646.948 599.16C646.561 597.747 645.826 596.665 644.744 595.913C643.661 595.161 642.118 594.785 640.112 594.785C637.583 594.785 635.771 595.138 634.678 595.845C633.949 596.346 633.584 596.995 633.584 597.793C633.584 598.477 633.903 599.058 634.541 599.536C635.407 600.174 638.398 601.074 643.513 602.236C648.629 603.398 652.201 604.823 654.229 606.509C656.234 608.218 657.236 610.599 657.236 613.652C657.236 616.979 655.846 619.839 653.066 622.231C650.286 624.624 646.174 625.82 640.728 625.82C635.783 625.82 631.869 624.818 628.987 622.812C626.104 620.807 624.219 618.084 623.33 614.644Z"/>
</g>
<g fill="#000000" opacity="1" stroke="none" vectornator:layerName="Texte 3">
<path d="M352.507 900L352.507 849.893L368.743 849.893C374.895 849.893 378.905 850.143 380.774 850.645C383.645 851.396 386.049 853.031 387.986 855.549C389.923 858.067 390.891 861.32 390.891 865.308C390.891 868.384 390.333 870.97 389.216 873.066C388.1 875.163 386.681 876.809 384.961 878.005C383.241 879.202 381.492 879.993 379.714 880.381C377.299 880.859 373.801 881.099 369.221 881.099L362.625 881.099L362.625 900L352.507 900ZM362.625 858.369L362.625 872.588L368.162 872.588C372.149 872.588 374.815 872.326 376.16 871.802C377.504 871.278 378.558 870.457 379.321 869.341C380.085 868.224 380.466 866.925 380.466 865.444C380.466 863.621 379.931 862.118 378.86 860.933C377.789 859.748 376.433 859.007 374.792 858.711C373.585 858.483 371.158 858.369 367.512 858.369L362.625 858.369Z"/>
<path d="M406.306 874.775L397.59 873.203C398.57 869.694 400.256 867.096 402.649 865.41C405.042 863.724 408.596 862.881 413.313 862.881C417.597 862.881 420.787 863.388 422.883 864.402C424.98 865.416 426.455 866.703 427.31 868.264C428.164 869.825 428.591 872.69 428.591 876.86L428.489 888.071C428.489 891.261 428.643 893.614 428.95 895.129C429.258 896.645 429.833 898.268 430.676 900L421.174 900C420.924 899.362 420.616 898.416 420.251 897.163C420.092 896.593 419.978 896.217 419.91 896.035C418.269 897.63 416.514 898.826 414.646 899.624C412.778 900.422 410.784 900.82 408.665 900.82C404.928 900.82 401.982 899.806 399.829 897.778C397.676 895.75 396.599 893.187 396.599 890.088C396.599 888.037 397.089 886.208 398.069 884.602C399.049 882.996 400.422 881.765 402.187 880.911C403.953 880.056 406.5 879.31 409.827 878.672C414.316 877.829 417.426 877.043 419.158 876.313L419.158 875.356C419.158 873.511 418.702 872.195 417.791 871.409C416.879 870.623 415.159 870.229 412.629 870.229C410.92 870.229 409.587 870.566 408.63 871.238C407.673 871.91 406.899 873.089 406.306 874.775ZM419.158 882.568C417.927 882.979 415.979 883.468 413.313 884.038C410.647 884.608 408.904 885.166 408.083 885.713C406.83 886.602 406.204 887.729 406.204 889.097C406.204 890.441 406.705 891.603 407.708 892.583C408.71 893.563 409.986 894.053 411.536 894.053C413.267 894.053 414.919 893.483 416.492 892.344C417.654 891.478 418.417 890.418 418.782 889.165C419.032 888.345 419.158 886.784 419.158 884.482L419.158 882.568Z"/>
<path d="M447.253 900L437.649 900L437.649 863.701L446.57 863.701L446.57 868.862C448.097 866.424 449.469 864.818 450.688 864.043C451.908 863.268 453.292 862.881 454.841 862.881C457.029 862.881 459.137 863.485 461.165 864.692L458.191 873.066C456.573 872.018 455.069 871.494 453.679 871.494C452.335 871.494 451.195 871.864 450.261 872.605C449.327 873.346 448.592 874.684 448.057 876.621C447.521 878.558 447.253 882.614 447.253 888.789L447.253 900Z"/>
<path d="M472.478 874.775L463.762 873.203C464.742 869.694 466.428 867.096 468.821 865.41C471.213 863.724 474.768 862.881 479.485 862.881C483.769 862.881 486.959 863.388 489.055 864.402C491.152 865.416 492.627 866.703 493.481 868.264C494.336 869.825 494.763 872.69 494.763 876.86L494.661 888.071C494.661 891.261 494.814 893.614 495.122 895.129C495.43 896.645 496.005 898.268 496.848 900L487.346 900C487.096 899.362 486.788 898.416 486.423 897.163C486.264 896.593 486.15 896.217 486.082 896.035C484.441 897.63 482.686 898.826 480.818 899.624C478.949 900.422 476.956 900.82 474.836 900.82C471.099 900.82 468.154 899.806 466.001 897.778C463.848 895.75 462.771 893.187 462.771 890.088C462.771 888.037 463.261 886.208 464.241 884.602C465.221 882.996 466.593 881.765 468.359 880.911C470.125 880.056 472.672 879.31 475.999 878.672C480.487 877.829 483.598 877.043 485.33 876.313L485.33 875.356C485.33 873.511 484.874 872.195 483.962 871.409C483.051 870.623 481.331 870.229 478.801 870.229C477.092 870.229 475.759 870.566 474.802 871.238C473.845 871.91 473.07 873.089 472.478 874.775ZM485.33 882.568C484.099 882.979 482.151 883.468 479.485 884.038C476.819 884.608 475.076 885.166 474.255 885.713C473.002 886.602 472.375 887.729 472.375 889.097C472.375 890.441 472.877 891.603 473.879 892.583C474.882 893.563 476.158 894.053 477.708 894.053C479.439 894.053 481.091 893.483 482.664 892.344C483.826 891.478 484.589 890.418 484.954 889.165C485.204 888.345 485.33 886.784 485.33 884.482L485.33 882.568Z"/>
<path d="M503.342 902.393L514.314 903.726C514.496 905.002 514.918 905.879 515.579 906.357C516.49 907.041 517.926 907.383 519.885 907.383C522.392 907.383 524.272 907.007 525.525 906.255C526.368 905.754 527.006 904.945 527.439 903.828C527.735 903.031 527.883 901.561 527.883 899.419L527.883 894.121C525.012 898.04 521.389 900 517.014 900C512.138 900 508.276 897.938 505.427 893.813C503.194 890.555 502.078 886.499 502.078 881.646C502.078 875.562 503.542 870.913 506.47 867.7C509.398 864.487 513.038 862.881 517.39 862.881C521.879 862.881 525.582 864.852 528.499 868.794L528.499 863.701L537.488 863.701L537.488 896.274C537.488 900.558 537.135 903.76 536.428 905.879C535.722 907.998 534.731 909.661 533.455 910.869C532.179 912.077 530.475 913.022 528.345 913.706C526.214 914.39 523.52 914.731 520.261 914.731C514.109 914.731 509.745 913.678 507.17 911.57C504.596 909.462 503.308 906.79 503.308 903.555C503.308 903.236 503.319 902.848 503.342 902.393ZM511.921 881.099C511.921 884.95 512.668 887.769 514.16 889.558C515.653 891.347 517.493 892.241 519.68 892.241C522.027 892.241 524.01 891.324 525.627 889.49C527.245 887.655 528.054 884.938 528.054 881.338C528.054 877.578 527.279 874.787 525.73 872.964C524.181 871.141 522.221 870.229 519.851 870.229C517.55 870.229 515.653 871.124 514.16 872.913C512.668 874.701 511.921 877.43 511.921 881.099Z"/>
<path d="M556.184 900L546.58 900L546.58 863.701L555.5 863.701L555.5 868.862C557.027 866.424 558.4 864.818 559.619 864.043C560.838 863.268 562.222 862.881 563.772 862.881C565.959 862.881 568.067 863.485 570.095 864.692L567.122 873.066C565.504 872.018 564 871.494 562.61 871.494C561.265 871.494 560.126 871.864 559.192 872.605C558.258 873.346 557.523 874.684 556.987 876.621C556.452 878.558 556.184 882.614 556.184 888.789L556.184 900Z"/>
<path d="M581.409 874.775L572.693 873.203C573.673 869.694 575.359 867.096 577.751 865.41C580.144 863.724 583.699 862.881 588.416 862.881C592.699 862.881 595.889 863.388 597.986 864.402C600.082 865.416 601.558 866.703 602.412 868.264C603.267 869.825 603.694 872.69 603.694 876.86L603.591 888.071C603.591 891.261 603.745 893.614 604.053 895.129C604.36 896.645 604.936 898.268 605.779 900L596.277 900C596.026 899.362 595.719 898.416 595.354 897.163C595.194 896.593 595.081 896.217 595.012 896.035C593.372 897.63 591.617 898.826 589.749 899.624C587.88 900.422 585.886 900.82 583.767 900.82C580.03 900.82 577.085 899.806 574.932 897.778C572.778 895.75 571.702 893.187 571.702 890.088C571.702 888.037 572.192 886.208 573.171 884.602C574.151 882.996 575.524 881.765 577.29 880.911C579.056 880.056 581.602 879.31 584.929 878.672C589.418 877.829 592.528 877.043 594.26 876.313L594.26 875.356C594.26 873.511 593.805 872.195 592.893 871.409C591.982 870.623 590.261 870.229 587.732 870.229C586.023 870.229 584.69 870.566 583.733 871.238C582.776 871.91 582.001 873.089 581.409 874.775ZM594.26 882.568C593.03 882.979 591.082 883.468 588.416 884.038C585.75 884.608 584.006 885.166 583.186 885.713C581.933 886.602 581.306 887.729 581.306 889.097C581.306 890.441 581.807 891.603 582.81 892.583C583.813 893.563 585.089 894.053 586.638 894.053C588.37 894.053 590.022 893.483 591.594 892.344C592.756 891.478 593.52 890.418 593.884 889.165C594.135 888.345 594.26 886.784 594.26 884.482L594.26 882.568Z"/>
<path d="M612.888 863.701L621.843 863.701L621.843 869.033C623.005 867.21 624.578 865.729 626.56 864.59C628.542 863.451 630.741 862.881 633.157 862.881C637.372 862.881 640.95 864.533 643.889 867.837C646.829 871.141 648.298 875.744 648.298 881.646C648.298 887.707 646.817 892.418 643.855 895.779C640.893 899.14 637.304 900.82 633.088 900.82C631.083 900.82 629.266 900.422 627.637 899.624C626.007 898.826 624.293 897.459 622.493 895.522L622.493 913.809L612.888 913.809L612.888 863.701ZM622.39 881.235C622.39 885.314 623.199 888.328 624.817 890.276C626.435 892.224 628.406 893.198 630.73 893.198C632.963 893.198 634.82 892.304 636.301 890.515C637.782 888.726 638.523 885.793 638.523 881.714C638.523 877.909 637.76 875.083 636.233 873.237C634.706 871.392 632.815 870.469 630.559 870.469C628.212 870.469 626.264 871.375 624.714 873.186C623.165 874.998 622.39 877.681 622.39 881.235Z"/>
<path d="M665.491 849.893L665.491 868.315C668.59 864.692 672.292 862.881 676.599 862.881C678.809 862.881 680.803 863.291 682.581 864.111C684.358 864.932 685.697 865.98 686.597 867.256C687.497 868.532 688.112 869.945 688.442 871.494C688.773 873.044 688.938 875.448 688.938 878.706L688.938 900L679.333 900L679.333 880.825C679.333 877.02 679.151 874.604 678.787 873.579C678.422 872.554 677.778 871.739 676.855 871.135C675.933 870.531 674.776 870.229 673.386 870.229C671.791 870.229 670.367 870.617 669.114 871.392C667.861 872.166 666.943 873.334 666.362 874.895C665.781 876.456 665.491 878.763 665.491 881.816L665.491 900L655.886 900L655.886 849.893L665.491 849.893Z"/>
<path d="M719.7 888.447L729.27 890.054C728.04 893.563 726.097 896.235 723.442 898.069C720.788 899.903 717.467 900.82 713.479 900.82C707.167 900.82 702.496 898.758 699.465 894.634C697.073 891.33 695.876 887.16 695.876 882.124C695.876 876.108 697.449 871.397 700.593 867.991C703.738 864.584 707.714 862.881 712.522 862.881C717.922 862.881 722.183 864.664 725.305 868.23C728.427 871.796 729.919 877.259 729.783 884.619L705.72 884.619C705.789 887.467 706.563 889.683 708.044 891.267C709.526 892.851 711.371 893.643 713.582 893.643C715.085 893.643 716.35 893.232 717.375 892.412C718.401 891.592 719.176 890.27 719.7 888.447ZM720.247 878.74C720.178 875.96 719.46 873.847 718.093 872.4C716.726 870.953 715.063 870.229 713.103 870.229C711.007 870.229 709.275 870.993 707.908 872.52C706.541 874.046 705.868 876.12 705.891 878.74L720.247 878.74Z"/>
</g>
<g fill="#000000" opacity="1" stroke="none" vectornator:layerName="Texte 5">
<path d="M440.916 99.8761L440.916 64.085L447.947 64.085L462.595 87.9864L462.595 64.085L469.309 64.085L469.309 99.8761L462.058 99.8761L447.629 76.5362L447.629 99.8761L440.916 99.8761Z"/>
<path d="M482.029 81.8585L475.803 80.7354C476.503 78.2289 477.708 76.3735 479.417 75.169C481.125 73.9646 483.665 73.3624 487.034 73.3624C490.094 73.3624 492.372 73.7245 493.87 74.4488C495.367 75.1731 496.421 76.0927 497.031 77.2076C497.642 78.3225 497.947 80.3692 497.947 83.3477L497.874 91.3556C497.874 93.6342 497.983 95.3147 498.203 96.3971C498.423 97.4794 498.834 98.6391 499.436 99.8761L492.649 99.8761C492.47 99.4203 492.25 98.7449 491.99 97.8497C491.876 97.4428 491.794 97.1742 491.746 97.044C490.574 98.1833 489.32 99.0378 487.986 99.6075C486.651 100.177 485.227 100.462 483.713 100.462C481.044 100.462 478.94 99.7377 477.402 98.2891C475.864 96.8406 475.095 95.0095 475.095 92.796C475.095 91.3311 475.445 90.025 476.145 88.8775C476.845 87.7301 477.826 86.8512 479.087 86.2408C480.348 85.6305 482.167 85.0974 484.543 84.6417C487.75 84.0395 489.972 83.4779 491.208 82.9571L491.208 82.2735C491.208 80.9552 490.883 80.0152 490.232 79.4537C489.581 78.8922 488.352 78.6114 486.545 78.6114C485.325 78.6114 484.373 78.8515 483.689 79.3316C483.005 79.8118 482.452 80.6541 482.029 81.8585ZM491.208 87.4249C490.33 87.7179 488.938 88.0678 487.034 88.4747C485.129 88.8816 483.884 89.2804 483.298 89.671C482.403 90.3057 481.956 91.1114 481.956 92.088C481.956 93.0483 482.314 93.8783 483.03 94.5782C483.746 95.2781 484.657 95.628 485.764 95.628C487.001 95.628 488.181 95.2211 489.304 94.4073C490.134 93.7888 490.68 93.032 490.94 92.1368C491.119 91.5509 491.208 90.436 491.208 88.7921L491.208 87.4249Z"/>
<path d="M511.838 99.8761L501.389 73.9483L508.591 73.9483L513.474 87.1807L514.89 91.5997C515.264 90.4766 515.5 89.7361 515.598 89.378C515.826 88.6456 516.07 87.9132 516.331 87.1807L521.262 73.9483L528.318 73.9483L518.015 99.8761L511.838 99.8761Z"/>
<path d="M532.517 70.4327L532.517 64.085L539.377 64.085L539.377 70.4327L532.517 70.4327ZM532.517 99.8761L532.517 73.9483L539.377 73.9483L539.377 99.8761L532.517 99.8761Z"/>
<path d="M545.774 101.585L553.611 102.537C553.741 103.449 554.042 104.075 554.514 104.417C555.165 104.905 556.191 105.149 557.59 105.149C559.381 105.149 560.723 104.881 561.619 104.344C562.221 103.986 562.677 103.408 562.986 102.61C563.197 102.041 563.303 100.991 563.303 99.461L563.303 95.6768C561.252 98.4763 558.665 99.8761 555.54 99.8761C552.056 99.8761 549.298 98.4031 547.263 95.4571C545.668 93.1296 544.871 90.2325 544.871 86.7657C544.871 82.42 545.916 79.0997 548.008 76.8048C550.099 74.5098 552.699 73.3624 555.808 73.3624C559.014 73.3624 561.659 74.7703 563.743 77.586L563.743 73.9483L570.164 73.9483L570.164 97.2149C570.164 100.275 569.911 102.562 569.407 104.075C568.902 105.589 568.194 106.777 567.283 107.64C566.371 108.502 565.155 109.178 563.633 109.666C562.111 110.154 560.186 110.399 557.859 110.399C553.464 110.399 550.347 109.646 548.508 108.14C546.669 106.635 545.75 104.726 545.75 102.415C545.75 102.187 545.758 101.911 545.774 101.585ZM551.902 86.3751C551.902 89.1257 552.435 91.1399 553.501 92.4176C554.567 93.6952 555.881 94.3341 557.444 94.3341C559.12 94.3341 560.536 93.679 561.692 92.3687C562.847 91.0585 563.425 89.1176 563.425 86.546C563.425 83.8604 562.872 81.8666 561.765 80.5645C560.658 79.2625 559.259 78.6114 557.566 78.6114C555.922 78.6114 554.567 79.2502 553.501 80.5279C552.435 81.8056 551.902 83.7546 551.902 86.3751Z"/>
<path d="M582.078 81.8585L575.852 80.7354C576.552 78.2289 577.756 76.3735 579.465 75.169C581.174 73.9646 583.713 73.3624 587.083 73.3624C590.142 73.3624 592.421 73.7245 593.918 74.4488C595.416 75.1731 596.47 76.0927 597.08 77.2076C597.69 78.3225 597.996 80.3692 597.996 83.3477L597.922 91.3556C597.922 93.6342 598.032 95.3147 598.252 96.3971C598.472 97.4794 598.883 98.6391 599.485 99.8761L592.698 99.8761C592.519 99.4203 592.299 98.7449 592.039 97.8497C591.925 97.4428 591.843 97.1742 591.794 97.044C590.623 98.1833 589.369 99.0378 588.035 99.6075C586.7 100.177 585.276 100.462 583.762 100.462C581.093 100.462 578.989 99.7377 577.451 98.2891C575.913 96.8406 575.144 95.0095 575.144 92.796C575.144 91.3311 575.494 90.025 576.194 88.8775C576.894 87.7301 577.874 86.8512 579.136 86.2408C580.397 85.6305 582.216 85.0974 584.592 84.6417C587.799 84.0395 590.02 83.4779 591.257 82.9571L591.257 82.2735C591.257 80.9552 590.932 80.0152 590.281 79.4537C589.63 78.8922 588.401 78.6114 586.594 78.6114C585.374 78.6114 584.421 78.8515 583.738 79.3316C583.054 79.8118 582.501 80.6541 582.078 81.8585ZM591.257 87.4249C590.378 87.7179 588.987 88.0678 587.083 88.4747C585.178 88.8816 583.933 89.2804 583.347 89.671C582.452 90.3057 582.004 91.1114 582.004 92.088C582.004 93.0483 582.362 93.8783 583.079 94.5782C583.795 95.2781 584.706 95.628 585.813 95.628C587.05 95.628 588.23 95.2211 589.353 94.4073C590.183 93.7888 590.728 93.032 590.989 92.1368C591.168 91.5509 591.257 90.436 591.257 88.7921L591.257 87.4249Z"/>
<path d="M616.648 73.9483L616.648 79.4171L611.96 79.4171L611.96 89.8663C611.96 91.9822 612.005 93.2151 612.095 93.565C612.184 93.915 612.388 94.2039 612.705 94.4317C613.022 94.6596 613.409 94.7735 613.865 94.7735C614.5 94.7735 615.419 94.5538 616.624 94.1143L617.209 99.4366C615.614 100.12 613.808 100.462 611.79 100.462C610.553 100.462 609.438 100.254 608.445 99.8394C607.452 99.4244 606.724 98.8873 606.26 98.2281C605.796 97.5689 605.474 96.6778 605.295 95.5548C605.149 94.7572 605.076 93.1459 605.076 90.7208L605.076 79.4171L601.926 79.4171L601.926 73.9483L605.076 73.9483L605.076 68.797L611.96 64.7931L611.96 73.9483L616.648 73.9483Z"/>
<path d="M621.409 70.4327L621.409 64.085L628.269 64.085L628.269 70.4327L621.409 70.4327ZM621.409 99.8761L621.409 73.9483L628.269 73.9483L628.269 99.8761L621.409 99.8761Z"/>
<path d="M633.713 86.546C633.713 84.2673 634.275 82.0619 635.398 79.9298C636.521 77.7976 638.112 76.17 640.171 75.047C642.23 73.9239 644.529 73.3624 647.068 73.3624C650.99 73.3624 654.205 74.636 656.711 77.1832C659.218 79.7304 660.471 82.949 660.471 86.8389C660.471 90.7615 659.206 94.0126 656.675 96.5924C654.144 99.1721 650.958 100.462 647.117 100.462C644.74 100.462 642.474 99.9249 640.317 98.8507C638.161 97.7764 636.521 96.2017 635.398 94.1265C634.275 92.0514 633.713 89.5245 633.713 86.546ZM640.745 86.9122C640.745 89.4838 641.355 91.4532 642.576 92.8204C643.796 94.1876 645.302 94.8712 647.092 94.8712C648.883 94.8712 650.384 94.1876 651.597 92.8204C652.809 91.4532 653.416 89.4675 653.416 86.8634C653.416 84.3243 652.809 82.3712 651.597 81.004C650.384 79.6368 648.883 78.9532 647.092 78.9532C645.302 78.9532 643.796 79.6368 642.576 81.004C641.355 82.3712 640.745 84.3406 640.745 86.9122Z"/>
<path d="M689.426 99.8761L682.566 99.8761L682.566 86.6436C682.566 83.8442 682.419 82.0334 682.126 81.2115C681.833 80.3896 681.357 79.7507 680.698 79.295C680.039 78.8393 679.246 78.6114 678.318 78.6114C677.13 78.6114 676.064 78.9369 675.12 79.588C674.176 80.239 673.529 81.1016 673.179 82.1759C672.829 83.2501 672.654 85.2358 672.654 88.1329L672.654 99.8761L665.793 99.8761L665.793 73.9483L672.166 73.9483L672.166 77.7569C674.428 74.8272 677.276 73.3624 680.71 73.3624C682.224 73.3624 683.608 73.635 684.861 74.1803C686.114 74.7255 687.062 75.4213 687.705 76.2677C688.348 77.114 688.796 78.0743 689.048 79.1485C689.3 80.2227 689.426 81.7608 689.426 83.7628L689.426 99.8761Z"/>
</g>
<g fill="#000000" opacity="1" stroke="none" vectornator:layerName="Texte 6">
<path d="M205.403 1236.28L205.403 1206.54L194.783 1206.54L194.783 1200.49L223.226 1200.49L223.226 1206.54L212.63 1206.54L212.63 1236.28L205.403 1236.28Z"/>
<path d="M229.256 1218.26L223.03 1217.14C223.73 1214.63 224.935 1212.78 226.644 1211.57C228.353 1210.37 230.892 1209.77 234.261 1209.77C237.321 1209.77 239.599 1210.13 241.097 1210.85C242.594 1211.58 243.648 1212.5 244.258 1213.61C244.869 1214.73 245.174 1216.77 245.174 1219.75L245.101 1227.76C245.101 1230.04 245.211 1231.72 245.43 1232.8C245.65 1233.88 246.061 1235.04 246.663 1236.28L239.876 1236.28C239.697 1235.83 239.477 1235.15 239.217 1234.25C239.103 1233.85 239.022 1233.58 238.973 1233.45C237.801 1234.59 236.548 1235.44 235.213 1236.01C233.878 1236.58 232.454 1236.87 230.941 1236.87C228.271 1236.87 226.168 1236.14 224.629 1234.69C223.091 1233.25 222.322 1231.41 222.322 1229.2C222.322 1227.74 222.672 1226.43 223.372 1225.28C224.072 1224.13 225.053 1223.26 226.314 1222.65C227.575 1222.04 229.394 1221.5 231.771 1221.05C234.977 1220.44 237.199 1219.88 238.436 1219.36L238.436 1218.68C238.436 1217.36 238.11 1216.42 237.459 1215.86C236.808 1215.3 235.579 1215.02 233.773 1215.02C232.552 1215.02 231.6 1215.26 230.916 1215.74C230.233 1216.22 229.679 1217.06 229.256 1218.26ZM238.436 1223.83C237.557 1224.12 236.165 1224.47 234.261 1224.88C232.357 1225.29 231.111 1225.69 230.525 1226.08C229.63 1226.71 229.183 1227.52 229.183 1228.49C229.183 1229.45 229.541 1230.28 230.257 1230.98C230.973 1231.68 231.885 1232.03 232.991 1232.03C234.228 1232.03 235.408 1231.63 236.531 1230.81C237.361 1230.19 237.907 1229.44 238.167 1228.54C238.346 1227.96 238.436 1226.84 238.436 1225.2L238.436 1223.83Z"/>
<path d="M251.644 1236.28L251.644 1200.49L258.504 1200.49L258.504 1213.38C260.62 1210.97 263.126 1209.77 266.024 1209.77C269.181 1209.77 271.793 1210.91 273.86 1213.2C275.927 1215.48 276.961 1218.77 276.961 1223.05C276.961 1227.48 275.907 1230.89 273.799 1233.28C271.692 1235.67 269.132 1236.87 266.121 1236.87C264.64 1236.87 263.179 1236.5 261.739 1235.76C260.298 1235.02 259.057 1233.92 258.016 1232.47L258.016 1236.28L251.644 1236.28ZM258.455 1222.76C258.455 1225.44 258.878 1227.43 259.725 1228.71C260.913 1230.54 262.492 1231.45 264.461 1231.45C265.975 1231.45 267.265 1230.8 268.331 1229.51C269.397 1228.21 269.93 1226.17 269.93 1223.39C269.93 1220.43 269.393 1218.29 268.318 1216.98C267.244 1215.67 265.869 1215.02 264.192 1215.02C262.549 1215.02 261.181 1215.66 260.091 1216.93C259 1218.21 258.455 1220.15 258.455 1222.76Z"/>
<path d="M282.479 1236.28L282.479 1200.49L289.339 1200.49L289.339 1236.28L282.479 1236.28Z"/>
<path d="M311.385 1228.03L318.221 1229.18C317.342 1231.68 315.954 1233.59 314.058 1234.9C312.162 1236.21 309.79 1236.87 306.941 1236.87C302.433 1236.87 299.096 1235.39 296.932 1232.45C295.223 1230.09 294.368 1227.11 294.368 1223.51C294.368 1219.22 295.491 1215.85 297.737 1213.42C299.983 1210.98 302.824 1209.77 306.258 1209.77C310.115 1209.77 313.159 1211.04 315.389 1213.59C317.619 1216.14 318.685 1220.04 318.587 1225.29L301.399 1225.29C301.448 1227.33 302.002 1228.91 303.06 1230.04C304.118 1231.17 305.436 1231.74 307.015 1231.74C308.089 1231.74 308.992 1231.45 309.725 1230.86C310.457 1230.28 311.011 1229.33 311.385 1228.03ZM311.775 1221.1C311.727 1219.11 311.214 1217.6 310.237 1216.57C309.261 1215.53 308.073 1215.02 306.673 1215.02C305.176 1215.02 303.939 1215.56 302.962 1216.65C301.985 1217.74 301.505 1219.22 301.522 1221.1L311.775 1221.1Z"/>
<path d="M329.305 1218.26L323.079 1217.14C323.779 1214.63 324.983 1212.78 326.692 1211.57C328.401 1210.37 330.941 1209.77 334.31 1209.77C337.37 1209.77 339.648 1210.13 341.146 1210.85C342.643 1211.58 343.697 1212.5 344.307 1213.61C344.918 1214.73 345.223 1216.77 345.223 1219.75L345.149 1227.76C345.149 1230.04 345.259 1231.72 345.479 1232.8C345.699 1233.88 346.11 1235.04 346.712 1236.28L339.925 1236.28C339.746 1235.83 339.526 1235.15 339.266 1234.25C339.152 1233.85 339.07 1233.58 339.022 1233.45C337.85 1234.59 336.596 1235.44 335.262 1236.01C333.927 1236.58 332.503 1236.87 330.989 1236.87C328.32 1236.87 326.216 1236.14 324.678 1234.69C323.14 1233.25 322.371 1231.41 322.371 1229.2C322.371 1227.74 322.721 1226.43 323.421 1225.28C324.121 1224.13 325.101 1223.26 326.363 1222.65C327.624 1222.04 329.443 1221.5 331.819 1221.05C335.026 1220.44 337.247 1219.88 338.484 1219.36L338.484 1218.68C338.484 1217.36 338.159 1216.42 337.508 1215.86C336.857 1215.3 335.628 1215.02 333.821 1215.02C332.601 1215.02 331.649 1215.26 330.965 1215.74C330.281 1216.22 329.728 1217.06 329.305 1218.26ZM338.484 1223.83C337.606 1224.12 336.214 1224.47 334.31 1224.88C332.405 1225.29 331.16 1225.69 330.574 1226.08C329.679 1226.71 329.232 1227.52 329.232 1228.49C329.232 1229.45 329.59 1230.28 330.306 1230.98C331.022 1231.68 331.933 1232.03 333.04 1232.03C334.277 1232.03 335.457 1231.63 336.58 1230.81C337.41 1230.19 337.955 1229.44 338.216 1228.54C338.395 1227.96 338.484 1226.84 338.484 1225.2L338.484 1223.83Z"/>
<path d="M369.051 1236.28L369.051 1232.4C368.107 1233.78 366.866 1234.87 365.328 1235.67C363.79 1236.47 362.166 1236.87 360.457 1236.87C358.716 1236.87 357.153 1236.48 355.77 1235.72C354.386 1234.95 353.385 1233.88 352.767 1232.5C352.148 1231.11 351.839 1229.2 351.839 1226.76L351.839 1210.35L358.699 1210.35L358.699 1222.27C358.699 1225.91 358.825 1228.15 359.078 1228.97C359.33 1229.79 359.79 1230.44 360.457 1230.92C361.124 1231.4 361.971 1231.64 362.996 1231.64C364.168 1231.64 365.218 1231.32 366.146 1230.68C367.073 1230.03 367.708 1229.24 368.05 1228.29C368.392 1227.33 368.563 1225 368.563 1221.29L368.563 1210.35L375.423 1210.35L375.423 1236.28L369.051 1236.28Z"/>
<path d="M412.508 1236.28L405.648 1236.28L405.648 1210.43C403.141 1212.77 400.187 1214.5 396.785 1215.63L396.785 1209.4C398.576 1208.82 400.521 1207.7 402.62 1206.07C404.72 1204.43 406.16 1202.52 406.941 1200.34L412.508 1200.34L412.508 1236.28Z"/>
</g>
<g fill="#000000" opacity="1" stroke="none" vectornator:layerName="Texte 7">
<path d="M663.476 1235.42L663.476 1205.69L652.856 1205.69L652.856 1199.63L681.299 1199.63L681.299 1205.69L670.703 1205.69L670.703 1235.42L663.476 1235.42Z"/>
<path d="M687.329 1217.4L681.103 1216.28C681.803 1213.78 683.008 1211.92 684.717 1210.72C686.426 1209.51 688.965 1208.91 692.334 1208.91C695.394 1208.91 697.672 1209.27 699.17 1210C700.667 1210.72 701.721 1211.64 702.331 1212.75C702.942 1213.87 703.247 1215.92 703.247 1218.89L703.174 1226.9C703.174 1229.18 703.284 1230.86 703.503 1231.94C703.723 1233.03 704.134 1234.19 704.736 1235.42L697.949 1235.42C697.77 1234.97 697.55 1234.29 697.29 1233.4C697.176 1232.99 697.095 1232.72 697.046 1232.59C695.874 1233.73 694.621 1234.58 693.286 1235.15C691.951 1235.72 690.527 1236.01 689.014 1236.01C686.344 1236.01 684.241 1235.28 682.702 1233.84C681.164 1232.39 680.395 1230.56 680.395 1228.34C680.395 1226.88 680.745 1225.57 681.445 1224.42C682.145 1223.28 683.126 1222.4 684.387 1221.79C685.648 1221.18 687.467 1220.64 689.844 1220.19C693.05 1219.59 695.272 1219.02 696.509 1218.5L696.509 1217.82C696.509 1216.5 696.183 1215.56 695.532 1215C694.881 1214.44 693.652 1214.16 691.846 1214.16C690.625 1214.16 689.673 1214.4 688.989 1214.88C688.306 1215.36 687.752 1216.2 687.329 1217.4ZM696.509 1222.97C695.63 1223.26 694.238 1223.61 692.334 1224.02C690.43 1224.43 689.184 1224.83 688.598 1225.22C687.703 1225.85 687.256 1226.66 687.256 1227.63C687.256 1228.59 687.614 1229.42 688.33 1230.12C689.046 1230.82 689.958 1231.17 691.064 1231.17C692.301 1231.17 693.481 1230.77 694.604 1229.95C695.434 1229.34 695.98 1228.58 696.24 1227.68C696.419 1227.1 696.509 1225.98 696.509 1224.34L696.509 1222.97Z"/>
<path d="M709.717 1235.42L709.717 1199.63L716.577 1199.63L716.577 1212.52C718.693 1210.11 721.199 1208.91 724.097 1208.91C727.254 1208.91 729.866 1210.05 731.933 1212.34C734.001 1214.63 735.034 1217.91 735.034 1222.19C735.034 1226.62 733.98 1230.03 731.872 1232.42C729.765 1234.81 727.205 1236.01 724.194 1236.01C722.713 1236.01 721.252 1235.64 719.812 1234.9C718.371 1234.16 717.13 1233.06 716.089 1231.61L716.089 1235.42L709.717 1235.42ZM716.528 1221.9C716.528 1224.58 716.951 1226.57 717.798 1227.85C718.986 1229.68 720.565 1230.59 722.534 1230.59C724.048 1230.59 725.338 1229.94 726.404 1228.65C727.47 1227.35 728.003 1225.31 728.003 1222.53C728.003 1219.57 727.466 1217.43 726.391 1216.12C725.317 1214.81 723.942 1214.16 722.265 1214.16C720.622 1214.16 719.254 1214.8 718.164 1216.07C717.073 1217.35 716.528 1219.29 716.528 1221.9Z"/>
<path d="M740.552 1235.42L740.552 1199.63L747.412 1199.63L747.412 1235.42L740.552 1235.42Z"/>
<path d="M769.458 1227.17L776.294 1228.32C775.415 1230.82 774.027 1232.73 772.131 1234.04C770.235 1235.35 767.863 1236.01 765.015 1236.01C760.506 1236.01 757.169 1234.54 755.005 1231.59C753.296 1229.23 752.441 1226.25 752.441 1222.65C752.441 1218.36 753.564 1214.99 755.81 1212.56C758.056 1210.13 760.897 1208.91 764.331 1208.91C768.188 1208.91 771.232 1210.18 773.462 1212.73C775.692 1215.28 776.758 1219.18 776.66 1224.44L759.473 1224.44C759.521 1226.47 760.075 1228.05 761.133 1229.18C762.191 1230.32 763.509 1230.88 765.088 1230.88C766.162 1230.88 767.065 1230.59 767.798 1230C768.53 1229.42 769.084 1228.47 769.458 1227.17ZM769.848 1220.24C769.8 1218.25 769.287 1216.74 768.31 1215.71C767.334 1214.67 766.146 1214.16 764.746 1214.16C763.249 1214.16 762.012 1214.7 761.035 1215.79C760.058 1216.88 759.578 1218.37 759.595 1220.24L769.848 1220.24Z"/>
<path d="M787.378 1217.4L781.152 1216.28C781.852 1213.78 783.056 1211.92 784.765 1210.72C786.474 1209.51 789.014 1208.91 792.383 1208.91C795.443 1208.91 797.721 1209.27 799.219 1210C800.716 1210.72 801.77 1211.64 802.38 1212.75C802.991 1213.87 803.296 1215.92 803.296 1218.89L803.223 1226.9C803.223 1229.18 803.332 1230.86 803.552 1231.94C803.772 1233.03 804.183 1234.19 804.785 1235.42L797.998 1235.42C797.819 1234.97 797.599 1234.29 797.339 1233.4C797.225 1232.99 797.143 1232.72 797.095 1232.59C795.923 1233.73 794.669 1234.58 793.335 1235.15C792 1235.72 790.576 1236.01 789.062 1236.01C786.393 1236.01 784.289 1235.28 782.751 1233.84C781.213 1232.39 780.444 1230.56 780.444 1228.34C780.444 1226.88 780.794 1225.57 781.494 1224.42C782.194 1223.28 783.174 1222.4 784.436 1221.79C785.697 1221.18 787.516 1220.64 789.892 1220.19C793.099 1219.59 795.32 1219.02 796.557 1218.5L796.557 1217.82C796.557 1216.5 796.232 1215.56 795.581 1215C794.93 1214.44 793.701 1214.16 791.894 1214.16C790.674 1214.16 789.722 1214.4 789.038 1214.88C788.354 1215.36 787.801 1216.2 787.378 1217.4ZM796.557 1222.97C795.679 1223.26 794.287 1223.61 792.383 1224.02C790.478 1224.43 789.233 1224.83 788.647 1225.22C787.752 1225.85 787.305 1226.66 787.305 1227.63C787.305 1228.59 787.663 1229.42 788.379 1230.12C789.095 1230.82 790.006 1231.17 791.113 1231.17C792.35 1231.17 793.53 1230.77 794.653 1229.95C795.483 1229.34 796.029 1228.58 796.289 1227.68C796.468 1227.1 796.557 1225.98 796.557 1224.34L796.557 1222.97Z"/>
<path d="M827.124 1235.42L827.124 1231.54C826.18 1232.92 824.939 1234.01 823.401 1234.81C821.863 1235.61 820.239 1236.01 818.53 1236.01C816.789 1236.01 815.226 1235.63 813.843 1234.86C812.459 1234.1 811.458 1233.02 810.84 1231.64C810.221 1230.25 809.912 1228.34 809.912 1225.9L809.912 1209.49L816.772 1209.49L816.772 1221.41C816.772 1225.05 816.898 1227.29 817.151 1228.11C817.403 1228.93 817.863 1229.58 818.53 1230.06C819.197 1230.54 820.044 1230.78 821.069 1230.78C822.241 1230.78 823.291 1230.46 824.219 1229.82C825.146 1229.18 825.781 1228.38 826.123 1227.43C826.465 1226.47 826.636 1224.14 826.636 1220.43L826.636 1209.49L833.496 1209.49L833.496 1235.42L827.124 1235.42Z"/>
<path d="M876.196 1229.05L876.196 1235.42L852.148 1235.42C852.409 1233.01 853.19 1230.73 854.492 1228.57C855.794 1226.42 858.366 1223.56 862.207 1219.99C865.299 1217.11 867.195 1215.16 867.895 1214.13C868.839 1212.72 869.311 1211.32 869.311 1209.93C869.311 1208.4 868.9 1207.23 868.078 1206.41C867.257 1205.58 866.121 1205.17 864.673 1205.17C863.24 1205.17 862.101 1205.6 861.255 1206.47C860.408 1207.33 859.92 1208.76 859.79 1210.76L852.954 1210.08C853.361 1206.3 854.639 1203.59 856.787 1201.95C858.935 1200.31 861.621 1199.48 864.844 1199.48C868.376 1199.48 871.151 1200.44 873.169 1202.34C875.187 1204.25 876.196 1206.61 876.196 1209.45C876.196 1211.06 875.907 1212.59 875.329 1214.05C874.752 1215.5 873.836 1217.03 872.583 1218.63C871.753 1219.68 870.255 1221.21 868.091 1223.19C865.926 1225.18 864.555 1226.49 863.977 1227.15C863.399 1227.8 862.931 1228.43 862.573 1229.05L876.196 1229.05Z"/>
</g>
<path d="M40 1547.77L1040 1547.77L1040 1612.77L40 1612.77L40 1547.77Z" fill="none" opacity="1" stroke="#000000" stroke-linecap="butt" stroke-linejoin="round" stroke-width="5.07805" vectornator:layerName="Rectangle 10"/>
<g fill="#000000" opacity="1" stroke="none" vectornator:layerName="Texte 8">
<path d="M414.426 1592.77L414.426 1556.98L426.023 1556.98C430.417 1556.98 433.282 1557.16 434.617 1557.52C436.667 1558.06 438.385 1559.22 439.768 1561.02C441.152 1562.82 441.843 1565.14 441.843 1567.99C441.843 1570.19 441.444 1572.04 440.647 1573.53C439.849 1575.03 438.836 1576.21 437.607 1577.06C436.379 1577.92 435.129 1578.48 433.86 1578.76C432.135 1579.1 429.636 1579.27 426.365 1579.27L421.653 1579.27L421.653 1592.77L414.426 1592.77ZM421.653 1563.04L421.653 1573.19L425.608 1573.19C428.456 1573.19 430.361 1573.01 431.321 1572.63C432.281 1572.26 433.034 1571.67 433.579 1570.87C434.124 1570.08 434.397 1569.15 434.397 1568.09C434.397 1566.79 434.014 1565.71 433.25 1564.87C432.485 1564.02 431.516 1563.49 430.344 1563.28C429.482 1563.12 427.748 1563.04 425.144 1563.04L421.653 1563.04Z"/>
<path d="M447.727 1563.33L447.727 1556.98L454.587 1556.98L454.587 1563.33L447.727 1563.33ZM447.727 1592.77L447.727 1566.85L454.587 1566.85L454.587 1592.77L447.727 1592.77Z"/>
<path d="M476.633 1584.52L483.469 1585.67C482.59 1588.17 481.203 1590.08 479.307 1591.39C477.41 1592.7 475.038 1593.36 472.19 1593.36C467.681 1593.36 464.345 1591.89 462.18 1588.94C460.471 1586.58 459.617 1583.6 459.617 1580C459.617 1575.71 460.74 1572.34 462.986 1569.91C465.232 1567.48 468.072 1566.26 471.506 1566.26C475.364 1566.26 478.407 1567.53 480.637 1570.08C482.867 1572.63 483.933 1576.53 483.835 1581.79L466.648 1581.79C466.697 1583.82 467.25 1585.4 468.308 1586.54C469.366 1587.67 470.684 1588.23 472.263 1588.23C473.337 1588.23 474.241 1587.94 474.973 1587.35C475.706 1586.77 476.259 1585.82 476.633 1584.52ZM477.024 1577.59C476.975 1575.6 476.462 1574.09 475.486 1573.06C474.509 1572.02 473.321 1571.51 471.921 1571.51C470.424 1571.51 469.187 1572.05 468.21 1573.14C467.234 1574.23 466.754 1575.72 466.77 1577.59L477.024 1577.59Z"/>
<path d="M513.206 1592.77L506.833 1592.77L506.833 1588.96C505.776 1590.45 504.526 1591.55 503.086 1592.27C501.646 1593 500.193 1593.36 498.728 1593.36C495.75 1593.36 493.198 1592.16 491.074 1589.76C488.95 1587.36 487.888 1584.01 487.888 1579.71C487.888 1575.32 488.922 1571.98 490.989 1569.69C493.056 1567.4 495.668 1566.26 498.826 1566.26C501.723 1566.26 504.229 1567.46 506.345 1569.87L506.345 1556.98L513.206 1556.98L513.206 1592.77ZM494.895 1579.25C494.895 1582.01 495.278 1584.02 496.042 1585.25C497.149 1587.04 498.695 1587.94 500.681 1587.94C502.26 1587.94 503.603 1587.27 504.709 1585.92C505.816 1584.58 506.37 1582.58 506.37 1579.91C506.37 1576.93 505.833 1574.78 504.758 1573.47C503.684 1572.16 502.309 1571.51 500.632 1571.51C499.005 1571.51 497.642 1572.16 496.543 1573.45C495.444 1574.74 494.895 1576.68 494.895 1579.25Z"/>
<path d="M557.639 1592.77L551.267 1592.77L551.267 1588.96C550.209 1590.45 548.96 1591.55 547.52 1592.27C546.079 1593 544.626 1593.36 543.162 1593.36C540.183 1593.36 537.632 1592.16 535.508 1589.76C533.384 1587.36 532.322 1584.01 532.322 1579.71C532.322 1575.32 533.355 1571.98 535.422 1569.69C537.489 1567.4 540.102 1566.26 543.259 1566.26C546.156 1566.26 548.663 1567.46 550.779 1569.87L550.779 1556.98L557.639 1556.98L557.639 1592.77ZM539.329 1579.25C539.329 1582.01 539.711 1584.02 540.476 1585.25C541.583 1587.04 543.129 1587.94 545.115 1587.94C546.694 1587.94 548.036 1587.27 549.143 1585.92C550.25 1584.58 550.803 1582.58 550.803 1579.91C550.803 1576.93 550.266 1574.78 549.192 1573.47C548.118 1572.16 546.742 1571.51 545.066 1571.51C543.438 1571.51 542.075 1572.16 540.977 1573.45C539.878 1574.74 539.329 1576.68 539.329 1579.25Z"/>
<path d="M579.417 1584.52L586.252 1585.67C585.374 1588.17 583.986 1590.08 582.09 1591.39C580.194 1592.7 577.821 1593.36 574.973 1593.36C570.465 1593.36 567.128 1591.89 564.963 1588.94C563.254 1586.58 562.4 1583.6 562.4 1580C562.4 1575.71 563.523 1572.34 565.769 1569.91C568.015 1567.48 570.855 1566.26 574.29 1566.26C578.147 1566.26 581.191 1567.53 583.42 1570.08C585.65 1572.63 586.716 1576.53 586.619 1581.79L569.431 1581.79C569.48 1583.82 570.033 1585.4 571.091 1586.54C572.149 1587.67 573.468 1588.23 575.046 1588.23C576.121 1588.23 577.024 1587.94 577.756 1587.35C578.489 1586.77 579.042 1585.82 579.417 1584.52ZM579.807 1577.59C579.758 1575.6 579.246 1574.09 578.269 1573.06C577.292 1572.02 576.104 1571.51 574.705 1571.51C573.207 1571.51 571.97 1572.05 570.994 1573.14C570.017 1574.23 569.537 1575.72 569.553 1577.59L579.807 1577.59Z"/>
<path d="M605.906 1566.85L612.302 1566.85L612.302 1570.65C613.132 1569.35 614.255 1568.29 615.671 1567.48C617.087 1566.67 618.658 1566.26 620.383 1566.26C623.394 1566.26 625.95 1567.44 628.049 1569.8C630.149 1572.16 631.199 1575.45 631.199 1579.66C631.199 1583.99 630.141 1587.36 628.025 1589.76C625.909 1592.16 623.346 1593.36 620.334 1593.36C618.902 1593.36 617.604 1593.07 616.44 1592.5C615.277 1591.93 614.052 1590.96 612.766 1589.57L612.766 1602.64L605.906 1602.64L605.906 1566.85ZM612.693 1579.37C612.693 1582.28 613.271 1584.44 614.426 1585.83C615.582 1587.22 616.99 1587.91 618.65 1587.91C620.245 1587.91 621.571 1587.28 622.629 1586C623.687 1584.72 624.216 1582.62 624.216 1579.71C624.216 1576.99 623.671 1574.97 622.581 1573.66C621.49 1572.34 620.139 1571.68 618.528 1571.68C616.851 1571.68 615.46 1572.33 614.353 1573.62C613.246 1574.91 612.693 1576.83 612.693 1579.37Z"/>
<path d="M641.77 1574.76L635.544 1573.63C636.244 1571.13 637.449 1569.27 639.158 1568.07C640.867 1566.86 643.406 1566.26 646.775 1566.26C649.835 1566.26 652.113 1566.62 653.611 1567.35C655.108 1568.07 656.162 1568.99 656.772 1570.1C657.383 1571.22 657.688 1573.27 657.688 1576.24L657.615 1584.25C657.615 1586.53 657.725 1588.21 657.944 1589.29C658.164 1590.38 658.575 1591.54 659.177 1592.77L652.39 1592.77C652.211 1592.32 651.991 1591.64 651.731 1590.75C651.617 1590.34 651.536 1590.07 651.487 1589.94C650.315 1591.08 649.062 1591.93 647.727 1592.5C646.392 1593.07 644.968 1593.36 643.455 1593.36C640.785 1593.36 638.682 1592.63 637.144 1591.19C635.605 1589.74 634.836 1587.91 634.836 1585.69C634.836 1584.23 635.186 1582.92 635.886 1581.77C636.586 1580.63 637.567 1579.75 638.828 1579.14C640.09 1578.53 641.908 1577.99 644.285 1577.54C647.491 1576.94 649.713 1576.37 650.95 1575.85L650.95 1575.17C650.95 1573.85 650.624 1572.91 649.973 1572.35C649.322 1571.79 648.093 1571.51 646.287 1571.51C645.066 1571.51 644.114 1571.75 643.43 1572.23C642.747 1572.71 642.193 1573.55 641.77 1574.76ZM650.95 1580.32C650.071 1580.61 648.679 1580.96 646.775 1581.37C644.871 1581.78 643.625 1582.18 643.04 1582.57C642.144 1583.2 641.697 1584.01 641.697 1584.98C641.697 1585.95 642.055 1586.78 642.771 1587.47C643.487 1588.17 644.399 1588.52 645.505 1588.52C646.742 1588.52 647.922 1588.12 649.045 1587.3C649.875 1586.69 650.421 1585.93 650.681 1585.03C650.86 1584.45 650.95 1583.33 650.95 1581.69L650.95 1580.32Z"/>
<path d="M663.816 1594.48L671.653 1595.43C671.783 1596.35 672.084 1596.97 672.556 1597.31C673.207 1597.8 674.233 1598.05 675.632 1598.05C677.423 1598.05 678.765 1597.78 679.661 1597.24C680.263 1596.88 680.719 1596.3 681.028 1595.51C681.239 1594.94 681.345 1593.89 681.345 1592.36L681.345 1588.57C679.294 1591.37 676.707 1592.77 673.582 1592.77C670.098 1592.77 667.34 1591.3 665.305 1588.35C663.71 1586.03 662.913 1583.13 662.913 1579.66C662.913 1575.32 663.958 1572 666.05 1569.7C668.141 1567.41 670.741 1566.26 673.85 1566.26C677.056 1566.26 679.701 1567.67 681.785 1570.48L681.785 1566.85L688.206 1566.85L688.206 1590.11C688.206 1593.17 687.953 1595.46 687.449 1596.97C686.944 1598.49 686.236 1599.67 685.325 1600.54C684.413 1601.4 683.197 1602.07 681.675 1602.56C680.153 1603.05 678.228 1603.3 675.901 1603.3C671.506 1603.3 668.389 1602.54 666.55 1601.04C664.711 1599.53 663.792 1597.62 663.792 1595.31C663.792 1595.08 663.8 1594.81 663.816 1594.48ZM669.944 1579.27C669.944 1582.02 670.477 1584.04 671.543 1585.31C672.609 1586.59 673.923 1587.23 675.486 1587.23C677.162 1587.23 678.578 1586.58 679.734 1585.27C680.889 1583.96 681.467 1582.01 681.467 1579.44C681.467 1576.76 680.914 1574.76 679.807 1573.46C678.7 1572.16 677.301 1571.51 675.608 1571.51C673.964 1571.51 672.609 1572.15 671.543 1573.42C670.477 1574.7 669.944 1576.65 669.944 1579.27Z"/>
<path d="M710.007 1584.52L716.843 1585.67C715.964 1588.17 714.577 1590.08 712.681 1591.39C710.785 1592.7 708.412 1593.36 705.564 1593.36C701.056 1593.36 697.719 1591.89 695.554 1588.94C693.845 1586.58 692.991 1583.6 692.991 1580C692.991 1575.71 694.114 1572.34 696.36 1569.91C698.606 1567.48 701.446 1566.26 704.88 1566.26C708.738 1566.26 711.781 1567.53 714.011 1570.08C716.241 1572.63 717.307 1576.53 717.209 1581.79L700.022 1581.79C700.071 1583.82 700.624 1585.4 701.682 1586.54C702.74 1587.67 704.058 1588.23 705.637 1588.23C706.711 1588.23 707.615 1587.94 708.347 1587.35C709.08 1586.77 709.633 1585.82 710.007 1584.52ZM710.398 1577.59C710.349 1575.6 709.836 1574.09 708.86 1573.06C707.883 1572.02 706.695 1571.51 705.295 1571.51C703.798 1571.51 702.561 1572.05 701.584 1573.14C700.608 1574.23 700.128 1575.72 700.144 1577.59L710.398 1577.59Z"/>
</g>
</g>
</svg>
