<?xml version="1.0" encoding="UTF-8" standalone="no"?>
<!DOCTYPE svg PUBLIC "-//W3C//DTD SVG 1.1//EN" "http://www.w3.org/Graphics/SVG/1.1/DTD/svg11.dtd">
<!-- Created with Vectornator (http://vectornator.io/) -->
<svg height="100%" stroke-miterlimit="10" style="fill-rule:nonzero;clip-rule:evenodd;stroke-linecap:round;stroke-linejoin:round;" version="1.1" viewBox="0 0 1080 1675" width="100%" xml:space="preserve" xmlns="http://www.w3.org/2000/svg" xmlns:vectornator="http://vectornator.io" xmlns:xlink="http://www.w3.org/1999/xlink">
<defs/>
<path d="M0 0L1080 0L1080 1675L0 1675L0 0Z" fill="#ffffff" fill-rule="nonzero" opacity="1" stroke="none"/>
<g id="Calque-1" vectornator:layerName="Calque 1">
<path d="M40 40L1040 40L1040 120L40 120L40 40Z" fill="none" opacity="1" stroke="#000000" stroke-linecap="butt" stroke-linejoin="round" stroke-width="5.07805" vectornator:layerName="Rectangle 1"/>
<path d="M108.74 165L954.081 165L954.081 235L108.74 235L108.74 165Z" fill="none" opacity="1" stroke="#000000" stroke-linecap="butt" stroke-linejoin="round" stroke-width="5.07805" vectornator:layerName="Rectangle 5"/>
<g fill="#000000" opacity="1" stroke="none" vectornator:layerName="Texte 4">
<path d="M522.971 216.5L522.971 186.764L512.351 186.764L512.351 180.709L540.793 180.709L540.793 186.764L530.198 186.764L530.198 216.5L522.971 216.5Z"/>
<path d="M544.504 187.057L544.504 180.709L551.365 180.709L551.365 187.057L544.504 187.057ZM544.504 216.5L544.504 190.572L551.365 190.572L551.365 216.5L544.504 216.5Z"/>
<path d="M570.286 190.572L570.286 196.041L565.598 196.041L565.598 206.49C565.598 208.606 565.643 209.839 565.732 210.189C565.822 210.539 566.025 210.828 566.343 211.056C566.66 211.284 567.047 211.397 567.502 211.397C568.137 211.397 569.057 211.178 570.261 210.738L570.847 216.061C569.252 216.744 567.445 217.086 565.427 217.086C564.19 217.086 563.075 216.878 562.083 216.463C561.09 216.048 560.361 215.511 559.897 214.852C559.434 214.193 559.112 213.302 558.933 212.179C558.787 211.381 558.713 209.77 558.713 207.345L558.713 196.041L555.564 196.041L555.564 190.572L558.713 190.572L558.713 185.421L565.598 181.417L565.598 190.572L570.286 190.572Z"/>
<path d="M581.614 216.5L574.753 216.5L574.753 190.572L581.125 190.572L581.125 194.259C582.216 192.517 583.197 191.37 584.067 190.816C584.938 190.263 585.927 189.986 587.034 189.986C588.596 189.986 590.102 190.418 591.55 191.28L589.426 197.262C588.271 196.513 587.196 196.139 586.204 196.139C585.243 196.139 584.43 196.403 583.762 196.932C583.095 197.461 582.57 198.417 582.188 199.801C581.805 201.184 581.614 204.081 581.614 208.492L581.614 216.5Z"/>
<path d="M609.519 208.248L616.355 209.396C615.476 211.902 614.089 213.81 612.192 215.121C610.296 216.431 607.924 217.086 605.076 217.086C600.567 217.086 597.231 215.613 595.066 212.667C593.357 210.307 592.502 207.328 592.502 203.731C592.502 199.435 593.625 196.069 595.872 193.636C598.118 191.203 600.958 189.986 604.392 189.986C608.25 189.986 611.293 191.26 613.523 193.807C615.753 196.354 616.819 200.257 616.721 205.514L599.534 205.514C599.583 207.548 600.136 209.131 601.194 210.262C602.252 211.393 603.57 211.959 605.149 211.959C606.223 211.959 607.126 211.666 607.859 211.08C608.591 210.494 609.145 209.55 609.519 208.248ZM609.91 201.314C609.861 199.329 609.348 197.819 608.372 196.786C607.395 195.752 606.207 195.235 604.807 195.235C603.31 195.235 602.073 195.781 601.096 196.871C600.12 197.962 599.639 199.443 599.656 201.314L609.91 201.314Z"/>
</g>
<g fill="#000000" opacity="1" stroke="none" vectornator:layerName="Texte 5">
<path d="M429.089 99.8761L429.089 64.085L436.12 64.085L450.769 87.9864L450.769 64.085L457.483 64.085L457.483 99.8761L450.232 99.8761L435.803 76.5362L435.803 99.8761L429.089 99.8761Z"/>
<path d="M470.202 81.8585L463.977 80.7354C464.677 78.2289 465.881 76.3735 467.59 75.169C469.299 73.9646 471.838 73.3624 475.207 73.3624C478.267 73.3624 480.546 73.7245 482.043 74.4488C483.54 75.1731 484.594 76.0927 485.205 77.2076C485.815 78.3225 486.12 80.3692 486.12 83.3477L486.047 91.3556C486.047 93.6342 486.157 95.3147 486.377 96.3971C486.596 97.4794 487.007 98.6391 487.609 99.8761L480.822 99.8761C480.643 99.4203 480.424 98.7449 480.163 97.8497C480.049 97.4428 479.968 97.1742 479.919 97.044C478.747 98.1833 477.494 99.0378 476.159 99.6075C474.825 100.177 473.4 100.462 471.887 100.462C469.218 100.462 467.114 99.7377 465.576 98.2891C464.038 96.8406 463.269 95.0095 463.269 92.796C463.269 91.3311 463.619 90.025 464.318 88.8775C465.018 87.7301 465.999 86.8512 467.26 86.2408C468.522 85.6305 470.341 85.0974 472.717 84.6417C475.923 84.0395 478.145 83.4779 479.382 82.9571L479.382 82.2735C479.382 80.9552 479.056 80.0152 478.405 79.4537C477.754 78.8922 476.525 78.6114 474.719 78.6114C473.498 78.6114 472.546 78.8515 471.862 79.3316C471.179 79.8118 470.625 80.6541 470.202 81.8585ZM479.382 87.4249C478.503 87.7179 477.111 88.0678 475.207 88.4747C473.303 88.8816 472.058 89.2804 471.472 89.671C470.577 90.3057 470.129 91.1114 470.129 92.088C470.129 93.0483 470.487 93.8783 471.203 94.5782C471.919 95.2781 472.831 95.628 473.938 95.628C475.175 95.628 476.355 95.2211 477.478 94.4073C478.308 93.7888 478.853 93.032 479.113 92.1368C479.292 91.5509 479.382 90.436 479.382 88.7921L479.382 87.4249Z"/>
<path d="M500.012 99.8761L489.563 73.9483L496.765 73.9483L501.648 87.1807L503.064 91.5997C503.438 90.4766 503.674 89.7361 503.772 89.378C503.999 88.6456 504.244 87.9132 504.504 87.1807L509.436 73.9483L516.491 73.9483L506.189 99.8761L500.012 99.8761Z"/>
<path d="M520.691 70.4327L520.691 64.085L527.551 64.085L527.551 70.4327L520.691 70.4327ZM520.691 99.8761L520.691 73.9483L527.551 73.9483L527.551 99.8761L520.691 99.8761Z"/>
<path d="M533.947 101.585L541.784 102.537C541.914 103.449 542.216 104.075 542.688 104.417C543.339 104.905 544.364 105.149 545.764 105.149C547.554 105.149 548.897 104.881 549.792 104.344C550.394 103.986 550.85 103.408 551.159 102.61C551.371 102.041 551.477 100.991 551.477 99.461L551.477 95.6768C549.426 98.4763 546.838 99.8761 543.713 99.8761C540.23 99.8761 537.471 98.4031 535.437 95.4571C533.842 93.1296 533.044 90.2325 533.044 86.7657C533.044 82.42 534.09 79.0997 536.181 76.8048C538.273 74.5098 540.873 73.3624 543.982 73.3624C547.188 73.3624 549.833 74.7703 551.916 77.586L551.916 73.9483L558.337 73.9483L558.337 97.2149C558.337 100.275 558.085 102.562 557.58 104.075C557.076 105.589 556.368 106.777 555.456 107.64C554.545 108.502 553.328 109.178 551.806 109.666C550.284 110.154 548.36 110.399 546.032 110.399C541.638 110.399 538.521 109.646 536.682 108.14C534.843 106.635 533.923 104.726 533.923 102.415C533.923 102.187 533.931 101.911 533.947 101.585ZM540.075 86.3751C540.075 89.1257 540.608 91.1399 541.674 92.4176C542.74 93.6952 544.055 94.3341 545.617 94.3341C547.294 94.3341 548.71 93.679 549.865 92.3687C551.021 91.0585 551.599 89.1176 551.599 86.546C551.599 83.8604 551.045 81.8666 549.939 80.5645C548.832 79.2625 547.432 78.6114 545.739 78.6114C544.095 78.6114 542.74 79.2502 541.674 80.5279C540.608 81.8056 540.075 83.7546 540.075 86.3751Z"/>
<path d="M570.251 81.8585L564.025 80.7354C564.725 78.2289 565.93 76.3735 567.639 75.169C569.348 73.9646 571.887 73.3624 575.256 73.3624C578.316 73.3624 580.594 73.7245 582.092 74.4488C583.589 75.1731 584.643 76.0927 585.254 77.2076C585.864 78.3225 586.169 80.3692 586.169 83.3477L586.096 91.3556C586.096 93.6342 586.206 95.3147 586.425 96.3971C586.645 97.4794 587.056 98.6391 587.658 99.8761L580.871 99.8761C580.692 99.4203 580.472 98.7449 580.212 97.8497C580.098 97.4428 580.017 97.1742 579.968 97.044C578.796 98.1833 577.543 99.0378 576.208 99.6075C574.873 100.177 573.449 100.462 571.936 100.462C569.266 100.462 567.163 99.7377 565.625 98.2891C564.087 96.8406 563.317 95.0095 563.317 92.796C563.317 91.3311 563.667 90.025 564.367 88.8775C565.067 87.7301 566.048 86.8512 567.309 86.2408C568.571 85.6305 570.389 85.0974 572.766 84.6417C575.972 84.0395 578.194 83.4779 579.431 82.9571L579.431 82.2735C579.431 80.9552 579.105 80.0152 578.454 79.4537C577.803 78.8922 576.574 78.6114 574.768 78.6114C573.547 78.6114 572.595 78.8515 571.911 79.3316C571.228 79.8118 570.674 80.6541 570.251 81.8585ZM579.431 87.4249C578.552 87.7179 577.16 88.0678 575.256 88.4747C573.352 88.8816 572.107 89.2804 571.521 89.671C570.625 90.3057 570.178 91.1114 570.178 92.088C570.178 93.0483 570.536 93.8783 571.252 94.5782C571.968 95.2781 572.88 95.628 573.986 95.628C575.223 95.628 576.403 95.2211 577.526 94.4073C578.357 93.7888 578.902 93.032 579.162 92.1368C579.341 91.5509 579.431 90.436 579.431 88.7921L579.431 87.4249Z"/>
<path d="M604.821 73.9483L604.821 79.4171L600.134 79.4171L600.134 89.8663C600.134 91.9822 600.179 93.2151 600.268 93.565C600.358 93.915 600.561 94.2039 600.879 94.4317C601.196 94.6596 601.582 94.7735 602.038 94.7735C602.673 94.7735 603.593 94.5538 604.797 94.1143L605.383 99.4366C603.788 100.12 601.981 100.462 599.963 100.462C598.726 100.462 597.611 100.254 596.618 99.8394C595.625 99.4244 594.897 98.8873 594.433 98.2281C593.969 97.5689 593.648 96.6778 593.469 95.5548C593.322 94.7572 593.249 93.1459 593.249 90.7208L593.249 79.4171L590.1 79.4171L590.1 73.9483L593.249 73.9483L593.249 68.797L600.134 64.7931L600.134 73.9483L604.821 73.9483Z"/>
<path d="M609.582 70.4327L609.582 64.085L616.442 64.085L616.442 70.4327L609.582 70.4327ZM609.582 99.8761L609.582 73.9483L616.442 73.9483L616.442 99.8761L609.582 99.8761Z"/>
<path d="M621.887 86.546C621.887 84.2673 622.448 82.0619 623.571 79.9298C624.694 77.7976 626.285 76.17 628.344 75.047C630.403 73.9239 632.702 73.3624 635.241 73.3624C639.164 73.3624 642.378 74.636 644.885 77.1832C647.391 79.7304 648.645 82.949 648.645 86.8389C648.645 90.7615 647.379 94.0126 644.848 96.5924C642.317 99.1721 639.131 100.462 635.29 100.462C632.914 100.462 630.647 99.9249 628.491 98.8507C626.334 97.7764 624.694 96.2017 623.571 94.1265C622.448 92.0514 621.887 89.5245 621.887 86.546ZM628.918 86.9122C628.918 89.4838 629.528 91.4532 630.749 92.8204C631.97 94.1876 633.475 94.8712 635.266 94.8712C637.056 94.8712 638.558 94.1876 639.77 92.8204C640.983 91.4532 641.589 89.4675 641.589 86.8634C641.589 84.3243 640.983 82.3712 639.77 81.004C638.558 79.6368 637.056 78.9532 635.266 78.9532C633.475 78.9532 631.97 79.6368 630.749 81.004C629.528 82.3712 628.918 84.3406 628.918 86.9122Z"/>
<path d="M677.6 99.8761L670.739 99.8761L670.739 86.6436C670.739 83.8442 670.593 82.0334 670.3 81.2115C670.007 80.3896 669.531 79.7507 668.872 79.295C668.212 78.8393 667.419 78.6114 666.491 78.6114C665.303 78.6114 664.237 78.9369 663.293 79.588C662.349 80.239 661.702 81.1016 661.352 82.1759C661.002 83.2501 660.827 85.2358 660.827 88.1329L660.827 99.8761L653.967 99.8761L653.967 73.9483L660.339 73.9483L660.339 77.7569C662.601 74.8272 665.45 73.3624 668.884 73.3624C670.398 73.3624 671.781 73.635 673.034 74.1803C674.288 74.7255 675.236 75.4213 675.879 76.2677C676.521 77.114 676.969 78.0743 677.221 79.1485C677.474 80.2227 677.6 81.7608 677.6 83.7628L677.6 99.8761Z"/>
</g>
<path d="M40 1547.77L1040 1547.77L1040 1612.77L40 1612.77L40 1547.77Z" fill="none" opacity="1" stroke="#000000" stroke-linecap="butt" stroke-linejoin="round" stroke-width="5.07805" vectornator:layerName="Rectangle 10"/>
<g fill="#000000" opacity="1" stroke="none" vectornator:layerName="Texte 8">
<path d="M414.426 1592.77L414.426 1556.98L426.023 1556.98C430.417 1556.98 433.282 1557.16 434.617 1557.52C436.667 1558.06 438.385 1559.22 439.768 1561.02C441.152 1562.82 441.843 1565.14 441.843 1567.99C441.843 1570.19 441.444 1572.04 440.647 1573.53C439.849 1575.03 438.836 1576.21 437.607 1577.06C436.379 1577.92 435.129 1578.48 433.86 1578.76C432.135 1579.1 429.636 1579.27 426.365 1579.27L421.653 1579.27L421.653 1592.77L414.426 1592.77ZM421.653 1563.04L421.653 1573.19L425.608 1573.19C428.456 1573.19 430.361 1573.01 431.321 1572.63C432.281 1572.26 433.034 1571.67 433.579 1570.87C434.124 1570.08 434.397 1569.15 434.397 1568.09C434.397 1566.79 434.014 1565.71 433.25 1564.87C432.485 1564.02 431.516 1563.49 430.344 1563.28C429.482 1563.12 427.748 1563.04 425.144 1563.04L421.653 1563.04Z"/>
<path d="M447.727 1563.33L447.727 1556.98L454.587 1556.98L454.587 1563.33L447.727 1563.33ZM447.727 1592.77L447.727 1566.85L454.587 1566.85L454.587 1592.77L447.727 1592.77Z"/>
<path d="M476.633 1584.52L483.469 1585.67C482.59 1588.17 481.203 1590.08 479.307 1591.39C477.41 1592.7 475.038 1593.36 472.19 1593.36C467.681 1593.36 464.345 1591.89 462.18 1588.94C460.471 1586.58 459.617 1583.6 459.617 1580C459.617 1575.71 460.74 1572.34 462.986 1569.91C465.232 1567.48 468.072 1566.26 471.506 1566.26C475.364 1566.26 478.407 1567.53 480.637 1570.08C482.867 1572.63 483.933 1576.53 483.835 1581.79L466.648 1581.79C466.697 1583.82 467.25 1585.4 468.308 1586.54C469.366 1587.67 470.684 1588.23 472.263 1588.23C473.337 1588.23 474.241 1587.94 474.973 1587.35C475.706 1586.77 476.259 1585.82 476.633 1584.52ZM477.024 1577.59C476.975 1575.6 476.462 1574.09 475.486 1573.06C474.509 1572.02 473.321 1571.51 471.921 1571.51C470.424 1571.51 469.187 1572.05 468.21 1573.14C467.234 1574.23 466.754 1575.72 466.77 1577.59L477.024 1577.59Z"/>
<path d="M513.206 1592.77L506.833 1592.77L506.833 1588.96C505.776 1590.45 504.526 1591.55 503.086 1592.27C501.646 1593 500.193 1593.36 498.728 1593.36C495.75 1593.36 493.198 1592.16 491.074 1589.76C488.95 1587.36 487.888 1584.01 487.888 1579.71C487.888 1575.32 488.922 1571.98 490.989 1569.69C493.056 1567.4 495.668 1566.26 498.826 1566.26C501.723 1566.26 504.229 1567.46 506.345 1569.87L506.345 1556.98L513.206 1556.98L513.206 1592.77ZM494.895 1579.25C494.895 1582.01 495.278 1584.02 496.042 1585.25C497.149 1587.04 498.695 1587.94 500.681 1587.94C502.26 1587.94 503.603 1587.27 504.709 1585.92C505.816 1584.58 506.37 1582.58 506.37 1579.91C506.37 1576.93 505.833 1574.78 504.758 1573.47C503.684 1572.16 502.309 1571.51 500.632 1571.51C499.005 1571.51 497.642 1572.16 496.543 1573.45C495.444 1574.74 494.895 1576.68 494.895 1579.25Z"/>
<path d="M557.639 1592.77L551.267 1592.77L551.267 1588.96C550.209 1590.45 548.96 1591.55 547.52 1592.27C546.079 1593 544.626 1593.36 543.162 1593.36C540.183 1593.36 537.632 1592.16 535.508 1589.76C533.384 1587.36 532.322 1584.01 532.322 1579.71C532.322 1575.32 533.355 1571.98 535.422 1569.69C537.489 1567.4 540.102 1566.26 543.259 1566.26C546.156 1566.26 548.663 1567.46 550.779 1569.87L550.779 1556.98L557.639 1556.98L557.639 1592.77ZM539.329 1579.25C539.329 1582.01 539.711 1584.02 540.476 1585.25C541.583 1587.04 543.129 1587.94 545.115 1587.94C546.694 1587.94 548.036 1587.27 549.143 1585.92C550.25 1584.58 550.803 1582.58 550.803 1579.91C550.803 1576.93 550.266 1574.78 549.192 1573.47C548.118 1572.16 546.742 1571.51 545.066 1571.51C543.438 1571.51 542.075 1572.16 540.977 1573.45C539.878 1574.74 539.329 1576.68 539.329 1579.25Z"/>
<path d="M579.417 1584.52L586.252 1585.67C585.374 1588.17 583.986 1590.08 582.09 1591.39C580.194 1592.7 577.821 1593.36 574.973 1593.36C570.465 1593.36 567.128 1591.89 564.963 1588.94C563.254 1586.58 562.4 1583.6 562.4 1580C562.4 1575.71 563.523 1572.34 565.769 1569.91C568.015 1567.48 570.855 1566.26 574.29 1566.26C578.147 1566.26 581.191 1567.53 583.42 1570.08C585.65 1572.63 586.716 1576.53 586.619 1581.79L569.431 1581.79C569.48 1583.82 570.033 1585.4 571.091 1586.54C572.149 1587.67 573.468 1588.23 575.046 1588.23C576.121 1588.23 577.024 1587.94 577.756 1587.35C578.489 1586.77 579.042 1585.82 579.417 1584.52ZM579.807 1577.59C579.758 1575.6 579.246 1574.09 578.269 1573.06C577.292 1572.02 576.104 1571.51 574.705 1571.51C573.207 1571.51 571.97 1572.05 570.994 1573.14C570.017 1574.23 569.537 1575.72 569.553 1577.59L579.807 1577.59Z"/>
<path d="M605.906 1566.85L612.302 1566.85L612.302 1570.65C613.132 1569.35 614.255 1568.29 615.671 1567.48C617.087 1566.67 618.658 1566.26 620.383 1566.26C623.394 1566.26 625.95 1567.44 628.049 1569.8C630.149 1572.16 631.199 1575.45 631.199 1579.66C631.199 1583.99 630.141 1587.36 628.025 1589.76C625.909 1592.16 623.346 1593.36 620.334 1593.36C618.902 1593.36 617.604 1593.07 616.44 1592.5C615.277 1591.93 614.052 1590.96 612.766 1589.57L612.766 1602.64L605.906 1602.64L605.906 1566.85ZM612.693 1579.37C612.693 1582.28 613.271 1584.44 614.426 1585.83C615.582 1587.22 616.99 1587.91 618.65 1587.91C620.245 1587.91 621.571 1587.28 622.629 1586C623.687 1584.72 624.216 1582.62 624.216 1579.71C624.216 1576.99 623.671 1574.97 622.581 1573.66C621.49 1572.34 620.139 1571.68 618.528 1571.68C616.851 1571.68 615.46 1572.33 614.353 1573.62C613.246 1574.91 612.693 1576.83 612.693 1579.37Z"/>
<path d="M641.77 1574.76L635.544 1573.63C636.244 1571.13 637.449 1569.27 639.158 1568.07C640.867 1566.86 643.406 1566.26 646.775 1566.26C649.835 1566.26 652.113 1566.62 653.611 1567.35C655.108 1568.07 656.162 1568.99 656.772 1570.1C657.383 1571.22 657.688 1573.27 657.688 1576.24L657.615 1584.25C657.615 1586.53 657.725 1588.21 657.944 1589.29C658.164 1590.38 658.575 1591.54 659.177 1592.77L652.39 1592.77C652.211 1592.32 651.991 1591.64 651.731 1590.75C651.617 1590.34 651.536 1590.07 651.487 1589.94C650.315 1591.08 649.062 1591.93 647.727 1592.5C646.392 1593.07 644.968 1593.36 643.455 1593.36C640.785 1593.36 638.682 1592.63 637.144 1591.19C635.605 1589.74 634.836 1587.91 634.836 1585.69C634.836 1584.23 635.186 1582.92 635.886 1581.77C636.586 1580.63 637.567 1579.75 638.828 1579.14C640.09 1578.53 641.908 1577.99 644.285 1577.54C647.491 1576.94 649.713 1576.37 650.95 1575.85L650.95 1575.17C650.95 1573.85 650.624 1572.91 649.973 1572.35C649.322 1571.79 648.093 1571.51 646.287 1571.51C645.066 1571.51 644.114 1571.75 643.43 1572.23C642.747 1572.71 642.193 1573.55 641.77 1574.76ZM650.95 1580.32C650.071 1580.61 648.679 1580.96 646.775 1581.37C644.871 1581.78 643.625 1582.18 643.04 1582.57C642.144 1583.2 641.697 1584.01 641.697 1584.98C641.697 1585.95 642.055 1586.78 642.771 1587.47C643.487 1588.17 644.399 1588.52 645.505 1588.52C646.742 1588.52 647.922 1588.12 649.045 1587.3C649.875 1586.69 650.421 1585.93 650.681 1585.03C650.86 1584.45 650.95 1583.33 650.95 1581.69L650.95 1580.32Z"/>
<path d="M663.816 1594.48L671.653 1595.43C671.783 1596.35 672.084 1596.97 672.556 1597.31C673.207 1597.8 674.233 1598.05 675.632 1598.05C677.423 1598.05 678.765 1597.78 679.661 1597.24C680.263 1596.88 680.719 1596.3 681.028 1595.51C681.239 1594.94 681.345 1593.89 681.345 1592.36L681.345 1588.57C679.294 1591.37 676.707 1592.77 673.582 1592.77C670.098 1592.77 667.34 1591.3 665.305 1588.35C663.71 1586.03 662.913 1583.13 662.913 1579.66C662.913 1575.32 663.958 1572 666.05 1569.7C668.141 1567.41 670.741 1566.26 673.85 1566.26C677.056 1566.26 679.701 1567.67 681.785 1570.48L681.785 1566.85L688.206 1566.85L688.206 1590.11C688.206 1593.17 687.953 1595.46 687.449 1596.97C686.944 1598.49 686.236 1599.67 685.325 1600.54C684.413 1601.4 683.197 1602.07 681.675 1602.56C680.153 1603.05 678.228 1603.3 675.901 1603.3C671.506 1603.3 668.389 1602.54 666.55 1601.04C664.711 1599.53 663.792 1597.62 663.792 1595.31C663.792 1595.08 663.8 1594.81 663.816 1594.48ZM669.944 1579.27C669.944 1582.02 670.477 1584.04 671.543 1585.31C672.609 1586.59 673.923 1587.23 675.486 1587.23C677.162 1587.23 678.578 1586.58 679.734 1585.27C680.889 1583.96 681.467 1582.01 681.467 1579.44C681.467 1576.76 680.914 1574.76 679.807 1573.46C678.7 1572.16 677.301 1571.51 675.608 1571.51C673.964 1571.51 672.609 1572.15 671.543 1573.42C670.477 1574.7 669.944 1576.65 669.944 1579.27Z"/>
<path d="M710.007 1584.52L716.843 1585.67C715.964 1588.17 714.577 1590.08 712.681 1591.39C710.785 1592.7 708.412 1593.36 705.564 1593.36C701.056 1593.36 697.719 1591.89 695.554 1588.94C693.845 1586.58 692.991 1583.6 692.991 1580C692.991 1575.71 694.114 1572.34 696.36 1569.91C698.606 1567.48 701.446 1566.26 704.88 1566.26C708.738 1566.26 711.781 1567.53 714.011 1570.08C716.241 1572.63 717.307 1576.53 717.209 1581.79L700.022 1581.79C700.071 1583.82 700.624 1585.4 701.682 1586.54C702.74 1587.67 704.058 1588.23 705.637 1588.23C706.711 1588.23 707.615 1587.94 708.347 1587.35C709.08 1586.77 709.633 1585.82 710.007 1584.52ZM710.398 1577.59C710.349 1575.6 709.836 1574.09 708.86 1573.06C707.883 1572.02 706.695 1571.51 705.295 1571.51C703.798 1571.51 702.561 1572.05 701.584 1573.14C700.608 1574.23 700.128 1575.72 700.144 1577.59L710.398 1577.59Z"/>
</g>
<path d="M40 136.5L1040 136.5L1040 1499.6L40 1499.6L40 136.5Z" fill="none" opacity="1" stroke="#000000" stroke-linecap="butt" stroke-linejoin="round" stroke-width="5.07805" vectornator:layerName="Rectangle 11"/>
<path d="M165 261.171L915 261.171L915 375.086L165 375.086L165 261.171Z" fill="none" opacity="1" stroke="#000000" stroke-linecap="butt" stroke-linejoin="round" stroke-width="5.07805" vectornator:layerName="Rectangle 12"/>
<path d="M177.195 972.737C177.195 779.437 333.895 622.737 527.195 622.737C720.494 622.737 877.195 779.437 877.195 972.737C877.195 1166.04 720.494 1322.74 527.195 1322.74C333.895 1322.74 177.195 1166.04 177.195 972.737Z" fill="none" opacity="0" stroke="#000000" stroke-linecap="butt" stroke-linejoin="round" stroke-width="5.07805" vectornator:layerName="Ovale 1"/>
<path d="M465 547.737L615 547.737L615 697.737L465 697.737L465 547.737Z" fill="none" opacity="1" stroke="#000000" stroke-linecap="butt" stroke-linejoin="round" stroke-width="5.07805" vectornator:layerName="Rectangle 14"/>
<path d="M827.195 897.737L977.195 897.737L977.195 1047.74L827.195 1047.74L827.195 897.737Z" fill="none" opacity="1" stroke="#000000" stroke-linecap="butt" stroke-linejoin="round" stroke-width="5.07805" vectornator:layerName="Rectangle 15"/>
<path d="M465 1299.74L615 1299.74L615 1449.74L465 1449.74L465 1299.74Z" fill="none" opacity="1" stroke="#000000" stroke-linecap="butt" stroke-linejoin="round" stroke-width="5.07805" vectornator:layerName="Rectangle 16"/>
<path d="M85.6264 897.737L235.626 897.737L235.626 1047.74L85.6264 1047.74L85.6264 897.737Z" fill="none" opacity="1" stroke="#000000" stroke-linecap="butt" stroke-linejoin="round" stroke-width="5.07805" vectornator:layerName="Rectangle 17"/>
<path d="M260.15 1123.17L410.15 1123.17L410.15 1273.17L260.15 1273.17L260.15 1123.17Z" fill="none" opacity="1" stroke="#000000" stroke-linecap="butt" stroke-linejoin="round" stroke-width="5.07805" vectornator:layerName="Rectangle 18"/>
<path d="M672.747 1122.28L822.747 1122.28L822.747 1272.28L672.747 1272.28L672.747 1122.28Z" fill="none" opacity="1" stroke="#000000" stroke-linecap="butt" stroke-linejoin="round" stroke-width="5.07805" vectornator:layerName="Rectangle 19"/>
<path d="M672.747 697.737L822.747 697.737L822.747 847.737L672.747 847.737L672.747 697.737Z" fill="none" opacity="1" stroke="#000000" stroke-linecap="butt" stroke-linejoin="round" stroke-width="5.07805" vectornator:layerName="Rectangle 20"/>
<path d="M237.036 706.942L387.036 706.942L387.036 856.942L237.036 856.942L237.036 706.942Z" fill="none" opacity="1" stroke="#000000" stroke-linecap="butt" stroke-linejoin="round" stroke-width="5.07805" vectornator:layerName="Rectangle 13"/>
<g fill="#000000" opacity="1" stroke="none" vectornator:layerName="Texte 9">
<path d="M424.572 324.214L424.572 288.423L436.169 288.423C440.563 288.423 443.428 288.602 444.763 288.96C446.813 289.497 448.531 290.665 449.914 292.463C451.298 294.262 451.989 296.585 451.989 299.433C451.989 301.631 451.59 303.478 450.793 304.975C449.995 306.473 448.982 307.649 447.753 308.503C446.525 309.358 445.275 309.923 444.006 310.2C442.281 310.542 439.782 310.713 436.511 310.713L431.799 310.713L431.799 324.214L424.572 324.214ZM431.799 294.477L431.799 304.634L435.754 304.634C438.602 304.634 440.507 304.446 441.467 304.072C442.427 303.698 443.18 303.112 443.725 302.314C444.27 301.517 444.543 300.589 444.543 299.531C444.543 298.229 444.16 297.155 443.396 296.308C442.631 295.462 441.662 294.933 440.49 294.722C439.628 294.559 437.894 294.477 435.29 294.477L431.799 294.477Z"/>
<path d="M463 306.196L456.774 305.073C457.474 302.567 458.679 300.711 460.388 299.507C462.097 298.302 464.636 297.7 468.005 297.7C471.065 297.7 473.343 298.062 474.841 298.786C476.338 299.511 477.392 300.43 478.002 301.545C478.613 302.66 478.918 304.707 478.918 307.685L478.845 315.693C478.845 317.972 478.955 319.652 479.174 320.735C479.394 321.817 479.805 322.977 480.407 324.214L473.62 324.214C473.441 323.758 473.221 323.083 472.961 322.187C472.847 321.78 472.766 321.512 472.717 321.382C471.545 322.521 470.292 323.376 468.957 323.945C467.622 324.515 466.198 324.8 464.685 324.8C462.015 324.8 459.912 324.075 458.374 322.627C456.835 321.178 456.066 319.347 456.066 317.134C456.066 315.669 456.416 314.363 457.116 313.215C457.816 312.068 458.797 311.189 460.058 310.578C461.319 309.968 463.138 309.435 465.515 308.979C468.721 308.377 470.943 307.816 472.18 307.295L472.18 306.611C472.18 305.293 471.854 304.353 471.203 303.791C470.552 303.23 469.323 302.949 467.517 302.949C466.296 302.949 465.344 303.189 464.66 303.669C463.977 304.149 463.423 304.992 463 306.196ZM472.18 311.763C471.301 312.056 469.909 312.405 468.005 312.812C466.101 313.219 464.855 313.618 464.27 314.009C463.374 314.643 462.927 315.449 462.927 316.426C462.927 317.386 463.285 318.216 464.001 318.916C464.717 319.616 465.629 319.966 466.735 319.966C467.972 319.966 469.152 319.559 470.275 318.745C471.105 318.126 471.651 317.37 471.911 316.474C472.09 315.889 472.18 314.774 472.18 313.13L472.18 311.763Z"/>
<path d="M492.248 324.214L485.388 324.214L485.388 298.286L491.76 298.286L491.76 301.973C492.85 300.231 493.831 299.084 494.702 298.53C495.572 297.977 496.561 297.7 497.668 297.7C499.23 297.7 500.736 298.131 502.185 298.994L500.061 304.975C498.905 304.227 497.831 303.852 496.838 303.852C495.878 303.852 495.064 304.117 494.396 304.646C493.729 305.175 493.204 306.131 492.822 307.514C492.439 308.898 492.248 311.795 492.248 316.206L492.248 324.214Z"/>
<path d="M510.266 306.196L504.04 305.073C504.74 302.567 505.944 300.711 507.653 299.507C509.362 298.302 511.901 297.7 515.271 297.7C518.33 297.7 520.609 298.062 522.106 298.786C523.604 299.511 524.658 300.43 525.268 301.545C525.878 302.66 526.184 304.707 526.184 307.685L526.11 315.693C526.11 317.972 526.22 319.652 526.44 320.735C526.66 321.817 527.071 322.977 527.673 324.214L520.886 324.214C520.707 323.758 520.487 323.083 520.227 322.187C520.113 321.78 520.031 321.512 519.982 321.382C518.811 322.521 517.557 323.376 516.223 323.945C514.888 324.515 513.464 324.8 511.95 324.8C509.281 324.8 507.177 324.075 505.639 322.627C504.101 321.178 503.332 319.347 503.332 317.134C503.332 315.669 503.682 314.363 504.382 313.215C505.082 312.068 506.062 311.189 507.324 310.578C508.585 309.968 510.404 309.435 512.78 308.979C515.987 308.377 518.208 307.816 519.445 307.295L519.445 306.611C519.445 305.293 519.12 304.353 518.469 303.791C517.818 303.23 516.589 302.949 514.782 302.949C513.562 302.949 512.609 303.189 511.926 303.669C511.242 304.149 510.689 304.992 510.266 306.196ZM519.445 311.763C518.566 312.056 517.175 312.405 515.271 312.812C513.366 313.219 512.121 313.618 511.535 314.009C510.64 314.643 510.192 315.449 510.192 316.426C510.192 317.386 510.55 318.216 511.267 318.916C511.983 319.616 512.894 319.966 514.001 319.966C515.238 319.966 516.418 319.559 517.541 318.745C518.371 318.126 518.916 317.37 519.177 316.474C519.356 315.889 519.445 314.774 519.445 313.13L519.445 311.763Z"/>
<path d="M532.312 325.923L540.148 326.875C540.279 327.786 540.58 328.413 541.052 328.755C541.703 329.243 542.728 329.487 544.128 329.487C545.918 329.487 547.261 329.219 548.156 328.681C548.758 328.323 549.214 327.746 549.523 326.948C549.735 326.378 549.841 325.329 549.841 323.799L549.841 320.014C547.79 322.814 545.202 324.214 542.077 324.214C538.594 324.214 535.835 322.741 533.801 319.795C532.206 317.467 531.408 314.57 531.408 311.103C531.408 306.758 532.454 303.437 534.545 301.142C536.637 298.848 539.237 297.7 542.346 297.7C545.552 297.7 548.197 299.108 550.28 301.924L550.28 298.286L556.701 298.286L556.701 321.553C556.701 324.612 556.449 326.899 555.944 328.413C555.44 329.927 554.732 331.115 553.82 331.977C552.909 332.84 551.692 333.515 550.17 334.004C548.649 334.492 546.724 334.736 544.396 334.736C540.002 334.736 536.885 333.983 535.046 332.478C533.207 330.972 532.287 329.064 532.287 326.753C532.287 326.525 532.295 326.248 532.312 325.923ZM538.439 310.713C538.439 313.463 538.972 315.478 540.039 316.755C541.105 318.033 542.419 318.672 543.981 318.672C545.658 318.672 547.074 318.017 548.229 316.706C549.385 315.396 549.963 313.455 549.963 310.884C549.963 308.198 549.41 306.204 548.303 304.902C547.196 303.6 545.796 302.949 544.104 302.949C542.46 302.949 541.105 303.588 540.039 304.866C538.972 306.143 538.439 308.092 538.439 310.713Z"/>
<path d="M570.056 324.214L563.195 324.214L563.195 298.286L569.567 298.286L569.567 301.973C570.658 300.231 571.639 299.084 572.509 298.53C573.38 297.977 574.369 297.7 575.476 297.7C577.038 297.7 578.544 298.131 579.992 298.994L577.868 304.975C576.713 304.227 575.638 303.852 574.646 303.852C573.685 303.852 572.871 304.117 572.204 304.646C571.537 305.175 571.012 306.131 570.629 307.514C570.247 308.898 570.056 311.795 570.056 316.206L570.056 324.214Z"/>
<path d="M588.073 306.196L581.848 305.073C582.548 302.567 583.752 300.711 585.461 299.507C587.17 298.302 589.709 297.7 593.078 297.7C596.138 297.7 598.417 298.062 599.914 298.786C601.411 299.511 602.465 300.43 603.076 301.545C603.686 302.66 603.991 304.707 603.991 307.685L603.918 315.693C603.918 317.972 604.028 319.652 604.248 320.735C604.467 321.817 604.878 322.977 605.48 324.214L598.693 324.214C598.514 323.758 598.295 323.083 598.034 322.187C597.92 321.78 597.839 321.512 597.79 321.382C596.618 322.521 595.365 323.376 594.03 323.945C592.696 324.515 591.271 324.8 589.758 324.8C587.089 324.8 584.985 324.075 583.447 322.627C581.909 321.178 581.14 319.347 581.14 317.134C581.14 315.669 581.49 314.363 582.189 313.215C582.889 312.068 583.87 311.189 585.131 310.578C586.393 309.968 588.212 309.435 590.588 308.979C593.794 308.377 596.016 307.816 597.253 307.295L597.253 306.611C597.253 305.293 596.927 304.353 596.276 303.791C595.625 303.23 594.396 302.949 592.59 302.949C591.369 302.949 590.417 303.189 589.733 303.669C589.05 304.149 588.496 304.992 588.073 306.196ZM597.253 311.763C596.374 312.056 594.982 312.405 593.078 312.812C591.174 313.219 589.929 313.618 589.343 314.009C588.448 314.643 588 315.449 588 316.426C588 317.386 588.358 318.216 589.074 318.916C589.79 319.616 590.702 319.966 591.809 319.966C593.046 319.966 594.226 319.559 595.349 318.745C596.179 318.126 596.724 317.37 596.984 316.474C597.163 315.889 597.253 314.774 597.253 313.13L597.253 311.763Z"/>
<path d="M610.559 298.286L616.955 298.286L616.955 302.095C617.785 300.792 618.908 299.735 620.324 298.921C621.74 298.107 623.311 297.7 625.036 297.7C628.047 297.7 630.603 298.88 632.702 301.24C634.802 303.6 635.852 306.888 635.852 311.103C635.852 315.433 634.794 318.798 632.678 321.199C630.562 323.599 627.998 324.8 624.987 324.8C623.555 324.8 622.257 324.515 621.093 323.945C619.93 323.376 618.705 322.399 617.419 321.015L617.419 334.077L610.559 334.077L610.559 298.286ZM617.346 310.81C617.346 313.724 617.923 315.876 619.079 317.268C620.235 318.66 621.643 319.355 623.303 319.355C624.898 319.355 626.224 318.716 627.282 317.439C628.34 316.161 628.869 314.066 628.869 311.152C628.869 308.434 628.324 306.416 627.233 305.098C626.143 303.779 624.792 303.12 623.181 303.12C621.504 303.12 620.113 303.767 619.006 305.061C617.899 306.355 617.346 308.271 617.346 310.81Z"/>
<path d="M648.132 288.423L648.132 301.582C650.345 298.994 652.99 297.7 656.066 297.7C657.645 297.7 659.069 297.993 660.339 298.579C661.608 299.165 662.565 299.914 663.208 300.825C663.85 301.737 664.29 302.746 664.526 303.852C664.762 304.959 664.88 306.676 664.88 309.004L664.88 324.214L658.02 324.214L658.02 310.517C658.02 307.799 657.889 306.074 657.629 305.342C657.368 304.609 656.909 304.027 656.25 303.596C655.59 303.165 654.764 302.949 653.771 302.949C652.632 302.949 651.615 303.226 650.72 303.779C649.825 304.333 649.169 305.167 648.754 306.282C648.339 307.396 648.132 309.044 648.132 311.225L648.132 324.214L641.271 324.214L641.271 288.423L648.132 288.423Z"/>
<path d="M686.853 315.962L693.688 317.109C692.81 319.616 691.422 321.524 689.526 322.834C687.63 324.145 685.257 324.8 682.409 324.8C677.901 324.8 674.564 323.327 672.399 320.381C670.69 318.021 669.836 315.042 669.836 311.445C669.836 307.148 670.959 303.783 673.205 301.35C675.451 298.917 678.291 297.7 681.726 297.7C685.583 297.7 688.627 298.974 690.856 301.521C693.086 304.068 694.152 307.97 694.055 313.227L676.867 313.227C676.916 315.262 677.469 316.845 678.527 317.976C679.585 319.107 680.904 319.673 682.482 319.673C683.557 319.673 684.46 319.38 685.192 318.794C685.925 318.208 686.478 317.264 686.853 315.962ZM687.243 309.028C687.194 307.042 686.682 305.533 685.705 304.499C684.729 303.466 683.54 302.949 682.141 302.949C680.643 302.949 679.406 303.494 678.43 304.585C677.453 305.675 676.973 307.156 676.989 309.028L687.243 309.028Z"/>
</g>
<path d="M60 524.942L1020 524.942L1020 1484.94L60 1484.94L60 524.942Z" fill="none" opacity="1" stroke="#000000" stroke-linecap="butt" stroke-linejoin="round" stroke-width="5.07805" vectornator:layerName="Rectangle 21"/>
<g fill="#000000" opacity="1" stroke="none" vectornator:layerName="Texte 11">
<path d="M277.618 772.737L277.618 754.841L281.231 754.841L281.231 772.737L277.618 772.737Z"/>
<path d="M284.393 759.773L287.555 759.773L287.555 761.543C288.686 760.167 290.033 759.48 291.595 759.48C292.425 759.48 293.145 759.651 293.756 759.993C294.366 760.334 294.867 760.851 295.257 761.543C295.827 760.851 296.441 760.334 297.1 759.993C297.76 759.651 298.464 759.48 299.212 759.48C300.164 759.48 300.97 759.673 301.629 760.06C302.288 760.446 302.781 761.014 303.106 761.763C303.342 762.316 303.46 763.211 303.46 764.448L303.46 772.737L300.03 772.737L300.03 765.327C300.03 764.041 299.912 763.211 299.676 762.837C299.359 762.348 298.871 762.104 298.211 762.104C297.731 762.104 297.28 762.251 296.856 762.544C296.433 762.837 296.128 763.266 295.941 763.832C295.754 764.397 295.66 765.29 295.66 766.511L295.66 772.737L292.23 772.737L292.23 765.632C292.23 764.371 292.169 763.557 292.047 763.191C291.925 762.825 291.735 762.552 291.479 762.373C291.223 762.194 290.875 762.104 290.435 762.104C289.906 762.104 289.43 762.247 289.007 762.532C288.584 762.816 288.281 763.227 288.098 763.764C287.915 764.302 287.823 765.193 287.823 766.438L287.823 772.737L284.393 772.737L284.393 759.773Z"/>
<path d="M309.442 763.728L306.329 763.166C306.679 761.913 307.281 760.985 308.136 760.383C308.99 759.781 310.26 759.48 311.944 759.48C313.474 759.48 314.614 759.661 315.362 760.023C316.111 760.385 316.638 760.845 316.943 761.402C317.248 761.96 317.401 762.983 317.401 764.472L317.364 768.476C317.364 769.616 317.419 770.456 317.529 770.997C317.639 771.538 317.844 772.118 318.145 772.737L314.752 772.737C314.662 772.509 314.552 772.171 314.422 771.723C314.365 771.52 314.325 771.386 314.3 771.321C313.714 771.89 313.088 772.318 312.42 772.602C311.753 772.887 311.041 773.03 310.284 773.03C308.949 773.03 307.898 772.667 307.129 771.943C306.36 771.219 305.975 770.303 305.975 769.197C305.975 768.464 306.15 767.811 306.5 767.237C306.85 766.664 307.34 766.224 307.971 765.919C308.602 765.614 309.511 765.347 310.699 765.119C312.302 764.818 313.413 764.538 314.032 764.277L314.032 763.935C314.032 763.276 313.869 762.806 313.543 762.525C313.218 762.245 312.603 762.104 311.7 762.104C311.09 762.104 310.614 762.224 310.272 762.464C309.93 762.705 309.653 763.126 309.442 763.728ZM314.032 766.511C313.592 766.658 312.896 766.833 311.944 767.036C310.992 767.239 310.37 767.439 310.077 767.634C309.629 767.951 309.405 768.354 309.405 768.843C309.405 769.323 309.584 769.738 309.942 770.088C310.3 770.438 310.756 770.613 311.309 770.613C311.928 770.613 312.518 770.409 313.079 770.002C313.495 769.693 313.767 769.315 313.897 768.867C313.987 768.574 314.032 768.017 314.032 767.195L314.032 766.511Z"/>
<path d="M320.465 773.591L324.383 774.067C324.448 774.523 324.599 774.836 324.835 775.007C325.16 775.251 325.673 775.373 326.373 775.373C327.268 775.373 327.94 775.239 328.387 774.971C328.688 774.792 328.916 774.503 329.071 774.104C329.176 773.819 329.229 773.294 329.229 772.529L329.229 770.637C328.204 772.037 326.91 772.737 325.348 772.737C323.606 772.737 322.227 772 321.209 770.527C320.412 769.363 320.013 767.915 320.013 766.181C320.013 764.009 320.536 762.348 321.582 761.201C322.627 760.054 323.927 759.48 325.482 759.48C327.085 759.48 328.407 760.184 329.449 761.592L329.449 759.773L332.66 759.773L332.66 771.406C332.66 772.936 332.533 774.079 332.281 774.836C332.029 775.593 331.675 776.187 331.219 776.618C330.763 777.05 330.155 777.388 329.394 777.632C328.633 777.876 327.671 777.998 326.507 777.998C324.31 777.998 322.752 777.621 321.832 776.869C320.912 776.116 320.453 775.162 320.453 774.006C320.453 773.892 320.457 773.754 320.465 773.591ZM323.529 765.986C323.529 767.361 323.795 768.369 324.328 769.007C324.861 769.646 325.518 769.966 326.3 769.966C327.138 769.966 327.846 769.638 328.424 768.983C329.002 768.328 329.29 767.357 329.29 766.072C329.29 764.729 329.014 763.732 328.46 763.081C327.907 762.43 327.207 762.104 326.361 762.104C325.539 762.104 324.861 762.424 324.328 763.063C323.795 763.701 323.529 764.676 323.529 765.986Z"/>
<path d="M343.56 768.611L346.978 769.184C346.539 770.438 345.845 771.392 344.897 772.047C343.949 772.702 342.763 773.03 341.339 773.03C339.085 773.03 337.416 772.293 336.334 770.82C335.479 769.64 335.052 768.151 335.052 766.352C335.052 764.204 335.614 762.521 336.737 761.305C337.86 760.088 339.28 759.48 340.997 759.48C342.926 759.48 344.447 760.117 345.562 761.39C346.677 762.664 347.21 764.615 347.162 767.243L338.568 767.243C338.592 768.261 338.869 769.052 339.398 769.618C339.927 770.183 340.586 770.466 341.375 770.466C341.912 770.466 342.364 770.32 342.73 770.027C343.097 769.734 343.373 769.262 343.56 768.611ZM343.756 765.144C343.731 764.151 343.475 763.396 342.987 762.879C342.498 762.363 341.904 762.104 341.204 762.104C340.456 762.104 339.837 762.377 339.349 762.922C338.861 763.467 338.621 764.208 338.629 765.144L343.756 765.144Z"/>
</g>
<g fill="#000000" opacity="1" stroke="none" vectornator:layerName="Texte 12">
<path d="M505.582 622.737L505.582 604.841L509.196 604.841L509.196 622.737L505.582 622.737Z"/>
<path d="M512.357 609.773L515.519 609.773L515.519 611.543C516.65 610.167 517.997 609.48 519.559 609.48C520.389 609.48 521.11 609.651 521.72 609.993C522.33 610.334 522.831 610.851 523.221 611.543C523.791 610.851 524.406 610.334 525.065 609.993C525.724 609.651 526.428 609.48 527.177 609.48C528.129 609.48 528.934 609.673 529.594 610.06C530.253 610.446 530.745 611.014 531.071 611.763C531.307 612.316 531.425 613.211 531.425 614.448L531.425 622.737L527.994 622.737L527.994 615.327C527.994 614.041 527.876 613.211 527.64 612.837C527.323 612.348 526.835 612.104 526.176 612.104C525.695 612.104 525.244 612.251 524.821 612.544C524.397 612.837 524.092 613.266 523.905 613.832C523.718 614.397 523.624 615.29 523.624 616.511L523.624 622.737L520.194 622.737L520.194 615.632C520.194 614.371 520.133 613.557 520.011 613.191C519.889 612.825 519.7 612.552 519.443 612.373C519.187 612.194 518.839 612.104 518.4 612.104C517.871 612.104 517.395 612.247 516.971 612.532C516.548 612.816 516.245 613.227 516.062 613.764C515.879 614.302 515.787 615.193 515.787 616.438L515.787 622.737L512.357 622.737L512.357 609.773Z"/>
<path d="M537.406 613.728L534.293 613.166C534.643 611.913 535.245 610.985 536.1 610.383C536.954 609.781 538.224 609.48 539.908 609.48C541.438 609.48 542.578 609.661 543.326 610.023C544.075 610.385 544.602 610.845 544.907 611.402C545.212 611.96 545.365 612.983 545.365 614.472L545.328 618.476C545.328 619.616 545.383 620.456 545.493 620.997C545.603 621.538 545.809 622.118 546.11 622.737L542.716 622.737C542.627 622.509 542.517 622.171 542.386 621.723C542.33 621.52 542.289 621.386 542.264 621.321C541.678 621.89 541.052 622.318 540.385 622.602C539.717 622.887 539.005 623.03 538.248 623.03C536.914 623.03 535.862 622.667 535.093 621.943C534.324 621.219 533.939 620.303 533.939 619.197C533.939 618.464 534.114 617.811 534.464 617.237C534.814 616.664 535.304 616.224 535.935 615.919C536.566 615.614 537.475 615.347 538.663 615.119C540.267 614.818 541.377 614.538 541.996 614.277L541.996 613.935C541.996 613.276 541.833 612.806 541.508 612.525C541.182 612.245 540.568 612.104 539.664 612.104C539.054 612.104 538.578 612.224 538.236 612.464C537.894 612.705 537.618 613.126 537.406 613.728ZM541.996 616.511C541.556 616.658 540.861 616.833 539.908 617.036C538.956 617.239 538.334 617.439 538.041 617.634C537.593 617.951 537.369 618.354 537.369 618.843C537.369 619.323 537.548 619.738 537.906 620.088C538.265 620.438 538.72 620.613 539.274 620.613C539.892 620.613 540.482 620.409 541.044 620.002C541.459 619.693 541.731 619.315 541.862 618.867C541.951 618.574 541.996 618.017 541.996 617.195L541.996 616.511Z"/>
<path d="M548.429 623.591L552.347 624.067C552.413 624.523 552.563 624.836 552.799 625.007C553.125 625.251 553.637 625.373 554.337 625.373C555.232 625.373 555.904 625.239 556.351 624.971C556.652 624.792 556.88 624.503 557.035 624.104C557.141 623.819 557.194 623.294 557.194 622.529L557.194 620.637C556.168 622.037 554.874 622.737 553.312 622.737C551.57 622.737 550.191 622 549.174 620.527C548.376 619.363 547.977 617.915 547.977 616.181C547.977 614.009 548.5 612.348 549.546 611.201C550.592 610.054 551.892 609.48 553.446 609.48C555.049 609.48 556.372 610.184 557.413 611.592L557.413 609.773L560.624 609.773L560.624 621.406C560.624 622.936 560.498 624.079 560.245 624.836C559.993 625.593 559.639 626.187 559.183 626.618C558.728 627.05 558.119 627.388 557.358 627.632C556.597 627.876 555.635 627.998 554.471 627.998C552.274 627.998 550.716 627.621 549.796 626.869C548.877 626.116 548.417 625.162 548.417 624.006C548.417 623.892 548.421 623.754 548.429 623.591ZM551.493 615.986C551.493 617.361 551.759 618.369 552.292 619.007C552.826 619.646 553.483 619.966 554.264 619.966C555.102 619.966 555.81 619.638 556.388 618.983C556.966 618.328 557.255 617.357 557.255 616.072C557.255 614.729 556.978 613.732 556.425 613.081C555.871 612.43 555.171 612.104 554.325 612.104C553.503 612.104 552.826 612.424 552.292 613.063C551.759 613.701 551.493 614.676 551.493 615.986Z"/>
<path d="M571.525 618.611L574.943 619.184C574.503 620.438 573.809 621.392 572.861 622.047C571.913 622.702 570.727 623.03 569.303 623.03C567.049 623.03 565.38 622.293 564.298 620.82C563.444 619.64 563.016 618.151 563.016 616.352C563.016 614.204 563.578 612.521 564.701 611.305C565.824 610.088 567.244 609.48 568.961 609.48C570.89 609.48 572.412 610.117 573.527 611.39C574.642 612.664 575.175 614.615 575.126 617.243L566.532 617.243C566.556 618.261 566.833 619.052 567.362 619.618C567.891 620.183 568.55 620.466 569.34 620.466C569.877 620.466 570.328 620.32 570.695 620.027C571.061 619.734 571.337 619.262 571.525 618.611ZM571.72 615.144C571.696 614.151 571.439 613.396 570.951 612.879C570.463 612.363 569.869 612.104 569.169 612.104C568.42 612.104 567.802 612.377 567.313 612.922C566.825 613.467 566.585 614.208 566.593 615.144L571.72 615.144Z"/>
</g>
<g fill="#000000" opacity="1" stroke="none" vectornator:layerName="Texte 13">
<path d="M715.891 772.737L715.891 754.841L719.504 754.841L719.504 772.737L715.891 772.737Z"/>
<path d="M722.666 759.773L725.827 759.773L725.827 761.543C726.959 760.167 728.305 759.48 729.868 759.48C730.698 759.48 731.418 759.651 732.029 759.993C732.639 760.334 733.139 760.851 733.53 761.543C734.1 760.851 734.714 760.334 735.373 759.993C736.032 759.651 736.736 759.48 737.485 759.48C738.437 759.48 739.243 759.673 739.902 760.06C740.561 760.446 741.054 761.014 741.379 761.763C741.615 762.316 741.733 763.211 741.733 764.448L741.733 772.737L738.303 772.737L738.303 765.327C738.303 764.041 738.185 763.211 737.949 762.837C737.632 762.348 737.143 762.104 736.484 762.104C736.004 762.104 735.552 762.251 735.129 762.544C734.706 762.837 734.401 763.266 734.214 763.832C734.026 764.397 733.933 765.29 733.933 766.511L733.933 772.737L730.503 772.737L730.503 765.632C730.503 764.371 730.442 763.557 730.32 763.191C730.197 762.825 730.008 762.552 729.752 762.373C729.496 762.194 729.148 762.104 728.708 762.104C728.179 762.104 727.703 762.247 727.28 762.532C726.857 762.816 726.554 763.227 726.371 763.764C726.187 764.302 726.096 765.193 726.096 766.438L726.096 772.737L722.666 772.737L722.666 759.773Z"/>
<path d="M747.715 763.728L744.602 763.166C744.952 761.913 745.554 760.985 746.408 760.383C747.263 759.781 748.532 759.48 750.217 759.48C751.747 759.48 752.886 759.661 753.635 760.023C754.384 760.385 754.911 760.845 755.216 761.402C755.521 761.96 755.674 762.983 755.674 764.472L755.637 768.476C755.637 769.616 755.692 770.456 755.802 770.997C755.912 771.538 756.117 772.118 756.418 772.737L753.025 772.737C752.935 772.509 752.825 772.171 752.695 771.723C752.638 771.52 752.597 771.386 752.573 771.321C751.987 771.89 751.36 772.318 750.693 772.602C750.026 772.887 749.314 773.03 748.557 773.03C747.222 773.03 746.17 772.667 745.401 771.943C744.632 771.219 744.248 770.303 744.248 769.197C744.248 768.464 744.423 767.811 744.773 767.237C745.123 766.664 745.613 766.224 746.244 765.919C746.874 765.614 747.784 765.347 748.972 765.119C750.575 764.818 751.686 764.538 752.304 764.277L752.304 763.935C752.304 763.276 752.142 762.806 751.816 762.525C751.491 762.245 750.876 762.104 749.973 762.104C749.362 762.104 748.886 762.224 748.545 762.464C748.203 762.705 747.926 763.126 747.715 763.728ZM752.304 766.511C751.865 766.658 751.169 766.833 750.217 767.036C749.265 767.239 748.642 767.439 748.349 767.634C747.902 767.951 747.678 768.354 747.678 768.843C747.678 769.323 747.857 769.738 748.215 770.088C748.573 770.438 749.029 770.613 749.582 770.613C750.201 770.613 750.791 770.409 751.352 770.002C751.767 769.693 752.04 769.315 752.17 768.867C752.26 768.574 752.304 768.017 752.304 767.195L752.304 766.511Z"/>
<path d="M758.737 773.591L762.656 774.067C762.721 774.523 762.872 774.836 763.108 775.007C763.433 775.251 763.946 775.373 764.646 775.373C765.541 775.373 766.212 775.239 766.66 774.971C766.961 774.792 767.189 774.503 767.343 774.104C767.449 773.819 767.502 773.294 767.502 772.529L767.502 770.637C766.477 772.037 765.183 772.737 763.62 772.737C761.879 772.737 760.499 772 759.482 770.527C758.685 769.363 758.286 767.915 758.286 766.181C758.286 764.009 758.809 762.348 759.854 761.201C760.9 760.054 762.2 759.48 763.755 759.48C765.358 759.48 766.68 760.184 767.722 761.592L767.722 759.773L770.932 759.773L770.932 771.406C770.932 772.936 770.806 774.079 770.554 774.836C770.302 775.593 769.948 776.187 769.492 776.618C769.036 777.05 768.428 777.388 767.667 777.632C766.906 777.876 765.944 777.998 764.78 777.998C762.583 777.998 761.024 777.621 760.105 776.869C759.185 776.116 758.725 775.162 758.725 774.006C758.725 773.892 758.729 773.754 758.737 773.591ZM761.801 765.986C761.801 767.361 762.068 768.369 762.601 769.007C763.134 769.646 763.791 769.966 764.572 769.966C765.411 769.966 766.119 769.638 766.696 768.983C767.274 768.328 767.563 767.357 767.563 766.072C767.563 764.729 767.286 763.732 766.733 763.081C766.18 762.43 765.48 762.104 764.633 762.104C763.812 762.104 763.134 762.424 762.601 763.063C762.068 763.701 761.801 764.676 761.801 765.986Z"/>
<path d="M781.833 768.611L785.251 769.184C784.812 770.438 784.118 771.392 783.17 772.047C782.222 772.702 781.036 773.03 779.612 773.03C777.357 773.03 775.689 772.293 774.607 770.82C773.752 769.64 773.325 768.151 773.325 766.352C773.325 764.204 773.886 762.521 775.009 761.305C776.133 760.088 777.553 759.48 779.27 759.48C781.198 759.48 782.72 760.117 783.835 761.39C784.95 762.664 785.483 764.615 785.434 767.243L776.841 767.243C776.865 768.261 777.142 769.052 777.671 769.618C778.2 770.183 778.859 770.466 779.648 770.466C780.185 770.466 780.637 770.32 781.003 770.027C781.369 769.734 781.646 769.262 781.833 768.611ZM782.029 765.144C782.004 764.151 781.748 763.396 781.259 762.879C780.771 762.363 780.177 762.104 779.477 762.104C778.729 762.104 778.11 762.377 777.622 762.922C777.133 763.467 776.893 764.208 776.902 765.144L782.029 765.144Z"/>
</g>
<g fill="#000000" opacity="1" stroke="none" vectornator:layerName="Texte 14">
<path d="M867.777 972.737L867.777 954.841L871.39 954.841L871.39 972.737L867.777 972.737Z"/>
<path d="M874.552 959.773L877.714 959.773L877.714 961.543C878.845 960.167 880.192 959.48 881.754 959.48C882.584 959.48 883.304 959.651 883.915 959.993C884.525 960.334 885.026 960.851 885.416 961.543C885.986 960.851 886.6 960.334 887.26 959.993C887.919 959.651 888.623 959.48 889.371 959.48C890.323 959.48 891.129 959.673 891.788 960.06C892.447 960.446 892.94 961.014 893.265 961.763C893.501 962.316 893.619 963.211 893.619 964.448L893.619 972.737L890.189 972.737L890.189 965.327C890.189 964.041 890.071 963.211 889.835 962.837C889.518 962.348 889.03 962.104 888.37 962.104C887.89 962.104 887.439 962.251 887.015 962.544C886.592 962.837 886.287 963.266 886.1 963.832C885.913 964.397 885.819 965.29 885.819 966.511L885.819 972.737L882.389 972.737L882.389 965.632C882.389 964.371 882.328 963.557 882.206 963.191C882.084 962.825 881.895 962.552 881.638 962.373C881.382 962.194 881.034 962.104 880.594 962.104C880.065 962.104 879.589 962.247 879.166 962.532C878.743 962.816 878.44 963.227 878.257 963.764C878.074 964.302 877.982 965.193 877.982 966.438L877.982 972.737L874.552 972.737L874.552 959.773Z"/>
<path d="M899.601 963.728L896.488 963.166C896.838 961.913 897.44 960.985 898.295 960.383C899.149 959.781 900.419 959.48 902.103 959.48C903.633 959.48 904.773 959.661 905.521 960.023C906.27 960.385 906.797 960.845 907.102 961.402C907.407 961.96 907.56 962.983 907.56 964.472L907.523 968.476C907.523 969.616 907.578 970.456 907.688 970.997C907.798 971.538 908.003 972.118 908.304 972.737L904.911 972.737C904.821 972.509 904.711 972.171 904.581 971.723C904.524 971.52 904.484 971.386 904.459 971.321C903.873 971.89 903.247 972.318 902.579 972.602C901.912 972.887 901.2 973.03 900.443 973.03C899.108 973.03 898.057 972.667 897.288 971.943C896.519 971.219 896.134 970.303 896.134 969.197C896.134 968.464 896.309 967.811 896.659 967.237C897.009 966.664 897.499 966.224 898.13 965.919C898.761 965.614 899.67 965.347 900.858 965.119C902.461 964.818 903.572 964.538 904.191 964.277L904.191 963.935C904.191 963.276 904.028 962.806 903.702 962.525C903.377 962.245 902.762 962.104 901.859 962.104C901.249 962.104 900.773 962.224 900.431 962.464C900.089 962.705 899.812 963.126 899.601 963.728ZM904.191 966.511C903.751 966.658 903.055 966.833 902.103 967.036C901.151 967.239 900.529 967.439 900.236 967.634C899.788 967.951 899.564 968.354 899.564 968.843C899.564 969.323 899.743 969.738 900.101 970.088C900.459 970.438 900.915 970.613 901.468 970.613C902.087 970.613 902.677 970.409 903.239 970.002C903.654 969.693 903.926 969.315 904.056 968.867C904.146 968.574 904.191 968.017 904.191 967.195L904.191 966.511Z"/>
<path d="M910.624 973.591L914.542 974.067C914.607 974.523 914.758 974.836 914.994 975.007C915.319 975.251 915.832 975.373 916.532 975.373C917.427 975.373 918.099 975.239 918.546 974.971C918.847 974.792 919.075 974.503 919.23 974.104C919.336 973.819 919.388 973.294 919.388 972.529L919.388 970.637C918.363 972.037 917.069 972.737 915.507 972.737C913.765 972.737 912.386 972 911.368 970.527C910.571 969.363 910.172 967.915 910.172 966.181C910.172 964.009 910.695 962.348 911.741 961.201C912.786 960.054 914.086 959.48 915.641 959.48C917.244 959.48 918.566 960.184 919.608 961.592L919.608 959.773L922.819 959.773L922.819 971.406C922.819 972.936 922.692 974.079 922.44 974.836C922.188 975.593 921.834 976.187 921.378 976.618C920.922 977.05 920.314 977.388 919.553 977.632C918.792 977.876 917.83 977.998 916.666 977.998C914.469 977.998 912.911 977.621 911.991 976.869C911.071 976.116 910.612 975.162 910.612 974.006C910.612 973.892 910.616 973.754 910.624 973.591ZM913.688 965.986C913.688 967.361 913.954 968.369 914.487 969.007C915.02 969.646 915.677 969.966 916.459 969.966C917.297 969.966 918.005 969.638 918.583 968.983C919.161 968.328 919.449 967.357 919.449 966.072C919.449 964.729 919.173 963.732 918.619 963.081C918.066 962.43 917.366 962.104 916.52 962.104C915.698 962.104 915.02 962.424 914.487 963.063C913.954 963.701 913.688 964.676 913.688 965.986Z"/>
<path d="M933.719 968.611L937.137 969.184C936.698 970.438 936.004 971.392 935.056 972.047C934.108 972.702 932.922 973.03 931.498 973.03C929.244 973.03 927.575 972.293 926.493 970.82C925.638 969.64 925.211 968.151 925.211 966.352C925.211 964.204 925.773 962.521 926.896 961.305C928.019 960.088 929.439 959.48 931.156 959.48C933.085 959.48 934.607 960.117 935.721 961.39C936.836 962.664 937.369 964.615 937.321 967.243L928.727 967.243C928.751 968.261 929.028 969.052 929.557 969.618C930.086 970.183 930.745 970.466 931.534 970.466C932.072 970.466 932.523 970.32 932.889 970.027C933.256 969.734 933.532 969.262 933.719 968.611ZM933.915 965.144C933.89 964.151 933.634 963.396 933.146 962.879C932.657 962.363 932.063 962.104 931.364 962.104C930.615 962.104 929.996 962.377 929.508 962.922C929.02 963.467 928.78 964.208 928.788 965.144L933.915 965.144Z"/>
</g>
<g fill="#000000" opacity="1" stroke="none" vectornator:layerName="Texte 15">
<path d="M715.891 1197.28L715.891 1179.38L719.504 1179.38L719.504 1197.28L715.891 1197.28Z"/>
<path d="M722.666 1184.32L725.827 1184.32L725.827 1186.09C726.959 1184.71 728.305 1184.02 729.868 1184.02C730.698 1184.02 731.418 1184.19 732.029 1184.53C732.639 1184.88 733.139 1185.39 733.53 1186.09C734.1 1185.39 734.714 1184.88 735.373 1184.53C736.032 1184.19 736.736 1184.02 737.485 1184.02C738.437 1184.02 739.243 1184.22 739.902 1184.6C740.561 1184.99 741.054 1185.56 741.379 1186.3C741.615 1186.86 741.733 1187.75 741.733 1188.99L741.733 1197.28L738.303 1197.28L738.303 1189.87C738.303 1188.58 738.185 1187.75 737.949 1187.38C737.632 1186.89 737.143 1186.65 736.484 1186.65C736.004 1186.65 735.552 1186.79 735.129 1187.09C734.706 1187.38 734.401 1187.81 734.214 1188.37C734.026 1188.94 733.933 1189.83 733.933 1191.05L733.933 1197.28L730.503 1197.28L730.503 1190.17C730.503 1188.91 730.442 1188.1 730.32 1187.73C730.197 1187.37 730.008 1187.09 729.752 1186.92C729.496 1186.74 729.148 1186.65 728.708 1186.65C728.179 1186.65 727.703 1186.79 727.28 1187.07C726.857 1187.36 726.554 1187.77 726.371 1188.31C726.187 1188.84 726.096 1189.74 726.096 1190.98L726.096 1197.28L722.666 1197.28L722.666 1184.32Z"/>
<path d="M747.715 1188.27L744.602 1187.71C744.952 1186.46 745.554 1185.53 746.408 1184.93C747.263 1184.32 748.532 1184.02 750.217 1184.02C751.747 1184.02 752.886 1184.2 753.635 1184.57C754.384 1184.93 754.911 1185.39 755.216 1185.94C755.521 1186.5 755.674 1187.53 755.674 1189.01L755.637 1193.02C755.637 1194.16 755.692 1195 755.802 1195.54C755.912 1196.08 756.117 1196.66 756.418 1197.28L753.025 1197.28C752.935 1197.05 752.825 1196.71 752.695 1196.27C752.638 1196.06 752.597 1195.93 752.573 1195.86C751.987 1196.43 751.36 1196.86 750.693 1197.14C750.026 1197.43 749.314 1197.57 748.557 1197.57C747.222 1197.57 746.17 1197.21 745.401 1196.49C744.632 1195.76 744.248 1194.85 744.248 1193.74C744.248 1193.01 744.423 1192.35 744.773 1191.78C745.123 1191.21 745.613 1190.77 746.244 1190.46C746.874 1190.16 747.784 1189.89 748.972 1189.66C750.575 1189.36 751.686 1189.08 752.304 1188.82L752.304 1188.48C752.304 1187.82 752.142 1187.35 751.816 1187.07C751.491 1186.79 750.876 1186.65 749.973 1186.65C749.362 1186.65 748.886 1186.77 748.545 1187.01C748.203 1187.25 747.926 1187.67 747.715 1188.27ZM752.304 1191.05C751.865 1191.2 751.169 1191.37 750.217 1191.58C749.265 1191.78 748.642 1191.98 748.349 1192.18C747.902 1192.49 747.678 1192.9 747.678 1193.38C747.678 1193.87 747.857 1194.28 748.215 1194.63C748.573 1194.98 749.029 1195.15 749.582 1195.15C750.201 1195.15 750.791 1194.95 751.352 1194.54C751.767 1194.24 752.04 1193.86 752.17 1193.41C752.26 1193.12 752.304 1192.56 752.304 1191.74L752.304 1191.05Z"/>
<path d="M758.737 1198.13L762.656 1198.61C762.721 1199.07 762.872 1199.38 763.108 1199.55C763.433 1199.79 763.946 1199.92 764.646 1199.92C765.541 1199.92 766.212 1199.78 766.66 1199.51C766.961 1199.33 767.189 1199.04 767.343 1198.65C767.449 1198.36 767.502 1197.84 767.502 1197.07L767.502 1195.18C766.477 1196.58 765.183 1197.28 763.62 1197.28C761.879 1197.28 760.499 1196.54 759.482 1195.07C758.685 1193.91 758.286 1192.46 758.286 1190.72C758.286 1188.55 758.809 1186.89 759.854 1185.74C760.9 1184.6 762.2 1184.02 763.755 1184.02C765.358 1184.02 766.68 1184.73 767.722 1186.13L767.722 1184.32L770.932 1184.32L770.932 1195.95C770.932 1197.48 770.806 1198.62 770.554 1199.38C770.302 1200.14 769.948 1200.73 769.492 1201.16C769.036 1201.59 768.428 1201.93 767.667 1202.17C766.906 1202.42 765.944 1202.54 764.78 1202.54C762.583 1202.54 761.024 1202.16 760.105 1201.41C759.185 1200.66 758.725 1199.7 758.725 1198.55C758.725 1198.43 758.729 1198.3 758.737 1198.13ZM761.801 1190.53C761.801 1191.9 762.068 1192.91 762.601 1193.55C763.134 1194.19 763.791 1194.51 764.572 1194.51C765.411 1194.51 766.119 1194.18 766.696 1193.53C767.274 1192.87 767.563 1191.9 767.563 1190.61C767.563 1189.27 767.286 1188.27 766.733 1187.62C766.18 1186.97 765.48 1186.65 764.633 1186.65C763.812 1186.65 763.134 1186.97 762.601 1187.6C762.068 1188.24 761.801 1189.22 761.801 1190.53Z"/>
<path d="M781.833 1193.15L785.251 1193.73C784.812 1194.98 784.118 1195.93 783.17 1196.59C782.222 1197.24 781.036 1197.57 779.612 1197.57C777.357 1197.57 775.689 1196.84 774.607 1195.36C773.752 1194.18 773.325 1192.69 773.325 1190.89C773.325 1188.75 773.886 1187.06 775.009 1185.85C776.133 1184.63 777.553 1184.02 779.27 1184.02C781.198 1184.02 782.72 1184.66 783.835 1185.93C784.95 1187.21 785.483 1189.16 785.434 1191.79L776.841 1191.79C776.865 1192.8 777.142 1193.59 777.671 1194.16C778.2 1194.73 778.859 1195.01 779.648 1195.01C780.185 1195.01 780.637 1194.86 781.003 1194.57C781.369 1194.28 781.646 1193.8 781.833 1193.15ZM782.029 1189.69C782.004 1188.69 781.748 1187.94 781.259 1187.42C780.771 1186.91 780.177 1186.65 779.477 1186.65C778.729 1186.65 778.11 1186.92 777.622 1187.46C777.133 1188.01 776.893 1188.75 776.902 1189.69L782.029 1189.69Z"/>
</g>
<g fill="#000000" opacity="1" stroke="none" vectornator:layerName="Texte 16">
<path d="M505.582 1374.74L505.582 1356.84L509.196 1356.84L509.196 1374.74L505.582 1374.74Z"/>
<path d="M512.357 1361.77L515.519 1361.77L515.519 1363.54C516.65 1362.17 517.997 1361.48 519.559 1361.48C520.389 1361.48 521.11 1361.65 521.72 1361.99C522.33 1362.33 522.831 1362.85 523.221 1363.54C523.791 1362.85 524.406 1362.33 525.065 1361.99C525.724 1361.65 526.428 1361.48 527.177 1361.48C528.129 1361.48 528.934 1361.67 529.594 1362.06C530.253 1362.45 530.745 1363.01 531.071 1363.76C531.307 1364.32 531.425 1365.21 531.425 1366.45L531.425 1374.74L527.994 1374.74L527.994 1367.33C527.994 1366.04 527.876 1365.21 527.64 1364.84C527.323 1364.35 526.835 1364.1 526.176 1364.1C525.695 1364.1 525.244 1364.25 524.821 1364.54C524.397 1364.84 524.092 1365.27 523.905 1365.83C523.718 1366.4 523.624 1367.29 523.624 1368.51L523.624 1374.74L520.194 1374.74L520.194 1367.63C520.194 1366.37 520.133 1365.56 520.011 1365.19C519.889 1364.82 519.7 1364.55 519.443 1364.37C519.187 1364.19 518.839 1364.1 518.4 1364.1C517.871 1364.1 517.395 1364.25 516.971 1364.53C516.548 1364.82 516.245 1365.23 516.062 1365.76C515.879 1366.3 515.787 1367.19 515.787 1368.44L515.787 1374.74L512.357 1374.74L512.357 1361.77Z"/>
<path d="M537.406 1365.73L534.293 1365.17C534.643 1363.91 535.245 1362.99 536.1 1362.38C536.954 1361.78 538.224 1361.48 539.908 1361.48C541.438 1361.48 542.578 1361.66 543.326 1362.02C544.075 1362.39 544.602 1362.84 544.907 1363.4C545.212 1363.96 545.365 1364.98 545.365 1366.47L545.328 1370.48C545.328 1371.62 545.383 1372.46 545.493 1373C545.603 1373.54 545.809 1374.12 546.11 1374.74L542.716 1374.74C542.627 1374.51 542.517 1374.17 542.386 1373.72C542.33 1373.52 542.289 1373.39 542.264 1373.32C541.678 1373.89 541.052 1374.32 540.385 1374.6C539.717 1374.89 539.005 1375.03 538.248 1375.03C536.914 1375.03 535.862 1374.67 535.093 1373.94C534.324 1373.22 533.939 1372.3 533.939 1371.2C533.939 1370.46 534.114 1369.81 534.464 1369.24C534.814 1368.66 535.304 1368.22 535.935 1367.92C536.566 1367.61 537.475 1367.35 538.663 1367.12C540.267 1366.82 541.377 1366.54 541.996 1366.28L541.996 1365.94C541.996 1365.28 541.833 1364.81 541.508 1364.53C541.182 1364.24 540.568 1364.1 539.664 1364.1C539.054 1364.1 538.578 1364.22 538.236 1364.46C537.894 1364.7 537.618 1365.13 537.406 1365.73ZM541.996 1368.51C541.556 1368.66 540.861 1368.83 539.908 1369.04C538.956 1369.24 538.334 1369.44 538.041 1369.63C537.593 1369.95 537.369 1370.35 537.369 1370.84C537.369 1371.32 537.548 1371.74 537.906 1372.09C538.265 1372.44 538.72 1372.61 539.274 1372.61C539.892 1372.61 540.482 1372.41 541.044 1372C541.459 1371.69 541.731 1371.31 541.862 1370.87C541.951 1370.57 541.996 1370.02 541.996 1369.19L541.996 1368.51Z"/>
<path d="M548.429 1375.59L552.347 1376.07C552.413 1376.52 552.563 1376.84 552.799 1377.01C553.125 1377.25 553.637 1377.37 554.337 1377.37C555.232 1377.37 555.904 1377.24 556.351 1376.97C556.652 1376.79 556.88 1376.5 557.035 1376.1C557.141 1375.82 557.194 1375.29 557.194 1374.53L557.194 1372.64C556.168 1374.04 554.874 1374.74 553.312 1374.74C551.57 1374.74 550.191 1374 549.174 1372.53C548.376 1371.36 547.977 1369.91 547.977 1368.18C547.977 1366.01 548.5 1364.35 549.546 1363.2C550.592 1362.05 551.892 1361.48 553.446 1361.48C555.049 1361.48 556.372 1362.18 557.413 1363.59L557.413 1361.77L560.624 1361.77L560.624 1373.41C560.624 1374.94 560.498 1376.08 560.245 1376.84C559.993 1377.59 559.639 1378.19 559.183 1378.62C558.728 1379.05 558.119 1379.39 557.358 1379.63C556.597 1379.88 555.635 1380 554.471 1380C552.274 1380 550.716 1379.62 549.796 1378.87C548.877 1378.12 548.417 1377.16 548.417 1376.01C548.417 1375.89 548.421 1375.75 548.429 1375.59ZM551.493 1367.99C551.493 1369.36 551.759 1370.37 552.292 1371.01C552.826 1371.65 553.483 1371.97 554.264 1371.97C555.102 1371.97 555.81 1371.64 556.388 1370.98C556.966 1370.33 557.255 1369.36 557.255 1368.07C557.255 1366.73 556.978 1365.73 556.425 1365.08C555.871 1364.43 555.171 1364.1 554.325 1364.1C553.503 1364.1 552.826 1364.42 552.292 1365.06C551.759 1365.7 551.493 1366.68 551.493 1367.99Z"/>
<path d="M571.525 1370.61L574.943 1371.18C574.503 1372.44 573.809 1373.39 572.861 1374.05C571.913 1374.7 570.727 1375.03 569.303 1375.03C567.049 1375.03 565.38 1374.29 564.298 1372.82C563.444 1371.64 563.016 1370.15 563.016 1368.35C563.016 1366.2 563.578 1364.52 564.701 1363.3C565.824 1362.09 567.244 1361.48 568.961 1361.48C570.89 1361.48 572.412 1362.12 573.527 1363.39C574.642 1364.66 575.175 1366.61 575.126 1369.24L566.532 1369.24C566.556 1370.26 566.833 1371.05 567.362 1371.62C567.891 1372.18 568.55 1372.47 569.34 1372.47C569.877 1372.47 570.328 1372.32 570.695 1372.03C571.061 1371.73 571.337 1371.26 571.525 1370.61ZM571.72 1367.14C571.696 1366.15 571.439 1365.4 570.951 1364.88C570.463 1364.36 569.869 1364.1 569.169 1364.1C568.42 1364.1 567.802 1364.38 567.313 1364.92C566.825 1365.47 566.585 1366.21 566.593 1367.14L571.72 1367.14Z"/>
</g>
<g fill="#000000" opacity="1" stroke="none" vectornator:layerName="Texte 17">
<path d="M300.732 1197.28L300.732 1179.38L304.345 1179.38L304.345 1197.28L300.732 1197.28Z"/>
<path d="M307.507 1184.32L310.668 1184.32L310.668 1186.09C311.799 1184.71 313.146 1184.02 314.709 1184.02C315.539 1184.02 316.259 1184.19 316.869 1184.53C317.48 1184.88 317.98 1185.39 318.371 1186.09C318.941 1185.39 319.555 1184.88 320.214 1184.53C320.873 1184.19 321.577 1184.02 322.326 1184.02C323.278 1184.02 324.084 1184.22 324.743 1184.6C325.402 1184.99 325.895 1185.56 326.22 1186.3C326.456 1186.86 326.574 1187.75 326.574 1188.99L326.574 1197.28L323.144 1197.28L323.144 1189.87C323.144 1188.58 323.026 1187.75 322.79 1187.38C322.473 1186.89 321.984 1186.65 321.325 1186.65C320.845 1186.65 320.393 1186.79 319.97 1187.09C319.547 1187.38 319.242 1187.81 319.055 1188.37C318.867 1188.94 318.774 1189.83 318.774 1191.05L318.774 1197.28L315.344 1197.28L315.344 1190.17C315.344 1188.91 315.283 1188.1 315.16 1187.73C315.038 1187.37 314.849 1187.09 314.593 1186.92C314.337 1186.74 313.989 1186.65 313.549 1186.65C313.02 1186.65 312.544 1186.79 312.121 1187.07C311.698 1187.36 311.395 1187.77 311.212 1188.31C311.028 1188.84 310.937 1189.74 310.937 1190.98L310.937 1197.28L307.507 1197.28L307.507 1184.32Z"/>
<path d="M332.556 1188.27L329.443 1187.71C329.793 1186.46 330.395 1185.53 331.249 1184.93C332.104 1184.32 333.373 1184.02 335.058 1184.02C336.588 1184.02 337.727 1184.2 338.476 1184.57C339.225 1184.93 339.752 1185.39 340.057 1185.94C340.362 1186.5 340.515 1187.53 340.515 1189.01L340.478 1193.02C340.478 1194.16 340.533 1195 340.643 1195.54C340.753 1196.08 340.958 1196.66 341.259 1197.28L337.866 1197.28C337.776 1197.05 337.666 1196.71 337.536 1196.27C337.479 1196.06 337.438 1195.93 337.414 1195.86C336.828 1196.43 336.201 1196.86 335.534 1197.14C334.867 1197.43 334.155 1197.57 333.398 1197.57C332.063 1197.57 331.011 1197.21 330.242 1196.49C329.473 1195.76 329.089 1194.85 329.089 1193.74C329.089 1193.01 329.264 1192.35 329.614 1191.78C329.964 1191.21 330.454 1190.77 331.085 1190.46C331.715 1190.16 332.625 1189.89 333.813 1189.66C335.416 1189.36 336.527 1189.08 337.145 1188.82L337.145 1188.48C337.145 1187.82 336.983 1187.35 336.657 1187.07C336.332 1186.79 335.717 1186.65 334.814 1186.65C334.203 1186.65 333.727 1186.77 333.386 1187.01C333.044 1187.25 332.767 1187.67 332.556 1188.27ZM337.145 1191.05C336.706 1191.2 336.01 1191.37 335.058 1191.58C334.106 1191.78 333.483 1191.98 333.19 1192.18C332.743 1192.49 332.519 1192.9 332.519 1193.38C332.519 1193.87 332.698 1194.28 333.056 1194.63C333.414 1194.98 333.87 1195.15 334.423 1195.15C335.042 1195.15 335.632 1194.95 336.193 1194.54C336.608 1194.24 336.881 1193.86 337.011 1193.41C337.101 1193.12 337.145 1192.56 337.145 1191.74L337.145 1191.05Z"/>
<path d="M343.578 1198.13L347.497 1198.61C347.562 1199.07 347.713 1199.38 347.949 1199.55C348.274 1199.79 348.787 1199.92 349.487 1199.92C350.382 1199.92 351.053 1199.78 351.501 1199.51C351.802 1199.33 352.03 1199.04 352.184 1198.65C352.29 1198.36 352.343 1197.84 352.343 1197.07L352.343 1195.18C351.318 1196.58 350.024 1197.28 348.461 1197.28C346.72 1197.28 345.34 1196.54 344.323 1195.07C343.526 1193.91 343.127 1192.46 343.127 1190.72C343.127 1188.55 343.65 1186.89 344.695 1185.74C345.741 1184.6 347.041 1184.02 348.596 1184.02C350.199 1184.02 351.521 1184.73 352.563 1186.13L352.563 1184.32L355.773 1184.32L355.773 1195.95C355.773 1197.48 355.647 1198.62 355.395 1199.38C355.143 1200.14 354.789 1200.73 354.333 1201.16C353.877 1201.59 353.269 1201.93 352.508 1202.17C351.747 1202.42 350.785 1202.54 349.621 1202.54C347.424 1202.54 345.865 1202.16 344.946 1201.41C344.026 1200.66 343.566 1199.7 343.566 1198.55C343.566 1198.43 343.57 1198.3 343.578 1198.13ZM346.642 1190.53C346.642 1191.9 346.909 1192.91 347.442 1193.55C347.975 1194.19 348.632 1194.51 349.413 1194.51C350.252 1194.51 350.96 1194.18 351.537 1193.53C352.115 1192.87 352.404 1191.9 352.404 1190.61C352.404 1189.27 352.127 1188.27 351.574 1187.62C351.021 1186.97 350.321 1186.65 349.474 1186.65C348.653 1186.65 347.975 1186.97 347.442 1187.6C346.909 1188.24 346.642 1189.22 346.642 1190.53Z"/>
<path d="M366.674 1193.15L370.092 1193.73C369.653 1194.98 368.959 1195.93 368.011 1196.59C367.063 1197.24 365.877 1197.57 364.452 1197.57C362.198 1197.57 360.53 1196.84 359.448 1195.36C358.593 1194.18 358.166 1192.69 358.166 1190.89C358.166 1188.75 358.727 1187.06 359.85 1185.85C360.973 1184.63 362.394 1184.02 364.111 1184.02C366.039 1184.02 367.561 1184.66 368.676 1185.93C369.791 1187.21 370.324 1189.16 370.275 1191.79L361.681 1191.79C361.706 1192.8 361.983 1193.59 362.512 1194.16C363.041 1194.73 363.7 1195.01 364.489 1195.01C365.026 1195.01 365.478 1194.86 365.844 1194.57C366.21 1194.28 366.487 1193.8 366.674 1193.15ZM366.869 1189.69C366.845 1188.69 366.589 1187.94 366.1 1187.42C365.612 1186.91 365.018 1186.65 364.318 1186.65C363.57 1186.65 362.951 1186.92 362.463 1187.46C361.974 1188.01 361.734 1188.75 361.743 1189.69L366.869 1189.69Z"/>
</g>
<g fill="#000000" opacity="1" stroke="none" vectornator:layerName="Texte 10">
<path d="M126.209 963.531L126.209 945.636L129.822 945.636L129.822 963.531L126.209 963.531Z"/>
<path d="M132.984 950.568L136.145 950.568L136.145 952.338C137.276 950.962 138.623 950.275 140.186 950.275C141.016 950.275 141.736 950.445 142.346 950.787C142.957 951.129 143.457 951.646 143.848 952.338C144.417 951.646 145.032 951.129 145.691 950.787C146.35 950.445 147.054 950.275 147.803 950.275C148.755 950.275 149.561 950.468 150.22 950.854C150.879 951.241 151.371 951.809 151.697 952.557C151.933 953.111 152.051 954.006 152.051 955.243L152.051 963.531L148.621 963.531L148.621 956.122C148.621 954.836 148.503 954.006 148.267 953.631C147.949 953.143 147.461 952.899 146.802 952.899C146.322 952.899 145.87 953.046 145.447 953.339C145.024 953.631 144.719 954.061 144.531 954.626C144.344 955.192 144.251 956.085 144.251 957.306L144.251 963.531L140.82 963.531L140.82 956.427C140.82 955.165 140.759 954.352 140.637 953.985C140.515 953.619 140.326 953.347 140.07 953.168C139.813 952.989 139.465 952.899 139.026 952.899C138.497 952.899 138.021 953.041 137.598 953.326C137.175 953.611 136.872 954.022 136.688 954.559C136.505 955.096 136.414 955.987 136.414 957.233L136.414 963.531L132.984 963.531L132.984 950.568Z"/>
<path d="M158.032 954.523L154.92 953.961C155.27 952.708 155.872 951.78 156.726 951.178C157.581 950.576 158.85 950.275 160.535 950.275C162.065 950.275 163.204 950.456 163.953 950.818C164.702 951.18 165.228 951.64 165.534 952.197C165.839 952.755 165.991 953.778 165.991 955.267L165.955 959.271C165.955 960.41 166.01 961.251 166.12 961.792C166.229 962.333 166.435 962.913 166.736 963.531L163.342 963.531C163.253 963.304 163.143 962.966 163.013 962.518C162.956 962.315 162.915 962.18 162.891 962.115C162.305 962.685 161.678 963.112 161.011 963.397C160.344 963.682 159.632 963.824 158.875 963.824C157.54 963.824 156.488 963.462 155.719 962.738C154.95 962.014 154.566 961.098 154.566 959.991C154.566 959.259 154.741 958.606 155.09 958.032C155.44 957.458 155.931 957.019 156.561 956.714C157.192 956.409 158.102 956.142 159.29 955.914C160.893 955.613 162.004 955.332 162.622 955.072L162.622 954.73C162.622 954.071 162.459 953.601 162.134 953.32C161.808 953.039 161.194 952.899 160.291 952.899C159.68 952.899 159.204 953.019 158.862 953.259C158.521 953.499 158.244 953.92 158.032 954.523ZM162.622 957.306C162.183 957.452 161.487 957.627 160.535 957.831C159.583 958.034 158.96 958.234 158.667 958.429C158.22 958.746 157.996 959.149 157.996 959.637C157.996 960.117 158.175 960.533 158.533 960.882C158.891 961.232 159.347 961.407 159.9 961.407C160.519 961.407 161.109 961.204 161.67 960.797C162.085 960.488 162.358 960.109 162.488 959.662C162.577 959.369 162.622 958.811 162.622 957.989L162.622 957.306Z"/>
<path d="M169.055 964.386L172.974 964.862C173.039 965.318 173.189 965.631 173.425 965.802C173.751 966.046 174.264 966.168 174.964 966.168C175.859 966.168 176.53 966.034 176.978 965.765C177.279 965.586 177.507 965.297 177.661 964.899C177.767 964.614 177.82 964.089 177.82 963.324L177.82 961.432C176.795 962.832 175.501 963.531 173.938 963.531C172.197 963.531 170.817 962.795 169.8 961.322C169.002 960.158 168.604 958.71 168.604 956.976C168.604 954.803 169.127 953.143 170.172 951.996C171.218 950.848 172.518 950.275 174.072 950.275C175.676 950.275 176.998 950.978 178.04 952.386L178.04 950.568L181.25 950.568L181.25 962.201C181.25 963.731 181.124 964.874 180.872 965.631C180.619 966.388 180.265 966.982 179.81 967.413C179.354 967.845 178.746 968.182 177.985 968.426C177.224 968.671 176.262 968.793 175.098 968.793C172.901 968.793 171.342 968.416 170.423 967.663C169.503 966.911 169.043 965.957 169.043 964.801C169.043 964.687 169.047 964.549 169.055 964.386ZM172.119 956.781C172.119 958.156 172.386 959.163 172.919 959.802C173.452 960.441 174.109 960.76 174.89 960.76C175.729 960.76 176.437 960.433 177.014 959.778C177.592 959.123 177.881 958.152 177.881 956.866C177.881 955.524 177.604 954.527 177.051 953.876C176.498 953.225 175.798 952.899 174.951 952.899C174.129 952.899 173.452 953.218 172.919 953.857C172.386 954.496 172.119 955.471 172.119 956.781Z"/>
<path d="M192.151 959.405L195.569 959.979C195.13 961.232 194.436 962.187 193.488 962.842C192.54 963.497 191.354 963.824 189.929 963.824C187.675 963.824 186.007 963.088 184.924 961.615C184.07 960.435 183.643 958.946 183.643 957.147C183.643 954.999 184.204 953.316 185.327 952.099C186.45 950.883 187.87 950.275 189.588 950.275C191.516 950.275 193.038 950.911 194.153 952.185C195.268 953.459 195.801 955.41 195.752 958.038L187.158 958.038C187.183 959.055 187.459 959.847 187.988 960.412C188.517 960.978 189.177 961.261 189.966 961.261C190.503 961.261 190.955 961.114 191.321 960.821C191.687 960.528 191.964 960.056 192.151 959.405ZM192.346 955.939C192.322 954.946 192.066 954.191 191.577 953.674C191.089 953.157 190.495 952.899 189.795 952.899C189.046 952.899 188.428 953.172 187.94 953.717C187.451 954.262 187.211 955.003 187.219 955.939L192.346 955.939Z"/>
</g>
<path d="M237.036 396.405L850.309 396.405L850.309 496.599L237.036 496.599L237.036 396.405Z" fill="none" opacity="1" stroke="#000000" stroke-linecap="butt" stroke-linejoin="round" stroke-width="5.07805" vectornator:layerName="Rectangle 22"/>
<g fill="#000000" opacity="1" stroke="none" vectornator:layerName="Texte 18">
<path d="M503.979 465.112L503.979 429.614L511.206 429.614L511.206 459.082L529.174 459.082L529.174 465.112L503.979 465.112Z"/>
<path d="M534.277 435.668L534.277 429.321L541.137 429.321L541.137 435.668L534.277 435.668ZM534.277 465.112L534.277 439.184L541.137 439.184L541.137 465.112L534.277 465.112Z"/>
<path d="M545.751 457.714L552.636 456.665C552.929 457.999 553.523 459.012 554.418 459.704C555.314 460.396 556.567 460.742 558.178 460.742C559.952 460.742 561.287 460.416 562.182 459.765C562.784 459.309 563.085 458.699 563.085 457.934C563.085 457.413 562.923 456.982 562.597 456.64C562.255 456.315 561.49 456.013 560.302 455.737C554.768 454.516 551.261 453.401 549.78 452.392C547.729 450.992 546.704 449.047 546.704 446.557C546.704 444.311 547.591 442.423 549.365 440.893C551.139 439.363 553.889 438.598 557.617 438.598C561.165 438.598 563.802 439.176 565.527 440.332C567.252 441.487 568.44 443.196 569.091 445.458L562.622 446.655C562.345 445.646 561.82 444.873 561.047 444.335C560.274 443.798 559.171 443.53 557.739 443.53C555.932 443.53 554.638 443.782 553.857 444.287C553.336 444.645 553.076 445.109 553.076 445.678C553.076 446.166 553.304 446.582 553.759 446.923C554.378 447.379 556.514 448.022 560.168 448.852C563.822 449.682 566.373 450.699 567.822 451.904C569.254 453.124 569.97 454.825 569.97 457.006C569.97 459.383 568.977 461.425 566.992 463.134C565.006 464.843 562.068 465.698 558.178 465.698C554.646 465.698 551.851 464.982 549.792 463.549C547.733 462.117 546.386 460.172 545.751 457.714Z"/>
<path d="M587.866 439.184L587.866 444.653L583.178 444.653L583.178 455.102C583.178 457.218 583.223 458.451 583.312 458.801C583.402 459.151 583.605 459.44 583.923 459.667C584.24 459.895 584.627 460.009 585.083 460.009C585.717 460.009 586.637 459.79 587.841 459.35L588.427 464.672C586.832 465.356 585.026 465.698 583.007 465.698C581.77 465.698 580.655 465.49 579.663 465.075C578.67 464.66 577.941 464.123 577.478 463.464C577.014 462.805 576.692 461.914 576.513 460.791C576.367 459.993 576.293 458.382 576.293 455.957L576.293 444.653L573.144 444.653L573.144 439.184L576.293 439.184L576.293 434.033L583.178 430.029L583.178 439.184L587.866 439.184Z"/>
<path d="M607.641 456.86L614.477 458.007C613.598 460.514 612.211 462.422 610.314 463.732C608.418 465.043 606.046 465.698 603.198 465.698C598.689 465.698 595.353 464.225 593.188 461.279C591.479 458.919 590.625 455.94 590.625 452.343C590.625 448.046 591.748 444.681 593.994 442.248C596.24 439.815 599.08 438.598 602.514 438.598C606.372 438.598 609.415 439.872 611.645 442.419C613.875 444.966 614.941 448.868 614.843 454.125L597.656 454.125C597.705 456.16 598.258 457.743 599.316 458.874C600.374 460.005 601.692 460.571 603.271 460.571C604.345 460.571 605.249 460.278 605.981 459.692C606.713 459.106 607.267 458.162 607.641 456.86ZM608.032 449.926C607.983 447.941 607.47 446.431 606.494 445.397C605.517 444.364 604.329 443.847 602.929 443.847C601.432 443.847 600.195 444.392 599.218 445.483C598.242 446.573 597.762 448.055 597.778 449.926L608.032 449.926Z"/>
</g>
</g>
</svg>
