<?xml version="1.0" encoding="UTF-8" standalone="no"?>
<!DOCTYPE svg PUBLIC "-//W3C//DTD SVG 1.1//EN" "http://www.w3.org/Graphics/SVG/1.1/DTD/svg11.dtd">
<!-- Created with Vectornator (http://vectornator.io/) -->
<svg height="100%" stroke-miterlimit="10" style="fill-rule:nonzero;clip-rule:evenodd;stroke-linecap:round;stroke-linejoin:round;" version="1.1" viewBox="0 0 1080 1675" width="100%" xml:space="preserve" xmlns="http://www.w3.org/2000/svg" xmlns:vectornator="http://vectornator.io" xmlns:xlink="http://www.w3.org/1999/xlink">
<defs/>
<path d="M0 0L1080 0L1080 1675L0 1675L0 0Z" fill="#ffffff" fill-rule="nonzero" opacity="1" stroke="none"/>
<g id="Calque-1" vectornator:layerName="Calque 1">
<path d="M40 40L1040 40L1040 120L40 120L40 40Z" fill="none" opacity="1" stroke="#000000" stroke-linecap="butt" stroke-linejoin="round" stroke-width="5.07805" vectornator:layerName="Rectangle 1"/>
<path d="M40 165L1040 165L1040 235L40 235L40 165Z" fill="none" opacity="1" stroke="#000000" stroke-linecap="butt" stroke-linejoin="round" stroke-width="5.07805" vectornator:layerName="Rectangle 5"/>
<g fill="#000000" opacity="1" stroke="none" vectornator:layerName="Texte 4">
<path d="M522.971 216.5L522.971 186.764L512.351 186.764L512.351 180.709L540.793 180.709L540.793 186.764L530.198 186.764L530.198 216.5L522.971 216.5Z"/>
<path d="M544.504 187.057L544.504 180.709L551.365 180.709L551.365 187.057L544.504 187.057ZM544.504 216.5L544.504 190.572L551.365 190.572L551.365 216.5L544.504 216.5Z"/>
<path d="M570.286 190.572L570.286 196.041L565.598 196.041L565.598 206.49C565.598 208.606 565.643 209.839 565.732 210.189C565.822 210.539 566.025 210.828 566.343 211.056C566.66 211.284 567.047 211.397 567.502 211.397C568.137 211.397 569.057 211.178 570.261 210.738L570.847 216.061C569.252 216.744 567.445 217.086 565.427 217.086C564.19 217.086 563.075 216.878 562.083 216.463C561.09 216.048 560.361 215.511 559.897 214.852C559.434 214.193 559.112 213.302 558.933 212.179C558.787 211.381 558.713 209.77 558.713 207.345L558.713 196.041L555.564 196.041L555.564 190.572L558.713 190.572L558.713 185.421L565.598 181.417L565.598 190.572L570.286 190.572Z"/>
<path d="M581.614 216.5L574.753 216.5L574.753 190.572L581.125 190.572L581.125 194.259C582.216 192.517 583.197 191.37 584.067 190.816C584.938 190.263 585.927 189.986 587.034 189.986C588.596 189.986 590.102 190.418 591.55 191.28L589.426 197.262C588.271 196.513 587.196 196.139 586.204 196.139C585.243 196.139 584.43 196.403 583.762 196.932C583.095 197.461 582.57 198.417 582.188 199.801C581.805 201.184 581.614 204.081 581.614 208.492L581.614 216.5Z"/>
<path d="M609.519 208.248L616.355 209.396C615.476 211.902 614.089 213.81 612.192 215.121C610.296 216.431 607.924 217.086 605.076 217.086C600.567 217.086 597.231 215.613 595.066 212.667C593.357 210.307 592.502 207.328 592.502 203.731C592.502 199.435 593.625 196.069 595.872 193.636C598.118 191.203 600.958 189.986 604.392 189.986C608.25 189.986 611.293 191.26 613.523 193.807C615.753 196.354 616.819 200.257 616.721 205.514L599.534 205.514C599.583 207.548 600.136 209.131 601.194 210.262C602.252 211.393 603.57 211.959 605.149 211.959C606.223 211.959 607.126 211.666 607.859 211.08C608.591 210.494 609.145 209.55 609.519 208.248ZM609.91 201.314C609.861 199.329 609.348 197.819 608.372 196.786C607.395 195.752 606.207 195.235 604.807 195.235C603.31 195.235 602.073 195.781 601.096 196.871C600.12 197.962 599.639 199.443 599.656 201.314L609.91 201.314Z"/>
</g>
<g fill="#000000" opacity="1" stroke="none" vectornator:layerName="Texte 5">
<path d="M440.916 99.8761L440.916 64.085L447.947 64.085L462.595 87.9864L462.595 64.085L469.309 64.085L469.309 99.8761L462.058 99.8761L447.629 76.5362L447.629 99.8761L440.916 99.8761Z"/>
<path d="M482.029 81.8585L475.803 80.7354C476.503 78.2289 477.708 76.3735 479.417 75.169C481.125 73.9646 483.665 73.3624 487.034 73.3624C490.094 73.3624 492.372 73.7245 493.87 74.4488C495.367 75.1731 496.421 76.0927 497.031 77.2076C497.642 78.3225 497.947 80.3692 497.947 83.3477L497.874 91.3556C497.874 93.6342 497.983 95.3147 498.203 96.3971C498.423 97.4794 498.834 98.6391 499.436 99.8761L492.649 99.8761C492.47 99.4203 492.25 98.7449 491.99 97.8497C491.876 97.4428 491.794 97.1742 491.746 97.044C490.574 98.1833 489.32 99.0378 487.986 99.6075C486.651 100.177 485.227 100.462 483.713 100.462C481.044 100.462 478.94 99.7377 477.402 98.2891C475.864 96.8406 475.095 95.0095 475.095 92.796C475.095 91.3311 475.445 90.025 476.145 88.8775C476.845 87.7301 477.826 86.8512 479.087 86.2408C480.348 85.6305 482.167 85.0974 484.543 84.6417C487.75 84.0395 489.972 83.4779 491.208 82.9571L491.208 82.2735C491.208 80.9552 490.883 80.0152 490.232 79.4537C489.581 78.8922 488.352 78.6114 486.545 78.6114C485.325 78.6114 484.373 78.8515 483.689 79.3316C483.005 79.8118 482.452 80.6541 482.029 81.8585ZM491.208 87.4249C490.33 87.7179 488.938 88.0678 487.034 88.4747C485.129 88.8816 483.884 89.2804 483.298 89.671C482.403 90.3057 481.956 91.1114 481.956 92.088C481.956 93.0483 482.314 93.8783 483.03 94.5782C483.746 95.2781 484.657 95.628 485.764 95.628C487.001 95.628 488.181 95.2211 489.304 94.4073C490.134 93.7888 490.68 93.032 490.94 92.1368C491.119 91.5509 491.208 90.436 491.208 88.7921L491.208 87.4249Z"/>
<path d="M511.838 99.8761L501.389 73.9483L508.591 73.9483L513.474 87.1807L514.89 91.5997C515.264 90.4766 515.5 89.7361 515.598 89.378C515.826 88.6456 516.07 87.9132 516.331 87.1807L521.262 73.9483L528.318 73.9483L518.015 99.8761L511.838 99.8761Z"/>
<path d="M532.517 70.4327L532.517 64.085L539.377 64.085L539.377 70.4327L532.517 70.4327ZM532.517 99.8761L532.517 73.9483L539.377 73.9483L539.377 99.8761L532.517 99.8761Z"/>
<path d="M545.774 101.585L553.611 102.537C553.741 103.449 554.042 104.075 554.514 104.417C555.165 104.905 556.191 105.149 557.59 105.149C559.381 105.149 560.723 104.881 561.619 104.344C562.221 103.986 562.677 103.408 562.986 102.61C563.197 102.041 563.303 100.991 563.303 99.461L563.303 95.6768C561.252 98.4763 558.665 99.8761 555.54 99.8761C552.056 99.8761 549.298 98.4031 547.263 95.4571C545.668 93.1296 544.871 90.2325 544.871 86.7657C544.871 82.42 545.916 79.0997 548.008 76.8048C550.099 74.5098 552.699 73.3624 555.808 73.3624C559.014 73.3624 561.659 74.7703 563.743 77.586L563.743 73.9483L570.164 73.9483L570.164 97.2149C570.164 100.275 569.911 102.562 569.407 104.075C568.902 105.589 568.194 106.777 567.283 107.64C566.371 108.502 565.155 109.178 563.633 109.666C562.111 110.154 560.186 110.399 557.859 110.399C553.464 110.399 550.347 109.646 548.508 108.14C546.669 106.635 545.75 104.726 545.75 102.415C545.75 102.187 545.758 101.911 545.774 101.585ZM551.902 86.3751C551.902 89.1257 552.435 91.1399 553.501 92.4176C554.567 93.6952 555.881 94.3341 557.444 94.3341C559.12 94.3341 560.536 93.679 561.692 92.3687C562.847 91.0585 563.425 89.1176 563.425 86.546C563.425 83.8604 562.872 81.8666 561.765 80.5645C560.658 79.2625 559.259 78.6114 557.566 78.6114C555.922 78.6114 554.567 79.2502 553.501 80.5279C552.435 81.8056 551.902 83.7546 551.902 86.3751Z"/>
<path d="M582.078 81.8585L575.852 80.7354C576.552 78.2289 577.756 76.3735 579.465 75.169C581.174 73.9646 583.713 73.3624 587.083 73.3624C590.142 73.3624 592.421 73.7245 593.918 74.4488C595.416 75.1731 596.47 76.0927 597.08 77.2076C597.69 78.3225 597.996 80.3692 597.996 83.3477L597.922 91.3556C597.922 93.6342 598.032 95.3147 598.252 96.3971C598.472 97.4794 598.883 98.6391 599.485 99.8761L592.698 99.8761C592.519 99.4203 592.299 98.7449 592.039 97.8497C591.925 97.4428 591.843 97.1742 591.794 97.044C590.623 98.1833 589.369 99.0378 588.035 99.6075C586.7 100.177 585.276 100.462 583.762 100.462C581.093 100.462 578.989 99.7377 577.451 98.2891C575.913 96.8406 575.144 95.0095 575.144 92.796C575.144 91.3311 575.494 90.025 576.194 88.8775C576.894 87.7301 577.874 86.8512 579.136 86.2408C580.397 85.6305 582.216 85.0974 584.592 84.6417C587.799 84.0395 590.02 83.4779 591.257 82.9571L591.257 82.2735C591.257 80.9552 590.932 80.0152 590.281 79.4537C589.63 78.8922 588.401 78.6114 586.594 78.6114C585.374 78.6114 584.421 78.8515 583.738 79.3316C583.054 79.8118 582.501 80.6541 582.078 81.8585ZM591.257 87.4249C590.378 87.7179 588.987 88.0678 587.083 88.4747C585.178 88.8816 583.933 89.2804 583.347 89.671C582.452 90.3057 582.004 91.1114 582.004 92.088C582.004 93.0483 582.362 93.8783 583.079 94.5782C583.795 95.2781 584.706 95.628 585.813 95.628C587.05 95.628 588.23 95.2211 589.353 94.4073C590.183 93.7888 590.728 93.032 590.989 92.1368C591.168 91.5509 591.257 90.436 591.257 88.7921L591.257 87.4249Z"/>
<path d="M616.648 73.9483L616.648 79.4171L611.96 79.4171L611.96 89.8663C611.96 91.9822 612.005 93.2151 612.095 93.565C612.184 93.915 612.388 94.2039 612.705 94.4317C613.022 94.6596 613.409 94.7735 613.865 94.7735C614.5 94.7735 615.419 94.5538 616.624 94.1143L617.209 99.4366C615.614 100.12 613.808 100.462 611.79 100.462C610.553 100.462 609.438 100.254 608.445 99.8394C607.452 99.4244 606.724 98.8873 606.26 98.2281C605.796 97.5689 605.474 96.6778 605.295 95.5548C605.149 94.7572 605.076 93.1459 605.076 90.7208L605.076 79.4171L601.926 79.4171L601.926 73.9483L605.076 73.9483L605.076 68.797L611.96 64.7931L611.96 73.9483L616.648 73.9483Z"/>
<path d="M621.409 70.4327L621.409 64.085L628.269 64.085L628.269 70.4327L621.409 70.4327ZM621.409 99.8761L621.409 73.9483L628.269 73.9483L628.269 99.8761L621.409 99.8761Z"/>
<path d="M633.713 86.546C633.713 84.2673 634.275 82.0619 635.398 79.9298C636.521 77.7976 638.112 76.17 640.171 75.047C642.23 73.9239 644.529 73.3624 647.068 73.3624C650.99 73.3624 654.205 74.636 656.711 77.1832C659.218 79.7304 660.471 82.949 660.471 86.8389C660.471 90.7615 659.206 94.0126 656.675 96.5924C654.144 99.1721 650.958 100.462 647.117 100.462C644.74 100.462 642.474 99.9249 640.317 98.8507C638.161 97.7764 636.521 96.2017 635.398 94.1265C634.275 92.0514 633.713 89.5245 633.713 86.546ZM640.745 86.9122C640.745 89.4838 641.355 91.4532 642.576 92.8204C643.796 94.1876 645.302 94.8712 647.092 94.8712C648.883 94.8712 650.384 94.1876 651.597 92.8204C652.809 91.4532 653.416 89.4675 653.416 86.8634C653.416 84.3243 652.809 82.3712 651.597 81.004C650.384 79.6368 648.883 78.9532 647.092 78.9532C645.302 78.9532 643.796 79.6368 642.576 81.004C641.355 82.3712 640.745 84.3406 640.745 86.9122Z"/>
<path d="M689.426 99.8761L682.566 99.8761L682.566 86.6436C682.566 83.8442 682.419 82.0334 682.126 81.2115C681.833 80.3896 681.357 79.7507 680.698 79.295C680.039 78.8393 679.246 78.6114 678.318 78.6114C677.13 78.6114 676.064 78.9369 675.12 79.588C674.176 80.239 673.529 81.1016 673.179 82.1759C672.829 83.2501 672.654 85.2358 672.654 88.1329L672.654 99.8761L665.793 99.8761L665.793 73.9483L672.166 73.9483L672.166 77.7569C674.428 74.8272 677.276 73.3624 680.71 73.3624C682.224 73.3624 683.608 73.635 684.861 74.1803C686.114 74.7255 687.062 75.4213 687.705 76.2677C688.348 77.114 688.796 78.0743 689.048 79.1485C689.3 80.2227 689.426 81.7608 689.426 83.7628L689.426 99.8761Z"/>
</g>
<path d="M40 1547.77L1040 1547.77L1040 1612.77L40 1612.77L40 1547.77Z" fill="none" opacity="1" stroke="#000000" stroke-linecap="butt" stroke-linejoin="round" stroke-width="5.07805" vectornator:layerName="Rectangle 10"/>
<g fill="#000000" opacity="1" stroke="none" vectornator:layerName="Texte 8">
<path d="M414.426 1592.77L414.426 1556.98L426.023 1556.98C430.417 1556.98 433.282 1557.16 434.617 1557.52C436.667 1558.06 438.385 1559.22 439.768 1561.02C441.152 1562.82 441.843 1565.14 441.843 1567.99C441.843 1570.19 441.444 1572.04 440.647 1573.53C439.849 1575.03 438.836 1576.21 437.607 1577.06C436.379 1577.92 435.129 1578.48 433.86 1578.76C432.135 1579.1 429.636 1579.27 426.365 1579.27L421.653 1579.27L421.653 1592.77L414.426 1592.77ZM421.653 1563.04L421.653 1573.19L425.608 1573.19C428.456 1573.19 430.361 1573.01 431.321 1572.63C432.281 1572.26 433.034 1571.67 433.579 1570.87C434.124 1570.08 434.397 1569.15 434.397 1568.09C434.397 1566.79 434.014 1565.71 433.25 1564.87C432.485 1564.02 431.516 1563.49 430.344 1563.28C429.482 1563.12 427.748 1563.04 425.144 1563.04L421.653 1563.04Z"/>
<path d="M447.727 1563.33L447.727 1556.98L454.587 1556.98L454.587 1563.33L447.727 1563.33ZM447.727 1592.77L447.727 1566.85L454.587 1566.85L454.587 1592.77L447.727 1592.77Z"/>
<path d="M476.633 1584.52L483.469 1585.67C482.59 1588.17 481.203 1590.08 479.307 1591.39C477.41 1592.7 475.038 1593.36 472.19 1593.36C467.681 1593.36 464.345 1591.89 462.18 1588.94C460.471 1586.58 459.617 1583.6 459.617 1580C459.617 1575.71 460.74 1572.34 462.986 1569.91C465.232 1567.48 468.072 1566.26 471.506 1566.26C475.364 1566.26 478.407 1567.53 480.637 1570.08C482.867 1572.63 483.933 1576.53 483.835 1581.79L466.648 1581.79C466.697 1583.82 467.25 1585.4 468.308 1586.54C469.366 1587.67 470.684 1588.23 472.263 1588.23C473.337 1588.23 474.241 1587.94 474.973 1587.35C475.706 1586.77 476.259 1585.82 476.633 1584.52ZM477.024 1577.59C476.975 1575.6 476.462 1574.09 475.486 1573.06C474.509 1572.02 473.321 1571.51 471.921 1571.51C470.424 1571.51 469.187 1572.05 468.21 1573.14C467.234 1574.23 466.754 1575.72 466.77 1577.59L477.024 1577.59Z"/>
<path d="M513.206 1592.77L506.833 1592.77L506.833 1588.96C505.776 1590.45 504.526 1591.55 503.086 1592.27C501.646 1593 500.193 1593.36 498.728 1593.36C495.75 1593.36 493.198 1592.16 491.074 1589.76C488.95 1587.36 487.888 1584.01 487.888 1579.71C487.888 1575.32 488.922 1571.98 490.989 1569.69C493.056 1567.4 495.668 1566.26 498.826 1566.26C501.723 1566.26 504.229 1567.46 506.345 1569.87L506.345 1556.98L513.206 1556.98L513.206 1592.77ZM494.895 1579.25C494.895 1582.01 495.278 1584.02 496.042 1585.25C497.149 1587.04 498.695 1587.94 500.681 1587.94C502.26 1587.94 503.603 1587.27 504.709 1585.92C505.816 1584.58 506.37 1582.58 506.37 1579.91C506.37 1576.93 505.833 1574.78 504.758 1573.47C503.684 1572.16 502.309 1571.51 500.632 1571.51C499.005 1571.51 497.642 1572.16 496.543 1573.45C495.444 1574.74 494.895 1576.68 494.895 1579.25Z"/>
<path d="M557.639 1592.77L551.267 1592.77L551.267 1588.96C550.209 1590.45 548.96 1591.55 547.52 1592.27C546.079 1593 544.626 1593.36 543.162 1593.36C540.183 1593.36 537.632 1592.16 535.508 1589.76C533.384 1587.36 532.322 1584.01 532.322 1579.71C532.322 1575.32 533.355 1571.98 535.422 1569.69C537.489 1567.4 540.102 1566.26 543.259 1566.26C546.156 1566.26 548.663 1567.46 550.779 1569.87L550.779 1556.98L557.639 1556.98L557.639 1592.77ZM539.329 1579.25C539.329 1582.01 539.711 1584.02 540.476 1585.25C541.583 1587.04 543.129 1587.94 545.115 1587.94C546.694 1587.94 548.036 1587.27 549.143 1585.92C550.25 1584.58 550.803 1582.58 550.803 1579.91C550.803 1576.93 550.266 1574.78 549.192 1573.47C548.118 1572.16 546.742 1571.51 545.066 1571.51C543.438 1571.51 542.075 1572.16 540.977 1573.45C539.878 1574.74 539.329 1576.68 539.329 1579.25Z"/>
<path d="M579.417 1584.52L586.252 1585.67C585.374 1588.17 583.986 1590.08 582.09 1591.39C580.194 1592.7 577.821 1593.36 574.973 1593.36C570.465 1593.36 567.128 1591.89 564.963 1588.94C563.254 1586.58 562.4 1583.6 562.4 1580C562.4 1575.71 563.523 1572.34 565.769 1569.91C568.015 1567.48 570.855 1566.26 574.29 1566.26C578.147 1566.26 581.191 1567.53 583.42 1570.08C585.65 1572.63 586.716 1576.53 586.619 1581.79L569.431 1581.79C569.48 1583.82 570.033 1585.4 571.091 1586.54C572.149 1587.67 573.468 1588.23 575.046 1588.23C576.121 1588.23 577.024 1587.94 577.756 1587.35C578.489 1586.77 579.042 1585.82 579.417 1584.52ZM579.807 1577.59C579.758 1575.6 579.246 1574.09 578.269 1573.06C577.292 1572.02 576.104 1571.51 574.705 1571.51C573.207 1571.51 571.97 1572.05 570.994 1573.14C570.017 1574.23 569.537 1575.72 569.553 1577.59L579.807 1577.59Z"/>
<path d="M605.906 1566.85L612.302 1566.85L612.302 1570.65C613.132 1569.35 614.255 1568.29 615.671 1567.48C617.087 1566.67 618.658 1566.26 620.383 1566.26C623.394 1566.26 625.95 1567.44 628.049 1569.8C630.149 1572.16 631.199 1575.45 631.199 1579.66C631.199 1583.99 630.141 1587.36 628.025 1589.76C625.909 1592.16 623.346 1593.36 620.334 1593.36C618.902 1593.36 617.604 1593.07 616.44 1592.5C615.277 1591.93 614.052 1590.96 612.766 1589.57L612.766 1602.64L605.906 1602.64L605.906 1566.85ZM612.693 1579.37C612.693 1582.28 613.271 1584.44 614.426 1585.83C615.582 1587.22 616.99 1587.91 618.65 1587.91C620.245 1587.91 621.571 1587.28 622.629 1586C623.687 1584.72 624.216 1582.62 624.216 1579.71C624.216 1576.99 623.671 1574.97 622.581 1573.66C621.49 1572.34 620.139 1571.68 618.528 1571.68C616.851 1571.68 615.46 1572.33 614.353 1573.62C613.246 1574.91 612.693 1576.83 612.693 1579.37Z"/>
<path d="M641.77 1574.76L635.544 1573.63C636.244 1571.13 637.449 1569.27 639.158 1568.07C640.867 1566.86 643.406 1566.26 646.775 1566.26C649.835 1566.26 652.113 1566.62 653.611 1567.35C655.108 1568.07 656.162 1568.99 656.772 1570.1C657.383 1571.22 657.688 1573.27 657.688 1576.24L657.615 1584.25C657.615 1586.53 657.725 1588.21 657.944 1589.29C658.164 1590.38 658.575 1591.54 659.177 1592.77L652.39 1592.77C652.211 1592.32 651.991 1591.64 651.731 1590.75C651.617 1590.34 651.536 1590.07 651.487 1589.94C650.315 1591.08 649.062 1591.93 647.727 1592.5C646.392 1593.07 644.968 1593.36 643.455 1593.36C640.785 1593.36 638.682 1592.63 637.144 1591.19C635.605 1589.74 634.836 1587.91 634.836 1585.69C634.836 1584.23 635.186 1582.92 635.886 1581.77C636.586 1580.63 637.567 1579.75 638.828 1579.14C640.09 1578.53 641.908 1577.99 644.285 1577.54C647.491 1576.94 649.713 1576.37 650.95 1575.85L650.95 1575.17C650.95 1573.85 650.624 1572.91 649.973 1572.35C649.322 1571.79 648.093 1571.51 646.287 1571.51C645.066 1571.51 644.114 1571.75 643.43 1572.23C642.747 1572.71 642.193 1573.55 641.77 1574.76ZM650.95 1580.32C650.071 1580.61 648.679 1580.96 646.775 1581.37C644.871 1581.78 643.625 1582.18 643.04 1582.57C642.144 1583.2 641.697 1584.01 641.697 1584.98C641.697 1585.95 642.055 1586.78 642.771 1587.47C643.487 1588.17 644.399 1588.52 645.505 1588.52C646.742 1588.52 647.922 1588.12 649.045 1587.3C649.875 1586.69 650.421 1585.93 650.681 1585.03C650.86 1584.45 650.95 1583.33 650.95 1581.69L650.95 1580.32Z"/>
<path d="M663.816 1594.48L671.653 1595.43C671.783 1596.35 672.084 1596.97 672.556 1597.31C673.207 1597.8 674.233 1598.05 675.632 1598.05C677.423 1598.05 678.765 1597.78 679.661 1597.24C680.263 1596.88 680.719 1596.3 681.028 1595.51C681.239 1594.94 681.345 1593.89 681.345 1592.36L681.345 1588.57C679.294 1591.37 676.707 1592.77 673.582 1592.77C670.098 1592.77 667.34 1591.3 665.305 1588.35C663.71 1586.03 662.913 1583.13 662.913 1579.66C662.913 1575.32 663.958 1572 666.05 1569.7C668.141 1567.41 670.741 1566.26 673.85 1566.26C677.056 1566.26 679.701 1567.67 681.785 1570.48L681.785 1566.85L688.206 1566.85L688.206 1590.11C688.206 1593.17 687.953 1595.46 687.449 1596.97C686.944 1598.49 686.236 1599.67 685.325 1600.54C684.413 1601.4 683.197 1602.07 681.675 1602.56C680.153 1603.05 678.228 1603.3 675.901 1603.3C671.506 1603.3 668.389 1602.54 666.55 1601.04C664.711 1599.53 663.792 1597.62 663.792 1595.31C663.792 1595.08 663.8 1594.81 663.816 1594.48ZM669.944 1579.27C669.944 1582.02 670.477 1584.04 671.543 1585.31C672.609 1586.59 673.923 1587.23 675.486 1587.23C677.162 1587.23 678.578 1586.58 679.734 1585.27C680.889 1583.96 681.467 1582.01 681.467 1579.44C681.467 1576.76 680.914 1574.76 679.807 1573.46C678.7 1572.16 677.301 1571.51 675.608 1571.51C673.964 1571.51 672.609 1572.15 671.543 1573.42C670.477 1574.7 669.944 1576.65 669.944 1579.27Z"/>
<path d="M710.007 1584.52L716.843 1585.67C715.964 1588.17 714.577 1590.08 712.681 1591.39C710.785 1592.7 708.412 1593.36 705.564 1593.36C701.056 1593.36 697.719 1591.89 695.554 1588.94C693.845 1586.58 692.991 1583.6 692.991 1580C692.991 1575.71 694.114 1572.34 696.36 1569.91C698.606 1567.48 701.446 1566.26 704.88 1566.26C708.738 1566.26 711.781 1567.53 714.011 1570.08C716.241 1572.63 717.307 1576.53 717.209 1581.79L700.022 1581.79C700.071 1583.82 700.624 1585.4 701.682 1586.54C702.74 1587.67 704.058 1588.23 705.637 1588.23C706.711 1588.23 707.615 1587.94 708.347 1587.35C709.08 1586.77 709.633 1585.82 710.007 1584.52ZM710.398 1577.59C710.349 1575.6 709.836 1574.09 708.86 1573.06C707.883 1572.02 706.695 1571.51 705.295 1571.51C703.798 1571.51 702.561 1572.05 701.584 1573.14C700.608 1574.23 700.128 1575.72 700.144 1577.59L710.398 1577.59Z"/>
</g>
<path d="M40 136.5L1040 136.5L1040 1521.54L40 1521.54L40 136.5Z" fill="none" opacity="1" stroke="#000000" stroke-linecap="butt" stroke-linejoin="round" stroke-width="5.07805" vectornator:layerName="Rectangle 11"/>
<path d="M230.853 266.616L849.147 266.616L849.147 491.616L230.853 491.616L230.853 266.616Z" fill="none" opacity="1" stroke="#000000" stroke-linecap="butt" stroke-linejoin="round" stroke-width="5.07805" vectornator:layerName="Rectangle 12"/>
<path d="M230.853 510L849.147 510L849.147 690L230.853 690L230.853 510Z" fill="none" opacity="1" stroke="#000000" stroke-linecap="butt" stroke-linejoin="round" stroke-width="5.07805" vectornator:layerName="Rectangle 13"/>
<g fill="#000000" opacity="1" stroke="none" vectornator:layerName="Texte 9">
<path d="M419.25 379.116L419.25 343.325L430.847 343.325C435.241 343.325 438.106 343.504 439.441 343.862C441.491 344.399 443.208 345.567 444.592 347.365C445.975 349.164 446.667 351.487 446.667 354.335C446.667 356.533 446.268 358.38 445.471 359.877C444.673 361.375 443.66 362.551 442.431 363.405C441.202 364.26 439.953 364.825 438.684 365.102C436.958 365.444 434.46 365.615 431.189 365.615L426.477 365.615L426.477 379.116L419.25 379.116ZM426.477 349.379L426.477 359.536L430.432 359.536C433.28 359.536 435.184 359.348 436.145 358.974C437.105 358.6 437.858 358.014 438.403 357.216C438.948 356.419 439.221 355.491 439.221 354.433C439.221 353.131 438.838 352.057 438.073 351.21C437.308 350.364 436.34 349.835 435.168 349.623C434.305 349.461 432.572 349.379 429.968 349.379L426.477 349.379Z"/>
<path d="M457.678 361.098L451.452 359.975C452.152 357.469 453.357 355.613 455.066 354.409C456.774 353.204 459.314 352.602 462.683 352.602C465.743 352.602 468.021 352.964 469.519 353.688C471.016 354.413 472.07 355.332 472.68 356.447C473.291 357.562 473.596 359.609 473.596 362.587L473.523 370.595C473.523 372.874 473.632 374.554 473.852 375.637C474.072 376.719 474.483 377.879 475.085 379.116L468.298 379.116C468.119 378.66 467.899 377.984 467.639 377.089C467.525 376.682 467.443 376.414 467.395 376.284C466.223 377.423 464.969 378.277 463.635 378.847C462.3 379.417 460.876 379.702 459.362 379.702C456.693 379.702 454.589 378.977 453.051 377.529C451.513 376.08 450.744 374.249 450.744 372.036C450.744 370.571 451.094 369.265 451.794 368.117C452.494 366.97 453.475 366.091 454.736 365.48C455.997 364.87 457.816 364.337 460.192 363.881C463.399 363.279 465.621 362.718 466.858 362.197L466.858 361.513C466.858 360.195 466.532 359.255 465.881 358.693C465.23 358.132 464.001 357.851 462.194 357.851C460.974 357.851 460.022 358.091 459.338 358.571C458.654 359.051 458.101 359.894 457.678 361.098ZM466.858 366.665C465.979 366.957 464.587 367.307 462.683 367.714C460.778 368.121 459.533 368.52 458.947 368.911C458.052 369.545 457.605 370.351 457.605 371.328C457.605 372.288 457.963 373.118 458.679 373.818C459.395 374.518 460.306 374.868 461.413 374.868C462.65 374.868 463.83 374.461 464.953 373.647C465.783 373.028 466.329 372.272 466.589 371.376C466.768 370.79 466.858 369.676 466.858 368.032L466.858 366.665Z"/>
<path d="M486.926 379.116L480.066 379.116L480.066 353.188L486.438 353.188L486.438 356.874C487.528 355.133 488.509 353.985 489.379 353.432C490.25 352.879 491.239 352.602 492.346 352.602C493.908 352.602 495.414 353.033 496.862 353.896L494.738 359.877C493.583 359.129 492.509 358.754 491.516 358.754C490.555 358.754 489.742 359.019 489.074 359.548C488.407 360.077 487.882 361.033 487.5 362.416C487.117 363.8 486.926 366.697 486.926 371.108L486.926 379.116Z"/>
<path d="M504.943 361.098L498.718 359.975C499.418 357.469 500.622 355.613 502.331 354.409C504.04 353.204 506.579 352.602 509.948 352.602C513.008 352.602 515.287 352.964 516.784 353.688C518.282 354.413 519.336 355.332 519.946 356.447C520.556 357.562 520.861 359.609 520.861 362.587L520.788 370.595C520.788 372.874 520.898 374.554 521.118 375.637C521.337 376.719 521.748 377.879 522.351 379.116L515.564 379.116C515.385 378.66 515.165 377.984 514.904 377.089C514.79 376.682 514.709 376.414 514.66 376.284C513.488 377.423 512.235 378.277 510.9 378.847C509.566 379.417 508.142 379.702 506.628 379.702C503.959 379.702 501.855 378.977 500.317 377.529C498.779 376.08 498.01 374.249 498.01 372.036C498.01 370.571 498.36 369.265 499.06 368.117C499.76 366.97 500.74 366.091 502.002 365.48C503.263 364.87 505.082 364.337 507.458 363.881C510.664 363.279 512.886 362.718 514.123 362.197L514.123 361.513C514.123 360.195 513.798 359.255 513.147 358.693C512.496 358.132 511.267 357.851 509.46 357.851C508.239 357.851 507.287 358.091 506.604 358.571C505.92 359.051 505.367 359.894 504.943 361.098ZM514.123 366.665C513.244 366.957 511.853 367.307 509.948 367.714C508.044 368.121 506.799 368.52 506.213 368.911C505.318 369.545 504.87 370.351 504.87 371.328C504.87 372.288 505.228 373.118 505.944 373.818C506.661 374.518 507.572 374.868 508.679 374.868C509.916 374.868 511.096 374.461 512.219 373.647C513.049 373.028 513.594 372.272 513.855 371.376C514.034 370.79 514.123 369.676 514.123 368.032L514.123 366.665Z"/>
<path d="M526.989 380.825L534.826 381.777C534.956 382.688 535.258 383.315 535.73 383.657C536.381 384.145 537.406 384.389 538.806 384.389C540.596 384.389 541.939 384.121 542.834 383.583C543.436 383.225 543.892 382.648 544.201 381.85C544.413 381.28 544.519 380.231 544.519 378.701L544.519 374.916C542.468 377.716 539.88 379.116 536.755 379.116C533.272 379.116 530.513 377.643 528.479 374.697C526.884 372.369 526.086 369.472 526.086 366.005C526.086 361.66 527.132 358.339 529.223 356.044C531.315 353.749 533.915 352.602 537.024 352.602C540.23 352.602 542.875 354.01 544.958 356.826L544.958 353.188L551.379 353.188L551.379 376.455C551.379 379.514 551.127 381.801 550.622 383.315C550.118 384.829 549.41 386.017 548.498 386.879C547.587 387.742 546.37 388.417 544.848 388.906C543.326 389.394 541.402 389.638 539.074 389.638C534.68 389.638 531.563 388.885 529.724 387.38C527.885 385.874 526.965 383.966 526.965 381.655C526.965 381.427 526.973 381.15 526.989 380.825ZM533.117 365.615C533.117 368.365 533.65 370.38 534.716 371.657C535.782 372.935 537.097 373.574 538.659 373.574C540.336 373.574 541.752 372.919 542.907 371.608C544.063 370.298 544.641 368.357 544.641 365.786C544.641 363.1 544.087 361.106 542.981 359.804C541.874 358.502 540.474 357.851 538.781 357.851C537.137 357.851 535.782 358.49 534.716 359.768C533.65 361.045 533.117 362.994 533.117 365.615Z"/>
<path d="M564.733 379.116L557.873 379.116L557.873 353.188L564.245 353.188L564.245 356.874C565.336 355.133 566.316 353.985 567.187 353.432C568.058 352.879 569.047 352.602 570.153 352.602C571.716 352.602 573.221 353.033 574.67 353.896L572.546 359.877C571.39 359.129 570.316 358.754 569.323 358.754C568.363 358.754 567.549 359.019 566.882 359.548C566.215 360.077 565.69 361.033 565.307 362.416C564.925 363.8 564.733 366.697 564.733 371.108L564.733 379.116Z"/>
<path d="M582.751 361.098L576.525 359.975C577.225 357.469 578.43 355.613 580.139 354.409C581.848 353.204 584.387 352.602 587.756 352.602C590.816 352.602 593.094 352.964 594.592 353.688C596.089 354.413 597.143 355.332 597.754 356.447C598.364 357.562 598.669 359.609 598.669 362.587L598.596 370.595C598.596 372.874 598.706 374.554 598.925 375.637C599.145 376.719 599.556 377.879 600.158 379.116L593.371 379.116C593.192 378.66 592.972 377.984 592.712 377.089C592.598 376.682 592.517 376.414 592.468 376.284C591.296 377.423 590.043 378.277 588.708 378.847C587.373 379.417 585.949 379.702 584.436 379.702C581.766 379.702 579.663 378.977 578.125 377.529C576.587 376.08 575.817 374.249 575.817 372.036C575.817 370.571 576.167 369.265 576.867 368.117C577.567 366.97 578.548 366.091 579.809 365.48C581.071 364.87 582.889 364.337 585.266 363.881C588.472 363.279 590.694 362.718 591.931 362.197L591.931 361.513C591.931 360.195 591.605 359.255 590.954 358.693C590.303 358.132 589.074 357.851 587.268 357.851C586.047 357.851 585.095 358.091 584.411 358.571C583.728 359.051 583.174 359.894 582.751 361.098ZM591.931 366.665C591.052 366.957 589.66 367.307 587.756 367.714C585.852 368.121 584.607 368.52 584.021 368.911C583.125 369.545 582.678 370.351 582.678 371.328C582.678 372.288 583.036 373.118 583.752 373.818C584.468 374.518 585.38 374.868 586.486 374.868C587.723 374.868 588.903 374.461 590.026 373.647C590.857 373.028 591.402 372.272 591.662 371.376C591.841 370.79 591.931 369.676 591.931 368.032L591.931 366.665Z"/>
<path d="M605.236 353.188L611.633 353.188L611.633 356.997C612.463 355.694 613.586 354.637 615.002 353.823C616.418 353.009 617.989 352.602 619.714 352.602C622.725 352.602 625.28 353.782 627.38 356.142C629.48 358.502 630.529 361.79 630.529 366.005C630.529 370.335 629.471 373.7 627.356 376.101C625.24 378.501 622.676 379.702 619.665 379.702C618.233 379.702 616.935 379.417 615.771 378.847C614.607 378.277 613.383 377.301 612.097 375.917L612.097 388.979L605.236 388.979L605.236 353.188ZM612.024 365.712C612.024 368.626 612.601 370.778 613.757 372.17C614.913 373.561 616.32 374.257 617.981 374.257C619.576 374.257 620.902 373.618 621.96 372.341C623.018 371.063 623.547 368.968 623.547 366.054C623.547 363.336 623.002 361.318 621.911 359.999C620.821 358.681 619.47 358.022 617.858 358.022C616.182 358.022 614.79 358.669 613.684 359.963C612.577 361.257 612.024 363.173 612.024 365.712Z"/>
<path d="M642.81 343.325L642.81 356.484C645.023 353.896 647.668 352.602 650.744 352.602C652.323 352.602 653.747 352.895 655.017 353.481C656.286 354.067 657.242 354.816 657.885 355.727C658.528 356.638 658.968 357.648 659.204 358.754C659.44 359.861 659.558 361.578 659.558 363.906L659.558 379.116L652.697 379.116L652.697 365.419C652.697 362.701 652.567 360.976 652.307 360.244C652.046 359.511 651.587 358.929 650.927 358.498C650.268 358.067 649.442 357.851 648.449 357.851C647.31 357.851 646.293 358.128 645.398 358.681C644.502 359.234 643.847 360.069 643.432 361.184C643.017 362.298 642.81 363.946 642.81 366.127L642.81 379.116L635.949 379.116L635.949 343.325L642.81 343.325Z"/>
<path d="M681.53 370.864L688.366 372.011C687.487 374.518 686.1 376.426 684.204 377.736C682.308 379.047 679.935 379.702 677.087 379.702C672.579 379.702 669.242 378.229 667.077 375.283C665.368 372.923 664.514 369.944 664.514 366.347C664.514 362.05 665.637 358.685 667.883 356.252C670.129 353.819 672.969 352.602 676.403 352.602C680.261 352.602 683.304 353.876 685.534 356.423C687.764 358.97 688.83 362.872 688.733 368.129L671.545 368.129C671.594 370.164 672.147 371.747 673.205 372.878C674.263 374.009 675.581 374.575 677.16 374.575C678.234 374.575 679.138 374.282 679.87 373.696C680.603 373.11 681.156 372.166 681.53 370.864ZM681.921 363.93C681.872 361.944 681.359 360.435 680.383 359.401C679.406 358.368 678.218 357.851 676.818 357.851C675.321 357.851 674.084 358.396 673.108 359.487C672.131 360.577 671.651 362.058 671.667 363.93L681.921 363.93Z"/>
</g>
<g fill="#000000" opacity="1" stroke="none" vectornator:layerName="Texte 10">
<path d="M471.58 616.5L471.58 581.002L478.806 581.002L478.806 610.47L496.775 610.47L496.775 616.5L471.58 616.5Z"/>
<path d="M501.877 587.057L501.877 580.709L508.738 580.709L508.738 587.057L501.877 587.057ZM501.877 616.5L501.877 590.572L508.738 590.572L508.738 616.5L501.877 616.5Z"/>
<path d="M513.352 609.103L520.237 608.053C520.53 609.387 521.124 610.401 522.019 611.092C522.914 611.784 524.167 612.13 525.779 612.13C527.553 612.13 528.888 611.804 529.783 611.153C530.385 610.698 530.686 610.087 530.686 609.322C530.686 608.801 530.523 608.37 530.198 608.028C529.856 607.703 529.091 607.402 527.903 607.125C522.369 605.904 518.861 604.789 517.38 603.78C515.33 602.381 514.304 600.436 514.304 597.945C514.304 595.699 515.191 593.811 516.965 592.281C518.739 590.751 521.49 589.986 525.217 589.986C528.765 589.986 531.402 590.564 533.127 591.72C534.853 592.875 536.041 594.584 536.692 596.847L530.222 598.043C529.945 597.034 529.421 596.261 528.647 595.724C527.874 595.187 526.772 594.918 525.339 594.918C523.533 594.918 522.239 595.17 521.458 595.675C520.937 596.033 520.676 596.497 520.676 597.066C520.676 597.555 520.904 597.97 521.36 598.312C521.978 598.767 524.115 599.41 527.769 600.24C531.423 601.07 533.974 602.088 535.422 603.292C536.855 604.513 537.571 606.214 537.571 608.395C537.571 610.771 536.578 612.813 534.592 614.522C532.607 616.231 529.669 617.086 525.779 617.086C522.247 617.086 519.451 616.37 517.393 614.938C515.334 613.505 513.987 611.56 513.352 609.103Z"/>
<path d="M555.466 590.572L555.466 596.041L550.779 596.041L550.779 606.49C550.779 608.606 550.824 609.839 550.913 610.189C551.003 610.539 551.206 610.828 551.523 611.056C551.841 611.284 552.227 611.397 552.683 611.397C553.318 611.397 554.237 611.178 555.442 610.738L556.028 616.061C554.433 616.744 552.626 617.086 550.608 617.086C549.371 617.086 548.256 616.878 547.263 616.463C546.27 616.048 545.542 615.511 545.078 614.852C544.614 614.193 544.293 613.302 544.114 612.179C543.967 611.381 543.894 609.77 543.894 607.345L543.894 596.041L540.745 596.041L540.745 590.572L543.894 590.572L543.894 585.421L550.779 581.417L550.779 590.572L555.466 590.572Z"/>
<path d="M575.242 608.248L582.078 609.396C581.199 611.902 579.811 613.81 577.915 615.121C576.019 616.431 573.647 617.086 570.798 617.086C566.29 617.086 562.953 615.613 560.789 612.667C559.08 610.307 558.225 607.328 558.225 603.731C558.225 599.435 559.348 596.069 561.594 593.636C563.84 591.203 566.681 589.986 570.115 589.986C573.972 589.986 577.016 591.26 579.246 593.807C581.475 596.354 582.542 600.257 582.444 605.514L565.256 605.514C565.305 607.548 565.859 609.131 566.917 610.262C567.974 611.393 569.293 611.959 570.872 611.959C571.946 611.959 572.849 611.666 573.582 611.08C574.314 610.494 574.867 609.55 575.242 608.248ZM575.632 601.314C575.583 599.329 575.071 597.819 574.094 596.786C573.118 595.752 571.93 595.235 570.53 595.235C569.032 595.235 567.795 595.781 566.819 596.871C565.842 597.962 565.362 599.443 565.378 601.314L575.632 601.314Z"/>
<path d="M604.124 616.5L597.263 616.5L597.263 590.646C594.757 592.989 591.803 594.723 588.401 595.846L588.401 589.62C590.191 589.034 592.136 587.923 594.236 586.288C596.335 584.652 597.776 582.743 598.557 580.562L604.124 580.562L604.124 616.5Z"/>
</g>
<path d="M77.5 1448.73L477.5 1448.73L477.5 1498.73L77.5 1498.73L77.5 1448.73Z" fill="none" opacity="1" stroke="#000000" stroke-linecap="butt" stroke-linejoin="round" stroke-width="5.07805" vectornator:layerName="Rectangle 15"/>
<path d="M602.5 1448.73L1002.5 1448.73L1002.5 1498.73L602.5 1498.73L602.5 1448.73Z" fill="none" opacity="1" stroke="#000000" stroke-linecap="butt" stroke-linejoin="round" stroke-width="5.07805" vectornator:layerName="Rectangle 14"/>
<path d="M230.853 710.25L849.147 710.25L849.147 1430.25L230.853 1430.25L230.853 710.25Z" fill="none" opacity="1" stroke="#000000" stroke-linecap="butt" stroke-linejoin="round" stroke-width="5.07805" vectornator:layerName="Rectangle 16"/>
<g fill="#000000" opacity="1" stroke="none" vectornator:layerName="Texte 11">
<path d="M471.58 1070.25L471.58 1034.75L478.806 1034.75L478.806 1064.22L496.775 1064.22L496.775 1070.25L471.58 1070.25Z"/>
<path d="M501.877 1040.81L501.877 1034.46L508.738 1034.46L508.738 1040.81L501.877 1040.81ZM501.877 1070.25L501.877 1044.32L508.738 1044.32L508.738 1070.25L501.877 1070.25Z"/>
<path d="M513.352 1062.85L520.237 1061.8C520.53 1063.14 521.124 1064.15 522.019 1064.84C522.914 1065.53 524.167 1065.88 525.779 1065.88C527.553 1065.88 528.888 1065.55 529.783 1064.9C530.385 1064.45 530.686 1063.84 530.686 1063.07C530.686 1062.55 530.523 1062.12 530.198 1061.78C529.856 1061.45 529.091 1061.15 527.903 1060.88C522.369 1059.65 518.861 1058.54 517.38 1057.53C515.33 1056.13 514.304 1054.19 514.304 1051.7C514.304 1049.45 515.191 1047.56 516.965 1046.03C518.739 1044.5 521.49 1043.74 525.217 1043.74C528.765 1043.74 531.402 1044.31 533.127 1045.47C534.853 1046.63 536.041 1048.33 536.692 1050.6L530.222 1051.79C529.945 1050.78 529.421 1050.01 528.647 1049.47C527.874 1048.94 526.772 1048.67 525.339 1048.67C523.533 1048.67 522.239 1048.92 521.458 1049.42C520.937 1049.78 520.676 1050.25 520.676 1050.82C520.676 1051.3 520.904 1051.72 521.36 1052.06C521.978 1052.52 524.115 1053.16 527.769 1053.99C531.423 1054.82 533.974 1055.84 535.422 1057.04C536.855 1058.26 537.571 1059.96 537.571 1062.14C537.571 1064.52 536.578 1066.56 534.592 1068.27C532.607 1069.98 529.669 1070.84 525.779 1070.84C522.247 1070.84 519.451 1070.12 517.393 1068.69C515.334 1067.26 513.987 1065.31 513.352 1062.85Z"/>
<path d="M555.466 1044.32L555.466 1049.79L550.779 1049.79L550.779 1060.24C550.779 1062.36 550.824 1063.59 550.913 1063.94C551.003 1064.29 551.206 1064.58 551.523 1064.81C551.841 1065.03 552.227 1065.15 552.683 1065.15C553.318 1065.15 554.237 1064.93 555.442 1064.49L556.028 1069.81C554.433 1070.49 552.626 1070.84 550.608 1070.84C549.371 1070.84 548.256 1070.63 547.263 1070.21C546.27 1069.8 545.542 1069.26 545.078 1068.6C544.614 1067.94 544.293 1067.05 544.114 1065.93C543.967 1065.13 543.894 1063.52 543.894 1061.09L543.894 1049.79L540.745 1049.79L540.745 1044.32L543.894 1044.32L543.894 1039.17L550.779 1035.17L550.779 1044.32L555.466 1044.32Z"/>
<path d="M575.242 1062L582.078 1063.15C581.199 1065.65 579.811 1067.56 577.915 1068.87C576.019 1070.18 573.647 1070.84 570.798 1070.84C566.29 1070.84 562.953 1069.36 560.789 1066.42C559.08 1064.06 558.225 1061.08 558.225 1057.48C558.225 1053.18 559.348 1049.82 561.594 1047.39C563.84 1044.95 566.681 1043.74 570.115 1043.74C573.972 1043.74 577.016 1045.01 579.246 1047.56C581.475 1050.1 582.542 1054.01 582.444 1059.26L565.256 1059.26C565.305 1061.3 565.859 1062.88 566.917 1064.01C567.974 1065.14 569.293 1065.71 570.872 1065.71C571.946 1065.71 572.849 1065.42 573.582 1064.83C574.314 1064.24 574.867 1063.3 575.242 1062ZM575.632 1055.06C575.583 1053.08 575.071 1051.57 574.094 1050.54C573.118 1049.5 571.93 1048.99 570.53 1048.99C569.032 1048.99 567.795 1049.53 566.819 1050.62C565.842 1051.71 565.362 1053.19 565.378 1055.06L575.632 1055.06Z"/>
<path d="M609.739 1063.88L609.739 1070.25L585.691 1070.25C585.951 1067.84 586.733 1065.56 588.035 1063.4C589.337 1061.25 591.908 1058.38 595.75 1054.82C598.842 1051.94 600.738 1049.99 601.438 1048.96C602.382 1047.55 602.854 1046.15 602.854 1044.76C602.854 1043.23 602.443 1042.06 601.621 1041.23C600.799 1040.41 599.664 1040 598.215 1040C596.783 1040 595.644 1040.43 594.797 1041.3C593.951 1042.16 593.463 1043.59 593.333 1045.59L586.497 1044.91C586.903 1041.13 588.181 1038.42 590.33 1036.78C592.478 1035.13 595.164 1034.31 598.386 1034.31C601.918 1034.31 604.693 1035.26 606.711 1037.17C608.73 1039.07 609.739 1041.44 609.739 1044.27C609.739 1045.88 609.45 1047.42 608.872 1048.88C608.294 1050.33 607.379 1051.86 606.125 1053.45C605.295 1054.51 603.798 1056.03 601.633 1058.02C599.469 1060 598.097 1061.32 597.52 1061.97C596.942 1062.62 596.474 1063.26 596.116 1063.88L609.739 1063.88Z"/>
</g>
<g fill="#000000" opacity="1" stroke="none" vectornator:layerName="Texte 12">
<path d="M206.382 1478.78L209.897 1478.44C210.109 1479.62 210.538 1480.49 211.185 1481.04C211.832 1481.59 212.705 1481.87 213.804 1481.87C214.967 1481.87 215.844 1481.62 216.434 1481.13C217.024 1480.64 217.319 1480.06 217.319 1479.4C217.319 1478.98 217.195 1478.62 216.947 1478.32C216.699 1478.03 216.265 1477.77 215.647 1477.55C215.224 1477.4 214.259 1477.14 212.754 1476.77C210.817 1476.29 209.458 1475.7 208.677 1475C207.578 1474.01 207.029 1472.81 207.029 1471.4C207.029 1470.49 207.287 1469.63 207.804 1468.84C208.321 1468.05 209.065 1467.44 210.038 1467.03C211.01 1466.61 212.184 1466.4 213.56 1466.4C215.806 1466.4 217.496 1466.9 218.632 1467.88C219.767 1468.87 220.363 1470.18 220.42 1471.82L216.807 1471.98C216.652 1471.06 216.32 1470.4 215.812 1470C215.303 1469.6 214.54 1469.39 213.523 1469.39C212.473 1469.39 211.651 1469.61 211.057 1470.04C210.675 1470.32 210.483 1470.69 210.483 1471.15C210.483 1471.58 210.662 1471.94 211.021 1472.24C211.476 1472.62 212.583 1473.02 214.341 1473.44C216.099 1473.85 217.399 1474.28 218.241 1474.72C219.083 1475.17 219.742 1475.77 220.219 1476.54C220.695 1477.31 220.933 1478.26 220.933 1479.39C220.933 1480.42 220.648 1481.38 220.078 1482.27C219.508 1483.17 218.703 1483.83 217.661 1484.27C216.619 1484.7 215.321 1484.92 213.767 1484.92C211.505 1484.92 209.767 1484.4 208.555 1483.35C207.342 1482.31 206.618 1480.78 206.382 1478.78Z"/>
<path d="M223.948 1469.88L223.948 1466.71L227.378 1466.71L227.378 1469.88L223.948 1469.88ZM223.948 1484.6L223.948 1471.64L227.378 1471.64L227.378 1484.6L223.948 1484.6Z"/>
<path d="M236.838 1471.64L236.838 1474.38L234.495 1474.38L234.495 1479.6C234.495 1480.66 234.517 1481.27 234.562 1481.45C234.607 1481.62 234.708 1481.77 234.867 1481.88C235.026 1482 235.219 1482.05 235.447 1482.05C235.764 1482.05 236.224 1481.94 236.826 1481.72L237.119 1484.38C236.322 1484.73 235.418 1484.9 234.409 1484.9C233.791 1484.9 233.233 1484.79 232.737 1484.59C232.24 1484.38 231.876 1484.11 231.644 1483.78C231.412 1483.45 231.252 1483.01 231.162 1482.44C231.089 1482.05 231.052 1481.24 231.052 1480.03L231.052 1474.38L229.478 1474.38L229.478 1471.64L231.052 1471.64L231.052 1469.07L234.495 1467.06L234.495 1471.64L236.838 1471.64Z"/>
<path d="M246.726 1480.48L250.144 1481.05C249.705 1482.31 249.011 1483.26 248.063 1483.92C247.115 1484.57 245.929 1484.9 244.504 1484.9C242.25 1484.9 240.582 1484.16 239.5 1482.69C238.645 1481.51 238.218 1480.02 238.218 1478.22C238.218 1476.07 238.779 1474.39 239.902 1473.17C241.025 1471.96 242.445 1471.35 244.163 1471.35C246.091 1471.35 247.613 1471.98 248.728 1473.26C249.843 1474.53 250.376 1476.48 250.327 1479.11L241.733 1479.11C241.758 1480.13 242.035 1480.92 242.563 1481.49C243.092 1482.05 243.752 1482.33 244.541 1482.33C245.078 1482.33 245.53 1482.19 245.896 1481.89C246.262 1481.6 246.539 1481.13 246.726 1480.48ZM246.921 1477.01C246.897 1476.02 246.641 1475.26 246.152 1474.75C245.664 1474.23 245.07 1473.97 244.37 1473.97C243.621 1473.97 243.003 1474.25 242.515 1474.79C242.026 1475.34 241.786 1476.08 241.794 1477.01L246.921 1477.01Z"/>
<path d="M264.658 1484.6L258.262 1466.71L262.18 1466.71L266.709 1479.95L271.091 1466.71L274.924 1466.71L268.516 1484.6L264.658 1484.6Z"/>
<path d="M276.292 1469.88L276.292 1466.71L279.722 1466.71L279.722 1469.88L276.292 1469.88ZM276.292 1484.6L276.292 1471.64L279.722 1471.64L279.722 1484.6L276.292 1484.6Z"/>
<path d="M282.029 1480.91L285.471 1480.38C285.618 1481.05 285.915 1481.55 286.362 1481.9C286.81 1482.25 287.437 1482.42 288.242 1482.42C289.129 1482.42 289.797 1482.26 290.244 1481.93C290.545 1481.7 290.696 1481.4 290.696 1481.02C290.696 1480.76 290.614 1480.54 290.452 1480.37C290.281 1480.21 289.898 1480.06 289.304 1479.92C286.537 1479.31 284.784 1478.75 284.043 1478.24C283.018 1477.54 282.505 1476.57 282.505 1475.33C282.505 1474.2 282.948 1473.26 283.835 1472.5C284.722 1471.73 286.098 1471.35 287.961 1471.35C289.736 1471.35 291.054 1471.64 291.917 1472.21C292.779 1472.79 293.373 1473.65 293.699 1474.78L290.464 1475.38C290.326 1474.87 290.063 1474.49 289.677 1474.22C289.29 1473.95 288.739 1473.81 288.022 1473.81C287.119 1473.81 286.472 1473.94 286.082 1474.19C285.821 1474.37 285.691 1474.6 285.691 1474.89C285.691 1475.13 285.805 1475.34 286.033 1475.51C286.342 1475.74 287.41 1476.06 289.237 1476.47C291.064 1476.89 292.34 1477.4 293.064 1478C293.78 1478.61 294.138 1479.46 294.138 1480.55C294.138 1481.74 293.642 1482.76 292.649 1483.62C291.656 1484.47 290.187 1484.9 288.242 1484.9C286.476 1484.9 285.079 1484.54 284.049 1483.82C283.02 1483.11 282.346 1482.13 282.029 1480.91Z"/>
<path d="M297.141 1469.88L297.141 1466.71L300.571 1466.71L300.571 1469.88L297.141 1469.88ZM297.141 1484.6L297.141 1471.64L300.571 1471.64L300.571 1484.6L297.141 1484.6Z"/>
<path d="M310.032 1471.64L310.032 1474.38L307.688 1474.38L307.688 1479.6C307.688 1480.66 307.71 1481.27 307.755 1481.45C307.8 1481.62 307.902 1481.77 308.06 1481.88C308.219 1482 308.412 1482.05 308.64 1482.05C308.958 1482.05 309.417 1481.94 310.02 1481.72L310.312 1484.38C309.515 1484.73 308.612 1484.9 307.603 1484.9C306.984 1484.9 306.427 1484.79 305.93 1484.59C305.434 1484.38 305.07 1484.11 304.838 1483.78C304.606 1483.45 304.445 1483.01 304.355 1482.44C304.282 1482.05 304.246 1481.24 304.246 1480.03L304.246 1474.38L302.671 1474.38L302.671 1471.64L304.246 1471.64L304.246 1469.07L307.688 1467.06L307.688 1471.64L310.032 1471.64Z"/>
<path d="M319.919 1480.48L323.337 1481.05C322.898 1482.31 322.204 1483.26 321.256 1483.92C320.308 1484.57 319.122 1484.9 317.698 1484.9C315.444 1484.9 313.775 1484.16 312.693 1482.69C311.838 1481.51 311.411 1480.02 311.411 1478.22C311.411 1476.07 311.973 1474.39 313.096 1473.17C314.219 1471.96 315.639 1471.35 317.356 1471.35C319.285 1471.35 320.806 1471.98 321.921 1473.26C323.036 1474.53 323.569 1476.48 323.521 1479.11L314.927 1479.11C314.951 1480.13 315.228 1480.92 315.757 1481.49C316.286 1482.05 316.945 1482.33 317.734 1482.33C318.271 1482.33 318.723 1482.19 319.089 1481.89C319.456 1481.6 319.732 1481.13 319.919 1480.48ZM320.115 1477.01C320.09 1476.02 319.834 1475.26 319.346 1474.75C318.857 1474.23 318.263 1473.97 317.563 1473.97C316.815 1473.97 316.196 1474.25 315.708 1474.79C315.22 1475.34 314.98 1476.08 314.988 1477.01L320.115 1477.01Z"/>
<path d="M334.849 1484.6L334.849 1482.66C334.377 1483.36 333.756 1483.9 332.987 1484.3C332.218 1484.7 331.406 1484.9 330.552 1484.9C329.681 1484.9 328.9 1484.71 328.208 1484.32C327.516 1483.94 327.016 1483.4 326.707 1482.71C326.397 1482.02 326.243 1481.06 326.243 1479.84L326.243 1471.64L329.673 1471.64L329.673 1477.6C329.673 1479.42 329.736 1480.54 329.862 1480.95C329.988 1481.36 330.218 1481.69 330.552 1481.93C330.885 1482.17 331.309 1482.29 331.821 1482.29C332.407 1482.29 332.932 1482.12 333.396 1481.8C333.86 1481.48 334.177 1481.08 334.348 1480.61C334.519 1480.13 334.604 1478.97 334.604 1477.11L334.604 1471.64L338.035 1471.64L338.035 1484.6L334.849 1484.6Z"/>
<path d="M344.871 1484.6L341.44 1484.6L341.44 1471.64L344.626 1471.64L344.626 1473.48C345.172 1472.61 345.662 1472.04 346.097 1471.76C346.533 1471.49 347.027 1471.35 347.581 1471.35C348.362 1471.35 349.115 1471.56 349.839 1471.99L348.777 1474.99C348.199 1474.61 347.662 1474.42 347.166 1474.42C346.685 1474.42 346.278 1474.56 345.945 1474.82C345.611 1475.09 345.349 1475.56 345.157 1476.26C344.966 1476.95 344.871 1478.4 344.871 1480.6L344.871 1484.6Z"/>
</g>
<g fill="#000000" opacity="1" stroke="none" vectornator:layerName="Texte 13">
<path d="M779.319 1484.6L779.319 1466.71L785.117 1466.71C787.314 1466.71 788.747 1466.8 789.414 1466.98C790.439 1467.25 791.298 1467.83 791.99 1468.73C792.681 1469.63 793.027 1470.79 793.027 1472.21C793.027 1473.31 792.828 1474.24 792.429 1474.99C792.03 1475.73 791.524 1476.32 790.909 1476.75C790.295 1477.18 789.67 1477.46 789.036 1477.6C788.173 1477.77 786.924 1477.85 785.288 1477.85L782.932 1477.85L782.932 1484.6L779.319 1484.6ZM782.932 1469.74L782.932 1474.81L784.91 1474.81C786.334 1474.81 787.286 1474.72 787.766 1474.53C788.246 1474.35 788.623 1474.05 788.895 1473.66C789.168 1473.26 789.304 1472.79 789.304 1472.26C789.304 1471.61 789.113 1471.08 788.73 1470.65C788.348 1470.23 787.864 1469.96 787.278 1469.86C786.847 1469.78 785.98 1469.74 784.678 1469.74L782.932 1469.74Z"/>
<path d="M795.981 1466.71L802.585 1466.71C804.075 1466.71 805.21 1466.82 805.991 1467.05C807.041 1467.36 807.94 1467.91 808.689 1468.7C809.438 1469.49 810.007 1470.45 810.398 1471.6C810.789 1472.74 810.984 1474.15 810.984 1475.83C810.984 1477.3 810.801 1478.57 810.435 1479.64C809.987 1480.94 809.348 1481.99 808.518 1482.8C807.891 1483.41 807.045 1483.88 805.979 1484.23C805.181 1484.48 804.115 1484.6 802.781 1484.6L795.981 1484.6L795.981 1466.71ZM799.595 1469.74L799.595 1481.59L802.292 1481.59C803.302 1481.59 804.03 1481.53 804.478 1481.42C805.063 1481.27 805.55 1481.02 805.936 1480.67C806.323 1480.32 806.638 1479.75 806.882 1478.95C807.126 1478.15 807.249 1477.05 807.249 1475.67C807.249 1474.29 807.126 1473.22 806.882 1472.48C806.638 1471.74 806.296 1471.16 805.857 1470.75C805.417 1470.33 804.86 1470.05 804.185 1469.91C803.68 1469.79 802.691 1469.74 801.218 1469.74L799.595 1469.74Z"/>
<path d="M814.072 1484.6L814.072 1466.71L826.34 1466.71L826.34 1469.74L817.686 1469.74L817.686 1473.97L825.156 1473.97L825.156 1477L817.686 1477L817.686 1484.6L814.072 1484.6Z"/>
</g>
</g>
</svg>
