<?xml version="1.0" encoding="UTF-8" standalone="no"?>
<!DOCTYPE svg PUBLIC "-//W3C//DTD SVG 1.1//EN" "http://www.w3.org/Graphics/SVG/1.1/DTD/svg11.dtd">
<!-- Created with Vectornator (http://vectornator.io/) -->
<svg height="100%" stroke-miterlimit="10" style="fill-rule:nonzero;clip-rule:evenodd;stroke-linecap:round;stroke-linejoin:round;" version="1.1" viewBox="0 0 1080 1675" width="100%" xml:space="preserve" xmlns="http://www.w3.org/2000/svg" xmlns:vectornator="http://vectornator.io" xmlns:xlink="http://www.w3.org/1999/xlink">
<defs/>
<path d="M0 0L1080 0L1080 1675L0 1675L0 0Z" fill="#ffffff" fill-rule="nonzero" opacity="1" stroke="none"/>
<g id="Calque-1" vectornator:layerName="Calque 1">
<path d="M40 40L1040 40L1040 120L40 120L40 40Z" fill="none" opacity="1" stroke="#000000" stroke-linecap="butt" stroke-linejoin="round" stroke-width="5.07805" vectornator:layerName="Rectangle 1"/>
<path d="M152.048 165L903.449 165L903.449 235L152.048 235L152.048 165Z" fill="none" opacity="1" stroke="#000000" stroke-linecap="butt" stroke-linejoin="round" stroke-width="5.07805" vectornator:layerName="Rectangle 5"/>
<g fill="#000000" opacity="1" stroke="none" vectornator:layerName="Texte 4">
<path d="M522.971 216.5L522.971 186.764L512.351 186.764L512.351 180.709L540.793 180.709L540.793 186.764L530.198 186.764L530.198 216.5L522.971 216.5Z"/>
<path d="M544.504 187.057L544.504 180.709L551.365 180.709L551.365 187.057L544.504 187.057ZM544.504 216.5L544.504 190.572L551.365 190.572L551.365 216.5L544.504 216.5Z"/>
<path d="M570.286 190.572L570.286 196.041L565.598 196.041L565.598 206.49C565.598 208.606 565.643 209.839 565.732 210.189C565.822 210.539 566.025 210.828 566.343 211.056C566.66 211.284 567.047 211.397 567.502 211.397C568.137 211.397 569.057 211.178 570.261 210.738L570.847 216.061C569.252 216.744 567.445 217.086 565.427 217.086C564.19 217.086 563.075 216.878 562.083 216.463C561.09 216.048 560.361 215.511 559.897 214.852C559.434 214.193 559.112 213.302 558.933 212.179C558.787 211.381 558.713 209.77 558.713 207.345L558.713 196.041L555.564 196.041L555.564 190.572L558.713 190.572L558.713 185.421L565.598 181.417L565.598 190.572L570.286 190.572Z"/>
<path d="M581.614 216.5L574.753 216.5L574.753 190.572L581.125 190.572L581.125 194.259C582.216 192.517 583.197 191.37 584.067 190.816C584.938 190.263 585.927 189.986 587.034 189.986C588.596 189.986 590.102 190.418 591.55 191.28L589.426 197.262C588.271 196.513 587.196 196.139 586.204 196.139C585.243 196.139 584.43 196.403 583.762 196.932C583.095 197.461 582.57 198.417 582.188 199.801C581.805 201.184 581.614 204.081 581.614 208.492L581.614 216.5Z"/>
<path d="M609.519 208.248L616.355 209.396C615.476 211.902 614.089 213.81 612.192 215.121C610.296 216.431 607.924 217.086 605.076 217.086C600.567 217.086 597.231 215.613 595.066 212.667C593.357 210.307 592.502 207.328 592.502 203.731C592.502 199.435 593.625 196.069 595.872 193.636C598.118 191.203 600.958 189.986 604.392 189.986C608.25 189.986 611.293 191.26 613.523 193.807C615.753 196.354 616.819 200.257 616.721 205.514L599.534 205.514C599.583 207.548 600.136 209.131 601.194 210.262C602.252 211.393 603.57 211.959 605.149 211.959C606.223 211.959 607.126 211.666 607.859 211.08C608.591 210.494 609.145 209.55 609.519 208.248ZM609.91 201.314C609.861 199.329 609.348 197.819 608.372 196.786C607.395 195.752 606.207 195.235 604.807 195.235C603.31 195.235 602.073 195.781 601.096 196.871C600.12 197.962 599.639 199.443 599.656 201.314L609.91 201.314Z"/>
</g>
<g fill="#000000" opacity="1" stroke="none" vectornator:layerName="Texte 5">
<path d="M440.916 99.8761L440.916 64.085L447.947 64.085L462.595 87.9864L462.595 64.085L469.309 64.085L469.309 99.8761L462.058 99.8761L447.629 76.5362L447.629 99.8761L440.916 99.8761Z"/>
<path d="M482.029 81.8585L475.803 80.7354C476.503 78.2289 477.708 76.3735 479.417 75.169C481.125 73.9646 483.665 73.3624 487.034 73.3624C490.094 73.3624 492.372 73.7245 493.87 74.4488C495.367 75.1731 496.421 76.0927 497.031 77.2076C497.642 78.3225 497.947 80.3692 497.947 83.3477L497.874 91.3556C497.874 93.6342 497.983 95.3147 498.203 96.3971C498.423 97.4794 498.834 98.6391 499.436 99.8761L492.649 99.8761C492.47 99.4203 492.25 98.7449 491.99 97.8497C491.876 97.4428 491.794 97.1742 491.746 97.044C490.574 98.1833 489.32 99.0378 487.986 99.6075C486.651 100.177 485.227 100.462 483.713 100.462C481.044 100.462 478.94 99.7377 477.402 98.2891C475.864 96.8406 475.095 95.0095 475.095 92.796C475.095 91.3311 475.445 90.025 476.145 88.8775C476.845 87.7301 477.826 86.8512 479.087 86.2408C480.348 85.6305 482.167 85.0974 484.543 84.6417C487.75 84.0395 489.972 83.4779 491.208 82.9571L491.208 82.2735C491.208 80.9552 490.883 80.0152 490.232 79.4537C489.581 78.8922 488.352 78.6114 486.545 78.6114C485.325 78.6114 484.373 78.8515 483.689 79.3316C483.005 79.8118 482.452 80.6541 482.029 81.8585ZM491.208 87.4249C490.33 87.7179 488.938 88.0678 487.034 88.4747C485.129 88.8816 483.884 89.2804 483.298 89.671C482.403 90.3057 481.956 91.1114 481.956 92.088C481.956 93.0483 482.314 93.8783 483.03 94.5782C483.746 95.2781 484.657 95.628 485.764 95.628C487.001 95.628 488.181 95.2211 489.304 94.4073C490.134 93.7888 490.68 93.032 490.94 92.1368C491.119 91.5509 491.208 90.436 491.208 88.7921L491.208 87.4249Z"/>
<path d="M511.838 99.8761L501.389 73.9483L508.591 73.9483L513.474 87.1807L514.89 91.5997C515.264 90.4766 515.5 89.7361 515.598 89.378C515.826 88.6456 516.07 87.9132 516.331 87.1807L521.262 73.9483L528.318 73.9483L518.015 99.8761L511.838 99.8761Z"/>
<path d="M532.517 70.4327L532.517 64.085L539.377 64.085L539.377 70.4327L532.517 70.4327ZM532.517 99.8761L532.517 73.9483L539.377 73.9483L539.377 99.8761L532.517 99.8761Z"/>
<path d="M545.774 101.585L553.611 102.537C553.741 103.449 554.042 104.075 554.514 104.417C555.165 104.905 556.191 105.149 557.59 105.149C559.381 105.149 560.723 104.881 561.619 104.344C562.221 103.986 562.677 103.408 562.986 102.61C563.197 102.041 563.303 100.991 563.303 99.461L563.303 95.6768C561.252 98.4763 558.665 99.8761 555.54 99.8761C552.056 99.8761 549.298 98.4031 547.263 95.4571C545.668 93.1296 544.871 90.2325 544.871 86.7657C544.871 82.42 545.916 79.0997 548.008 76.8048C550.099 74.5098 552.699 73.3624 555.808 73.3624C559.014 73.3624 561.659 74.7703 563.743 77.586L563.743 73.9483L570.164 73.9483L570.164 97.2149C570.164 100.275 569.911 102.562 569.407 104.075C568.902 105.589 568.194 106.777 567.283 107.64C566.371 108.502 565.155 109.178 563.633 109.666C562.111 110.154 560.186 110.399 557.859 110.399C553.464 110.399 550.347 109.646 548.508 108.14C546.669 106.635 545.75 104.726 545.75 102.415C545.75 102.187 545.758 101.911 545.774 101.585ZM551.902 86.3751C551.902 89.1257 552.435 91.1399 553.501 92.4176C554.567 93.6952 555.881 94.3341 557.444 94.3341C559.12 94.3341 560.536 93.679 561.692 92.3687C562.847 91.0585 563.425 89.1176 563.425 86.546C563.425 83.8604 562.872 81.8666 561.765 80.5645C560.658 79.2625 559.259 78.6114 557.566 78.6114C555.922 78.6114 554.567 79.2502 553.501 80.5279C552.435 81.8056 551.902 83.7546 551.902 86.3751Z"/>
<path d="M582.078 81.8585L575.852 80.7354C576.552 78.2289 577.756 76.3735 579.465 75.169C581.174 73.9646 583.713 73.3624 587.083 73.3624C590.142 73.3624 592.421 73.7245 593.918 74.4488C595.416 75.1731 596.47 76.0927 597.08 77.2076C597.69 78.3225 597.996 80.3692 597.996 83.3477L597.922 91.3556C597.922 93.6342 598.032 95.3147 598.252 96.3971C598.472 97.4794 598.883 98.6391 599.485 99.8761L592.698 99.8761C592.519 99.4203 592.299 98.7449 592.039 97.8497C591.925 97.4428 591.843 97.1742 591.794 97.044C590.623 98.1833 589.369 99.0378 588.035 99.6075C586.7 100.177 585.276 100.462 583.762 100.462C581.093 100.462 578.989 99.7377 577.451 98.2891C575.913 96.8406 575.144 95.0095 575.144 92.796C575.144 91.3311 575.494 90.025 576.194 88.8775C576.894 87.7301 577.874 86.8512 579.136 86.2408C580.397 85.6305 582.216 85.0974 584.592 84.6417C587.799 84.0395 590.02 83.4779 591.257 82.9571L591.257 82.2735C591.257 80.9552 590.932 80.0152 590.281 79.4537C589.63 78.8922 588.401 78.6114 586.594 78.6114C585.374 78.6114 584.421 78.8515 583.738 79.3316C583.054 79.8118 582.501 80.6541 582.078 81.8585ZM591.257 87.4249C590.378 87.7179 588.987 88.0678 587.083 88.4747C585.178 88.8816 583.933 89.2804 583.347 89.671C582.452 90.3057 582.004 91.1114 582.004 92.088C582.004 93.0483 582.362 93.8783 583.079 94.5782C583.795 95.2781 584.706 95.628 585.813 95.628C587.05 95.628 588.23 95.2211 589.353 94.4073C590.183 93.7888 590.728 93.032 590.989 92.1368C591.168 91.5509 591.257 90.436 591.257 88.7921L591.257 87.4249Z"/>
<path d="M616.648 73.9483L616.648 79.4171L611.96 79.4171L611.96 89.8663C611.96 91.9822 612.005 93.2151 612.095 93.565C612.184 93.915 612.388 94.2039 612.705 94.4317C613.022 94.6596 613.409 94.7735 613.865 94.7735C614.5 94.7735 615.419 94.5538 616.624 94.1143L617.209 99.4366C615.614 100.12 613.808 100.462 611.79 100.462C610.553 100.462 609.438 100.254 608.445 99.8394C607.452 99.4244 606.724 98.8873 606.26 98.2281C605.796 97.5689 605.474 96.6778 605.295 95.5548C605.149 94.7572 605.076 93.1459 605.076 90.7208L605.076 79.4171L601.926 79.4171L601.926 73.9483L605.076 73.9483L605.076 68.797L611.96 64.7931L611.96 73.9483L616.648 73.9483Z"/>
<path d="M621.409 70.4327L621.409 64.085L628.269 64.085L628.269 70.4327L621.409 70.4327ZM621.409 99.8761L621.409 73.9483L628.269 73.9483L628.269 99.8761L621.409 99.8761Z"/>
<path d="M633.713 86.546C633.713 84.2673 634.275 82.0619 635.398 79.9298C636.521 77.7976 638.112 76.17 640.171 75.047C642.23 73.9239 644.529 73.3624 647.068 73.3624C650.99 73.3624 654.205 74.636 656.711 77.1832C659.218 79.7304 660.471 82.949 660.471 86.8389C660.471 90.7615 659.206 94.0126 656.675 96.5924C654.144 99.1721 650.958 100.462 647.117 100.462C644.74 100.462 642.474 99.9249 640.317 98.8507C638.161 97.7764 636.521 96.2017 635.398 94.1265C634.275 92.0514 633.713 89.5245 633.713 86.546ZM640.745 86.9122C640.745 89.4838 641.355 91.4532 642.576 92.8204C643.796 94.1876 645.302 94.8712 647.092 94.8712C648.883 94.8712 650.384 94.1876 651.597 92.8204C652.809 91.4532 653.416 89.4675 653.416 86.8634C653.416 84.3243 652.809 82.3712 651.597 81.004C650.384 79.6368 648.883 78.9532 647.092 78.9532C645.302 78.9532 643.796 79.6368 642.576 81.004C641.355 82.3712 640.745 84.3406 640.745 86.9122Z"/>
<path d="M689.426 99.8761L682.566 99.8761L682.566 86.6436C682.566 83.8442 682.419 82.0334 682.126 81.2115C681.833 80.3896 681.357 79.7507 680.698 79.295C680.039 78.8393 679.246 78.6114 678.318 78.6114C677.13 78.6114 676.064 78.9369 675.12 79.588C674.176 80.239 673.529 81.1016 673.179 82.1759C672.829 83.2501 672.654 85.2358 672.654 88.1329L672.654 99.8761L665.793 99.8761L665.793 73.9483L672.166 73.9483L672.166 77.7569C674.428 74.8272 677.276 73.3624 680.71 73.3624C682.224 73.3624 683.608 73.635 684.861 74.1803C686.114 74.7255 687.062 75.4213 687.705 76.2677C688.348 77.114 688.796 78.0743 689.048 79.1485C689.3 80.2227 689.426 81.7608 689.426 83.7628L689.426 99.8761Z"/>
</g>
<path d="M40 1246.67L1040 1246.67L1040 1311.67L40 1311.67L40 1246.67Z" fill="none" opacity="1" stroke="#000000" stroke-linecap="butt" stroke-linejoin="round" stroke-width="5.07805" vectornator:layerName="Rectangle 10"/>
<g fill="#000000" opacity="1" stroke="none" vectornator:layerName="Texte 8">
<path d="M414.426 1291.67L414.426 1255.88L426.023 1255.88C430.417 1255.88 433.282 1256.06 434.617 1256.42C436.667 1256.96 438.385 1258.13 439.768 1259.92C441.152 1261.72 441.843 1264.05 441.843 1266.89C441.843 1269.09 441.444 1270.94 440.647 1272.44C439.849 1273.93 438.836 1275.11 437.607 1275.96C436.379 1276.82 435.129 1277.38 433.86 1277.66C432.135 1278 429.636 1278.17 426.365 1278.17L421.653 1278.17L421.653 1291.67L414.426 1291.67ZM421.653 1261.94L421.653 1272.09L425.608 1272.09C428.456 1272.09 430.361 1271.91 431.321 1271.53C432.281 1271.16 433.034 1270.57 433.579 1269.78C434.124 1268.98 434.397 1268.05 434.397 1266.99C434.397 1265.69 434.014 1264.62 433.25 1263.77C432.485 1262.92 431.516 1262.39 430.344 1262.18C429.482 1262.02 427.748 1261.94 425.144 1261.94L421.653 1261.94Z"/>
<path d="M447.727 1262.23L447.727 1255.88L454.587 1255.88L454.587 1262.23L447.727 1262.23ZM447.727 1291.67L447.727 1265.75L454.587 1265.75L454.587 1291.67L447.727 1291.67Z"/>
<path d="M476.633 1283.42L483.469 1284.57C482.59 1287.08 481.203 1288.99 479.307 1290.3C477.41 1291.61 475.038 1292.26 472.19 1292.26C467.681 1292.26 464.345 1290.79 462.18 1287.84C460.471 1285.48 459.617 1282.5 459.617 1278.91C459.617 1274.61 460.74 1271.24 462.986 1268.81C465.232 1266.38 468.072 1265.16 471.506 1265.16C475.364 1265.16 478.407 1266.43 480.637 1268.98C482.867 1271.53 483.933 1275.43 483.835 1280.69L466.648 1280.69C466.697 1282.72 467.25 1284.31 468.308 1285.44C469.366 1286.57 470.684 1287.13 472.263 1287.13C473.337 1287.13 474.241 1286.84 474.973 1286.25C475.706 1285.67 476.259 1284.72 476.633 1283.42ZM477.024 1276.49C476.975 1274.5 476.462 1272.99 475.486 1271.96C474.509 1270.93 473.321 1270.41 471.921 1270.41C470.424 1270.41 469.187 1270.96 468.21 1272.05C467.234 1273.14 466.754 1274.62 466.77 1276.49L477.024 1276.49Z"/>
<path d="M513.206 1291.67L506.833 1291.67L506.833 1287.87C505.776 1289.35 504.526 1290.45 503.086 1291.17C501.646 1291.9 500.193 1292.26 498.728 1292.26C495.75 1292.26 493.198 1291.06 491.074 1288.66C488.95 1286.26 487.888 1282.91 487.888 1278.61C487.888 1274.22 488.922 1270.88 490.989 1268.59C493.056 1266.3 495.668 1265.16 498.826 1265.16C501.723 1265.16 504.229 1266.37 506.345 1268.77L506.345 1255.88L513.206 1255.88L513.206 1291.67ZM494.895 1278.15C494.895 1280.92 495.278 1282.92 496.042 1284.16C497.149 1285.95 498.695 1286.84 500.681 1286.84C502.26 1286.84 503.603 1286.17 504.709 1284.83C505.816 1283.48 506.37 1281.48 506.37 1278.81C506.37 1275.83 505.833 1273.69 504.758 1272.38C503.684 1271.07 502.309 1270.41 500.632 1270.41C499.005 1270.41 497.642 1271.06 496.543 1272.35C495.444 1273.65 494.895 1275.58 494.895 1278.15Z"/>
<path d="M557.639 1291.67L551.267 1291.67L551.267 1287.87C550.209 1289.35 548.96 1290.45 547.52 1291.17C546.079 1291.9 544.626 1292.26 543.162 1292.26C540.183 1292.26 537.632 1291.06 535.508 1288.66C533.384 1286.26 532.322 1282.91 532.322 1278.61C532.322 1274.22 533.355 1270.88 535.422 1268.59C537.489 1266.3 540.102 1265.16 543.259 1265.16C546.156 1265.16 548.663 1266.37 550.779 1268.77L550.779 1255.88L557.639 1255.88L557.639 1291.67ZM539.329 1278.15C539.329 1280.92 539.711 1282.92 540.476 1284.16C541.583 1285.95 543.129 1286.84 545.115 1286.84C546.694 1286.84 548.036 1286.17 549.143 1284.83C550.25 1283.48 550.803 1281.48 550.803 1278.81C550.803 1275.83 550.266 1273.69 549.192 1272.38C548.118 1271.07 546.742 1270.41 545.066 1270.41C543.438 1270.41 542.075 1271.06 540.977 1272.35C539.878 1273.65 539.329 1275.58 539.329 1278.15Z"/>
<path d="M579.417 1283.42L586.252 1284.57C585.374 1287.08 583.986 1288.99 582.09 1290.3C580.194 1291.61 577.821 1292.26 574.973 1292.26C570.465 1292.26 567.128 1290.79 564.963 1287.84C563.254 1285.48 562.4 1282.5 562.4 1278.91C562.4 1274.61 563.523 1271.24 565.769 1268.81C568.015 1266.38 570.855 1265.16 574.29 1265.16C578.147 1265.16 581.191 1266.43 583.42 1268.98C585.65 1271.53 586.716 1275.43 586.619 1280.69L569.431 1280.69C569.48 1282.72 570.033 1284.31 571.091 1285.44C572.149 1286.57 573.468 1287.13 575.046 1287.13C576.121 1287.13 577.024 1286.84 577.756 1286.25C578.489 1285.67 579.042 1284.72 579.417 1283.42ZM579.807 1276.49C579.758 1274.5 579.246 1272.99 578.269 1271.96C577.292 1270.93 576.104 1270.41 574.705 1270.41C573.207 1270.41 571.97 1270.96 570.994 1272.05C570.017 1273.14 569.537 1274.62 569.553 1276.49L579.807 1276.49Z"/>
<path d="M605.906 1265.75L612.302 1265.75L612.302 1269.56C613.132 1268.25 614.255 1267.2 615.671 1266.38C617.087 1265.57 618.658 1265.16 620.383 1265.16C623.394 1265.16 625.95 1266.34 628.049 1268.7C630.149 1271.06 631.199 1274.35 631.199 1278.56C631.199 1282.89 630.141 1286.26 628.025 1288.66C625.909 1291.06 623.346 1292.26 620.334 1292.26C618.902 1292.26 617.604 1291.98 616.44 1291.41C615.277 1290.84 614.052 1289.86 612.766 1288.48L612.766 1301.54L605.906 1301.54L605.906 1265.75ZM612.693 1278.27C612.693 1281.18 613.271 1283.34 614.426 1284.73C615.582 1286.12 616.99 1286.82 618.65 1286.82C620.245 1286.82 621.571 1286.18 622.629 1284.9C623.687 1283.62 624.216 1281.53 624.216 1278.61C624.216 1275.9 623.671 1273.88 622.581 1272.56C621.49 1271.24 620.139 1270.58 618.528 1270.58C616.851 1270.58 615.46 1271.23 614.353 1272.52C613.246 1273.82 612.693 1275.73 612.693 1278.27Z"/>
<path d="M641.77 1273.66L635.544 1272.53C636.244 1270.03 637.449 1268.17 639.158 1266.97C640.867 1265.76 643.406 1265.16 646.775 1265.16C649.835 1265.16 652.113 1265.52 653.611 1266.25C655.108 1266.97 656.162 1267.89 656.772 1269.01C657.383 1270.12 657.688 1272.17 657.688 1275.15L657.615 1283.15C657.615 1285.43 657.725 1287.11 657.944 1288.2C658.164 1289.28 658.575 1290.44 659.177 1291.67L652.39 1291.67C652.211 1291.22 651.991 1290.54 651.731 1289.65C651.617 1289.24 651.536 1288.97 651.487 1288.84C650.315 1289.98 649.062 1290.84 647.727 1291.41C646.392 1291.98 644.968 1292.26 643.455 1292.26C640.785 1292.26 638.682 1291.54 637.144 1290.09C635.605 1288.64 634.836 1286.81 634.836 1284.59C634.836 1283.13 635.186 1281.82 635.886 1280.68C636.586 1279.53 637.567 1278.65 638.828 1278.04C640.09 1277.43 641.908 1276.9 644.285 1276.44C647.491 1275.84 649.713 1275.28 650.95 1274.76L650.95 1274.07C650.95 1272.75 650.624 1271.81 649.973 1271.25C649.322 1270.69 648.093 1270.41 646.287 1270.41C645.066 1270.41 644.114 1270.65 643.43 1271.13C642.747 1271.61 642.193 1272.45 641.77 1273.66ZM650.95 1279.22C650.071 1279.52 648.679 1279.87 646.775 1280.27C644.871 1280.68 643.625 1281.08 643.04 1281.47C642.144 1282.1 641.697 1282.91 641.697 1283.89C641.697 1284.85 642.055 1285.68 642.771 1286.38C643.487 1287.08 644.399 1287.43 645.505 1287.43C646.742 1287.43 647.922 1287.02 649.045 1286.21C649.875 1285.59 650.421 1284.83 650.681 1283.94C650.86 1283.35 650.95 1282.23 650.95 1280.59L650.95 1279.22Z"/>
<path d="M663.816 1293.38L671.653 1294.34C671.783 1295.25 672.084 1295.87 672.556 1296.22C673.207 1296.7 674.233 1296.95 675.632 1296.95C677.423 1296.95 678.765 1296.68 679.661 1296.14C680.263 1295.78 680.719 1295.21 681.028 1294.41C681.239 1293.84 681.345 1292.79 681.345 1291.26L681.345 1287.48C679.294 1290.28 676.707 1291.67 673.582 1291.67C670.098 1291.67 667.34 1290.2 665.305 1287.26C663.71 1284.93 662.913 1282.03 662.913 1278.56C662.913 1274.22 663.958 1270.9 666.05 1268.6C668.141 1266.31 670.741 1265.16 673.85 1265.16C677.056 1265.16 679.701 1266.57 681.785 1269.38L681.785 1265.75L688.206 1265.75L688.206 1289.01C688.206 1292.07 687.953 1294.36 687.449 1295.87C686.944 1297.39 686.236 1298.58 685.325 1299.44C684.413 1300.3 683.197 1300.98 681.675 1301.46C680.153 1301.95 678.228 1302.2 675.901 1302.2C671.506 1302.2 668.389 1301.44 666.55 1299.94C664.711 1298.43 663.792 1296.53 663.792 1294.21C663.792 1293.99 663.8 1293.71 663.816 1293.38ZM669.944 1278.17C669.944 1280.92 670.477 1282.94 671.543 1284.22C672.609 1285.49 673.923 1286.13 675.486 1286.13C677.162 1286.13 678.578 1285.48 679.734 1284.17C680.889 1282.86 681.467 1280.92 681.467 1278.34C681.467 1275.66 680.914 1273.67 679.807 1272.36C678.7 1271.06 677.301 1270.41 675.608 1270.41C673.964 1270.41 672.609 1271.05 671.543 1272.33C670.477 1273.6 669.944 1275.55 669.944 1278.17Z"/>
<path d="M710.007 1283.42L716.843 1284.57C715.964 1287.08 714.577 1288.99 712.681 1290.3C710.785 1291.61 708.412 1292.26 705.564 1292.26C701.056 1292.26 697.719 1290.79 695.554 1287.84C693.845 1285.48 692.991 1282.5 692.991 1278.91C692.991 1274.61 694.114 1271.24 696.36 1268.81C698.606 1266.38 701.446 1265.16 704.88 1265.16C708.738 1265.16 711.781 1266.43 714.011 1268.98C716.241 1271.53 717.307 1275.43 717.209 1280.69L700.022 1280.69C700.071 1282.72 700.624 1284.31 701.682 1285.44C702.74 1286.57 704.058 1287.13 705.637 1287.13C706.711 1287.13 707.615 1286.84 708.347 1286.25C709.08 1285.67 709.633 1284.72 710.007 1283.42ZM710.398 1276.49C710.349 1274.5 709.836 1272.99 708.86 1271.96C707.883 1270.93 706.695 1270.41 705.295 1270.41C703.798 1270.41 702.561 1270.96 701.584 1272.05C700.608 1273.14 700.128 1274.62 700.144 1276.49L710.398 1276.49Z"/>
</g>
<g fill="#000000" opacity="1" stroke="none" vectornator:layerName="Texte 11">
<path d="M483.517 1068.7L483.517 1052.95L488.619 1052.95C490.553 1052.95 491.813 1053.03 492.401 1053.19C493.303 1053.42 494.059 1053.94 494.667 1054.73C495.276 1055.52 495.58 1056.54 495.58 1057.8C495.58 1058.76 495.405 1059.57 495.054 1060.23C494.703 1060.89 494.257 1061.41 493.717 1061.79C493.176 1062.16 492.626 1062.41 492.068 1062.53C491.309 1062.68 490.209 1062.76 488.77 1062.76L486.697 1062.76L486.697 1068.7L483.517 1068.7ZM486.697 1055.61L486.697 1060.08L488.437 1060.08C489.69 1060.08 490.528 1060 490.95 1059.84C491.373 1059.67 491.704 1059.41 491.944 1059.06C492.184 1058.71 492.304 1058.3 492.304 1057.84C492.304 1057.27 492.136 1056.79 491.799 1056.42C491.463 1056.05 491.036 1055.82 490.521 1055.72C490.141 1055.65 489.379 1055.61 488.233 1055.61L486.697 1055.61Z"/>
<path d="M500.425 1060.77L497.686 1060.28C497.994 1059.17 498.524 1058.36 499.276 1057.83C500.028 1057.3 501.145 1057.03 502.627 1057.03C503.974 1057.03 504.976 1057.19 505.635 1057.51C506.294 1057.83 506.758 1058.23 507.026 1058.72C507.295 1059.22 507.429 1060.12 507.429 1061.43L507.397 1064.95C507.397 1065.95 507.445 1066.69 507.542 1067.17C507.638 1067.64 507.819 1068.15 508.084 1068.7L505.098 1068.7C505.019 1068.5 504.922 1068.2 504.808 1067.81C504.758 1067.63 504.722 1067.51 504.7 1067.45C504.185 1067.95 503.633 1068.33 503.046 1068.58C502.459 1068.83 501.832 1068.96 501.166 1068.96C499.992 1068.96 499.066 1068.64 498.389 1068C497.713 1067.36 497.374 1066.56 497.374 1065.58C497.374 1064.94 497.528 1064.36 497.836 1063.86C498.144 1063.35 498.576 1062.97 499.131 1062.7C499.686 1062.43 500.486 1062.2 501.532 1062C502.942 1061.73 503.92 1061.48 504.464 1061.25L504.464 1060.95C504.464 1060.37 504.321 1059.96 504.034 1059.71C503.748 1059.47 503.207 1059.34 502.412 1059.34C501.875 1059.34 501.456 1059.45 501.156 1059.66C500.855 1059.87 500.611 1060.24 500.425 1060.77ZM504.464 1063.22C504.077 1063.35 503.465 1063.5 502.627 1063.68C501.789 1063.86 501.241 1064.04 500.984 1064.21C500.59 1064.49 500.393 1064.84 500.393 1065.27C500.393 1065.69 500.55 1066.06 500.866 1066.37C501.181 1066.68 501.582 1066.83 502.069 1066.83C502.613 1066.83 503.132 1066.65 503.626 1066.29C503.991 1066.02 504.231 1065.69 504.346 1065.29C504.425 1065.04 504.464 1064.54 504.464 1063.82L504.464 1063.22Z"/>
<path d="M513.294 1068.7L510.276 1068.7L510.276 1057.29L513.079 1057.29L513.079 1058.91C513.559 1058.15 513.991 1057.64 514.374 1057.4C514.757 1057.15 515.192 1057.03 515.679 1057.03C516.366 1057.03 517.029 1057.22 517.666 1057.6L516.732 1060.23C516.223 1059.9 515.751 1059.74 515.314 1059.74C514.891 1059.74 514.533 1059.86 514.24 1060.09C513.946 1060.32 513.715 1060.74 513.547 1061.35C513.378 1061.96 513.294 1063.23 513.294 1065.18L513.294 1068.7Z"/>
<path d="M521.222 1060.77L518.483 1060.28C518.791 1059.17 519.321 1058.36 520.073 1057.83C520.824 1057.3 521.942 1057.03 523.424 1057.03C524.77 1057.03 525.773 1057.19 526.432 1057.51C527.091 1057.83 527.554 1058.23 527.823 1058.72C528.092 1059.22 528.226 1060.12 528.226 1061.43L528.194 1064.95C528.194 1065.95 528.242 1066.69 528.339 1067.17C528.435 1067.64 528.616 1068.15 528.881 1068.7L525.895 1068.7C525.816 1068.5 525.719 1068.2 525.605 1067.81C525.555 1067.63 525.519 1067.51 525.497 1067.45C524.982 1067.95 524.43 1068.33 523.843 1068.58C523.256 1068.83 522.629 1068.96 521.963 1068.96C520.789 1068.96 519.863 1068.64 519.186 1068C518.51 1067.36 518.171 1066.56 518.171 1065.58C518.171 1064.94 518.325 1064.36 518.633 1063.86C518.941 1063.35 519.373 1062.97 519.928 1062.7C520.483 1062.43 521.283 1062.2 522.328 1062C523.739 1061.73 524.717 1061.48 525.261 1061.25L525.261 1060.95C525.261 1060.37 525.118 1059.96 524.831 1059.71C524.545 1059.47 524.004 1059.34 523.209 1059.34C522.672 1059.34 522.253 1059.45 521.952 1059.66C521.652 1059.87 521.408 1060.24 521.222 1060.77ZM525.261 1063.22C524.874 1063.35 524.262 1063.5 523.424 1063.68C522.586 1063.86 522.038 1064.04 521.781 1064.21C521.387 1064.49 521.19 1064.84 521.19 1065.27C521.19 1065.69 521.347 1066.06 521.662 1066.37C521.977 1066.68 522.379 1066.83 522.866 1066.83C523.41 1066.83 523.929 1066.65 524.423 1066.29C524.788 1066.02 525.028 1065.69 525.143 1065.29C525.222 1065.04 525.261 1064.54 525.261 1063.82L525.261 1063.22Z"/>
<path d="M530.922 1069.45L534.37 1069.87C534.428 1070.27 534.56 1070.55 534.768 1070.7C535.054 1070.91 535.505 1071.02 536.121 1071.02C536.909 1071.02 537.5 1070.9 537.894 1070.66C538.159 1070.51 538.359 1070.25 538.495 1069.9C538.588 1069.65 538.635 1069.19 538.635 1068.52L538.635 1066.85C537.733 1068.08 536.594 1068.7 535.219 1068.7C533.686 1068.7 532.473 1068.05 531.577 1066.75C530.876 1065.73 530.525 1064.46 530.525 1062.93C530.525 1061.02 530.985 1059.56 531.905 1058.55C532.825 1057.54 533.969 1057.03 535.337 1057.03C536.748 1057.03 537.912 1057.65 538.828 1058.89L538.828 1057.29L541.654 1057.29L541.654 1067.53C541.654 1068.87 541.543 1069.88 541.321 1070.55C541.099 1071.21 540.787 1071.74 540.386 1072.11C539.985 1072.49 539.45 1072.79 538.78 1073.01C538.11 1073.22 537.264 1073.33 536.24 1073.33C534.306 1073.33 532.935 1073 532.125 1072.33C531.316 1071.67 530.911 1070.83 530.911 1069.82C530.911 1069.72 530.915 1069.59 530.922 1069.45ZM533.618 1062.76C533.618 1063.97 533.853 1064.85 534.322 1065.42C534.791 1065.98 535.369 1066.26 536.057 1066.26C536.795 1066.26 537.418 1065.97 537.926 1065.4C538.435 1064.82 538.689 1063.96 538.689 1062.83C538.689 1061.65 538.445 1060.77 537.958 1060.2C537.471 1059.63 536.855 1059.34 536.111 1059.34C535.387 1059.34 534.791 1059.62 534.322 1060.19C533.853 1060.75 533.618 1061.61 533.618 1062.76Z"/>
<path d="M547.53 1068.7L544.511 1068.7L544.511 1057.29L547.315 1057.29L547.315 1058.91C547.795 1058.15 548.226 1057.64 548.609 1057.4C548.992 1057.15 549.427 1057.03 549.914 1057.03C550.602 1057.03 551.264 1057.22 551.902 1057.6L550.967 1060.23C550.459 1059.9 549.986 1059.74 549.549 1059.74C549.127 1059.74 548.769 1059.86 548.475 1060.09C548.181 1060.32 547.95 1060.74 547.782 1061.35C547.614 1061.96 547.53 1063.23 547.53 1065.18L547.53 1068.7Z"/>
<path d="M555.457 1060.77L552.718 1060.28C553.026 1059.17 553.556 1058.36 554.308 1057.83C555.06 1057.3 556.177 1057.03 557.659 1057.03C559.006 1057.03 560.008 1057.19 560.667 1057.51C561.326 1057.83 561.79 1058.23 562.058 1058.72C562.327 1059.22 562.461 1060.12 562.461 1061.43L562.429 1064.95C562.429 1065.95 562.477 1066.69 562.574 1067.17C562.671 1067.64 562.852 1068.15 563.116 1068.7L560.13 1068.7C560.051 1068.5 559.955 1068.2 559.84 1067.81C559.79 1067.63 559.754 1067.51 559.733 1067.45C559.217 1067.95 558.666 1068.33 558.078 1068.58C557.491 1068.83 556.865 1068.96 556.199 1068.96C555.024 1068.96 554.098 1068.64 553.422 1068C552.745 1067.36 552.407 1066.56 552.407 1065.58C552.407 1064.94 552.56 1064.36 552.868 1063.86C553.176 1063.35 553.608 1062.97 554.163 1062.7C554.718 1062.43 555.518 1062.2 556.564 1062C557.975 1061.73 558.952 1061.48 559.496 1061.25L559.496 1060.95C559.496 1060.37 559.353 1059.96 559.067 1059.71C558.78 1059.47 558.24 1059.34 557.445 1059.34C556.908 1059.34 556.489 1059.45 556.188 1059.66C555.887 1059.87 555.644 1060.24 555.457 1060.77ZM559.496 1063.22C559.11 1063.35 558.497 1063.5 557.659 1063.68C556.822 1063.86 556.274 1064.04 556.016 1064.21C555.622 1064.49 555.425 1064.84 555.425 1065.27C555.425 1065.69 555.583 1066.06 555.898 1066.37C556.213 1066.68 556.614 1066.83 557.101 1066.83C557.645 1066.83 558.164 1066.65 558.658 1066.29C559.024 1066.02 559.264 1065.69 559.378 1065.29C559.457 1065.04 559.496 1064.54 559.496 1063.82L559.496 1063.22Z"/>
<path d="M565.351 1057.29L568.165 1057.29L568.165 1058.97C568.531 1058.39 569.025 1057.93 569.648 1057.57C570.271 1057.21 570.962 1057.03 571.721 1057.03C573.046 1057.03 574.17 1057.55 575.094 1058.59C576.018 1059.63 576.48 1061.08 576.48 1062.93C576.48 1064.84 576.014 1066.32 575.083 1067.37C574.152 1068.43 573.024 1068.96 571.699 1068.96C571.069 1068.96 570.498 1068.83 569.986 1068.58C569.474 1068.33 568.935 1067.9 568.369 1067.29L568.369 1073.04L565.351 1073.04L565.351 1057.29ZM568.337 1062.8C568.337 1064.08 568.591 1065.03 569.1 1065.64C569.608 1066.25 570.228 1066.56 570.958 1066.56C571.66 1066.56 572.244 1066.28 572.709 1065.72C573.175 1065.16 573.408 1064.23 573.408 1062.95C573.408 1061.76 573.168 1060.87 572.688 1060.29C572.208 1059.71 571.614 1059.42 570.905 1059.42C570.167 1059.42 569.555 1059.7 569.068 1060.27C568.581 1060.84 568.337 1061.68 568.337 1062.8Z"/>
<path d="M581.883 1052.95L581.883 1058.74C582.857 1057.6 584.021 1057.03 585.374 1057.03C586.069 1057.03 586.696 1057.16 587.254 1057.42C587.813 1057.68 588.234 1058.01 588.516 1058.41C588.799 1058.81 588.993 1059.25 589.096 1059.74C589.2 1060.23 589.252 1060.98 589.252 1062.01L589.252 1068.7L586.234 1068.7L586.234 1062.67C586.234 1061.48 586.176 1060.72 586.062 1060.39C585.947 1060.07 585.745 1059.82 585.455 1059.63C585.165 1059.44 584.801 1059.34 584.365 1059.34C583.863 1059.34 583.416 1059.46 583.022 1059.71C582.628 1059.95 582.34 1060.32 582.157 1060.81C581.974 1061.3 581.883 1062.02 581.883 1062.98L581.883 1068.7L578.865 1068.7L578.865 1052.95L581.883 1052.95Z"/>
<path d="M598.92 1065.07L601.928 1065.57C601.541 1066.68 600.931 1067.52 600.096 1068.09C599.262 1068.67 598.218 1068.96 596.965 1068.96C594.981 1068.96 593.513 1068.31 592.561 1067.01C591.809 1065.97 591.433 1064.66 591.433 1063.08C591.433 1061.19 591.927 1059.71 592.915 1058.64C593.904 1057.57 595.153 1057.03 596.664 1057.03C598.362 1057.03 599.701 1057.59 600.682 1058.71C601.663 1059.83 602.132 1061.55 602.089 1063.86L594.527 1063.86C594.548 1064.76 594.792 1065.46 595.257 1065.95C595.723 1066.45 596.303 1066.7 596.997 1066.7C597.47 1066.7 597.867 1066.57 598.19 1066.31C598.512 1066.06 598.755 1065.64 598.92 1065.07ZM599.092 1062.02C599.071 1061.14 598.845 1060.48 598.415 1060.02C597.986 1059.57 597.463 1059.34 596.847 1059.34C596.188 1059.34 595.644 1059.58 595.214 1060.06C594.784 1060.54 594.573 1061.19 594.58 1062.02L599.092 1062.02Z"/>
</g>
<g fill="#000000" opacity="1" stroke="none" vectornator:layerName="Texte 12">
<path d="M742.594 1038.76L742.594 1023.02L747.696 1023.02C749.63 1023.02 750.89 1023.1 751.478 1023.25C752.38 1023.49 753.135 1024 753.744 1024.79C754.353 1025.59 754.657 1026.61 754.657 1027.86C754.657 1028.83 754.482 1029.64 754.131 1030.3C753.78 1030.96 753.334 1031.48 752.793 1031.85C752.253 1032.23 751.703 1032.48 751.145 1032.6C750.385 1032.75 749.286 1032.82 747.847 1032.82L745.773 1032.82L745.773 1038.76L742.594 1038.76ZM745.773 1025.68L745.773 1030.15L747.514 1030.15C748.767 1030.15 749.605 1030.07 750.027 1029.9C750.45 1029.74 750.781 1029.48 751.021 1029.13C751.261 1028.78 751.381 1028.37 751.381 1027.9C751.381 1027.33 751.213 1026.86 750.876 1026.49C750.539 1026.11 750.113 1025.88 749.598 1025.79C749.218 1025.72 748.455 1025.68 747.31 1025.68L745.773 1025.68Z"/>
<path d="M759.502 1030.84L756.763 1030.34C757.071 1029.24 757.601 1028.42 758.353 1027.89C759.104 1027.36 760.222 1027.1 761.704 1027.1C763.05 1027.1 764.053 1027.26 764.712 1027.58C765.371 1027.9 765.834 1028.3 766.103 1028.79C766.372 1029.28 766.506 1030.18 766.506 1031.49L766.474 1035.02C766.474 1036.02 766.522 1036.76 766.619 1037.23C766.715 1037.71 766.896 1038.22 767.161 1038.76L764.175 1038.76C764.096 1038.56 763.999 1038.27 763.885 1037.87C763.835 1037.69 763.799 1037.58 763.777 1037.52C763.262 1038.02 762.71 1038.4 762.123 1038.65C761.536 1038.9 760.909 1039.02 760.243 1039.02C759.069 1039.02 758.143 1038.7 757.466 1038.07C756.79 1037.43 756.451 1036.62 756.451 1035.65C756.451 1035 756.605 1034.43 756.913 1033.93C757.221 1033.42 757.653 1033.03 758.208 1032.77C758.763 1032.5 759.563 1032.26 760.608 1032.06C762.019 1031.8 762.997 1031.55 763.541 1031.32L763.541 1031.02C763.541 1030.44 763.398 1030.03 763.111 1029.78C762.825 1029.53 762.284 1029.41 761.489 1029.41C760.952 1029.41 760.533 1029.51 760.232 1029.73C759.932 1029.94 759.688 1030.31 759.502 1030.84ZM763.541 1033.29C763.154 1033.41 762.542 1033.57 761.704 1033.75C760.866 1033.93 760.318 1034.1 760.061 1034.27C759.667 1034.55 759.47 1034.91 759.47 1035.34C759.47 1035.76 759.627 1036.13 759.942 1036.43C760.257 1036.74 760.659 1036.9 761.146 1036.9C761.69 1036.9 762.209 1036.72 762.703 1036.36C763.068 1036.09 763.308 1035.75 763.423 1035.36C763.502 1035.1 763.541 1034.61 763.541 1033.89L763.541 1033.29Z"/>
<path d="M772.371 1038.76L769.353 1038.76L769.353 1027.36L772.156 1027.36L772.156 1028.98C772.636 1028.21 773.068 1027.71 773.451 1027.46C773.834 1027.22 774.269 1027.1 774.756 1027.1C775.443 1027.1 776.106 1027.29 776.743 1027.67L775.809 1030.3C775.3 1029.97 774.827 1029.81 774.391 1029.81C773.968 1029.81 773.61 1029.92 773.316 1030.15C773.023 1030.39 772.792 1030.81 772.624 1031.42C772.455 1032.03 772.371 1033.3 772.371 1035.24L772.371 1038.76Z"/>
<path d="M780.299 1030.84L777.56 1030.34C777.868 1029.24 778.397 1028.42 779.149 1027.89C779.901 1027.36 781.019 1027.1 782.501 1027.1C783.847 1027.1 784.85 1027.26 785.509 1027.58C786.168 1027.9 786.631 1028.3 786.9 1028.79C787.168 1029.28 787.303 1030.18 787.303 1031.49L787.271 1035.02C787.271 1036.02 787.319 1036.76 787.416 1037.23C787.512 1037.71 787.693 1038.22 787.958 1038.76L784.972 1038.76C784.893 1038.56 784.796 1038.27 784.682 1037.87C784.632 1037.69 784.596 1037.58 784.574 1037.52C784.059 1038.02 783.507 1038.4 782.92 1038.65C782.333 1038.9 781.706 1039.02 781.04 1039.02C779.866 1039.02 778.94 1038.7 778.263 1038.07C777.586 1037.43 777.248 1036.62 777.248 1035.65C777.248 1035 777.402 1034.43 777.71 1033.93C778.018 1033.42 778.449 1033.03 779.004 1032.77C779.559 1032.5 780.36 1032.26 781.405 1032.06C782.816 1031.8 783.794 1031.55 784.338 1031.32L784.338 1031.02C784.338 1030.44 784.195 1030.03 783.908 1029.78C783.622 1029.53 783.081 1029.41 782.286 1029.41C781.749 1029.41 781.33 1029.51 781.029 1029.73C780.729 1029.94 780.485 1030.31 780.299 1030.84ZM784.338 1033.29C783.951 1033.41 783.339 1033.57 782.501 1033.75C781.663 1033.93 781.115 1034.1 780.857 1034.27C780.464 1034.55 780.267 1034.91 780.267 1035.34C780.267 1035.76 780.424 1036.13 780.739 1036.43C781.054 1036.74 781.455 1036.9 781.942 1036.9C782.487 1036.9 783.006 1036.72 783.5 1036.36C783.865 1036.09 784.105 1035.75 784.22 1035.36C784.299 1035.1 784.338 1034.61 784.338 1033.89L784.338 1033.29Z"/>
<path d="M789.999 1039.52L793.447 1039.94C793.505 1040.34 793.637 1040.61 793.845 1040.76C794.131 1040.98 794.582 1041.08 795.198 1041.08C795.986 1041.08 796.577 1040.97 796.971 1040.73C797.236 1040.57 797.436 1040.32 797.572 1039.97C797.665 1039.72 797.712 1039.26 797.712 1038.58L797.712 1036.92C796.81 1038.15 795.671 1038.76 794.296 1038.76C792.763 1038.76 791.549 1038.12 790.654 1036.82C789.952 1035.8 789.602 1034.52 789.602 1033C789.602 1031.08 790.062 1029.62 790.982 1028.61C791.902 1027.6 793.046 1027.1 794.414 1027.1C795.825 1027.1 796.989 1027.72 797.905 1028.96L797.905 1027.36L800.73 1027.36L800.73 1037.59C800.73 1038.94 800.619 1039.95 800.397 1040.61C800.175 1041.28 799.864 1041.8 799.463 1042.18C799.062 1042.56 798.527 1042.86 797.857 1043.07C797.187 1043.29 796.34 1043.39 795.316 1043.39C793.383 1043.39 792.011 1043.06 791.202 1042.4C790.393 1041.74 789.988 1040.9 789.988 1039.88C789.988 1039.78 789.992 1039.66 789.999 1039.52ZM792.695 1032.82C792.695 1034.03 792.93 1034.92 793.399 1035.48C793.868 1036.05 794.446 1036.33 795.134 1036.33C795.871 1036.33 796.494 1036.04 797.003 1035.46C797.511 1034.88 797.766 1034.03 797.766 1032.9C797.766 1031.72 797.522 1030.84 797.035 1030.27C796.548 1029.69 795.932 1029.41 795.188 1029.41C794.464 1029.41 793.868 1029.69 793.399 1030.25C792.93 1030.81 792.695 1031.67 792.695 1032.82Z"/>
<path d="M806.606 1038.76L803.588 1038.76L803.588 1027.36L806.392 1027.36L806.392 1028.98C806.871 1028.21 807.303 1027.71 807.686 1027.46C808.069 1027.22 808.504 1027.1 808.991 1027.1C809.679 1027.1 810.341 1027.29 810.979 1027.67L810.044 1030.3C809.535 1029.97 809.063 1029.81 808.626 1029.81C808.203 1029.81 807.845 1029.92 807.552 1030.15C807.258 1030.39 807.027 1030.81 806.859 1031.42C806.691 1032.03 806.606 1033.3 806.606 1035.24L806.606 1038.76Z"/>
<path d="M814.534 1030.84L811.795 1030.34C812.103 1029.24 812.633 1028.42 813.385 1027.89C814.137 1027.36 815.254 1027.1 816.736 1027.1C818.083 1027.1 819.085 1027.26 819.744 1027.58C820.403 1027.9 820.867 1028.3 821.135 1028.79C821.404 1029.28 821.538 1030.18 821.538 1031.49L821.506 1035.02C821.506 1036.02 821.554 1036.76 821.651 1037.23C821.748 1037.71 821.928 1038.22 822.193 1038.76L819.207 1038.76C819.128 1038.56 819.032 1038.27 818.917 1037.87C818.867 1037.69 818.831 1037.58 818.81 1037.52C818.294 1038.02 817.743 1038.4 817.155 1038.65C816.568 1038.9 815.941 1039.02 815.275 1039.02C814.101 1039.02 813.175 1038.7 812.499 1038.07C811.822 1037.43 811.483 1036.62 811.483 1035.65C811.483 1035 811.637 1034.43 811.945 1033.93C812.253 1033.42 812.685 1033.03 813.24 1032.77C813.795 1032.5 814.595 1032.26 815.641 1032.06C817.051 1031.8 818.029 1031.55 818.573 1031.32L818.573 1031.02C818.573 1030.44 818.43 1030.03 818.144 1029.78C817.857 1029.53 817.316 1029.41 816.521 1029.41C815.984 1029.41 815.565 1029.51 815.265 1029.73C814.964 1029.94 814.72 1030.31 814.534 1030.84ZM818.573 1033.29C818.187 1033.41 817.574 1033.57 816.736 1033.75C815.898 1033.93 815.351 1034.1 815.093 1034.27C814.699 1034.55 814.502 1034.91 814.502 1035.34C814.502 1035.76 814.66 1036.13 814.975 1036.43C815.29 1036.74 815.691 1036.9 816.178 1036.9C816.722 1036.9 817.241 1036.72 817.735 1036.36C818.101 1036.09 818.34 1035.75 818.455 1035.36C818.534 1035.1 818.573 1034.61 818.573 1033.89L818.573 1033.29Z"/>
<path d="M824.428 1027.36L827.242 1027.36L827.242 1029.03C827.607 1028.46 828.102 1027.99 828.725 1027.64C829.348 1027.28 830.039 1027.1 830.798 1027.1C832.123 1027.1 833.247 1027.62 834.171 1028.66C835.095 1029.69 835.557 1031.14 835.557 1033C835.557 1034.9 835.091 1036.38 834.16 1037.44C833.229 1038.49 832.101 1039.02 830.776 1039.02C830.146 1039.02 829.575 1038.9 829.063 1038.65C828.551 1038.4 828.012 1037.97 827.446 1037.36L827.446 1043.1L824.428 1043.1L824.428 1027.36ZM827.414 1032.87C827.414 1034.15 827.668 1035.1 828.177 1035.71C828.685 1036.32 829.305 1036.63 830.035 1036.63C830.737 1036.63 831.321 1036.35 831.786 1035.78C832.252 1035.22 832.484 1034.3 832.484 1033.02C832.484 1031.82 832.244 1030.93 831.765 1030.35C831.285 1029.77 830.69 1029.48 829.981 1029.48C829.244 1029.48 828.632 1029.77 828.145 1030.34C827.658 1030.91 827.414 1031.75 827.414 1032.87Z"/>
<path d="M840.96 1023.02L840.96 1028.81C841.934 1027.67 843.098 1027.1 844.451 1027.1C845.146 1027.1 845.772 1027.23 846.331 1027.49C846.89 1027.74 847.31 1028.07 847.593 1028.47C847.876 1028.87 848.069 1029.32 848.173 1029.81C848.277 1030.29 848.329 1031.05 848.329 1032.07L848.329 1038.76L845.311 1038.76L845.311 1032.74C845.311 1031.54 845.253 1030.78 845.139 1030.46C845.024 1030.14 844.822 1029.88 844.532 1029.69C844.242 1029.5 843.878 1029.41 843.441 1029.41C842.94 1029.41 842.493 1029.53 842.099 1029.77C841.705 1030.02 841.417 1030.38 841.234 1030.87C841.051 1031.37 840.96 1032.09 840.96 1033.05L840.96 1038.76L837.941 1038.76L837.941 1023.02L840.96 1023.02Z"/>
<path d="M857.997 1035.13L861.005 1035.64C860.618 1036.74 860.008 1037.58 859.173 1038.16C858.339 1038.73 857.295 1039.02 856.042 1039.02C854.058 1039.02 852.59 1038.37 851.638 1037.08C850.886 1036.04 850.51 1034.73 850.51 1033.15C850.51 1031.26 851.004 1029.78 851.992 1028.7C852.98 1027.63 854.23 1027.1 855.741 1027.1C857.438 1027.1 858.778 1027.66 859.759 1028.78C860.74 1029.9 861.209 1031.62 861.166 1033.93L853.604 1033.93C853.625 1034.83 853.868 1035.52 854.334 1036.02C854.799 1036.52 855.38 1036.77 856.074 1036.77C856.547 1036.77 856.944 1036.64 857.267 1036.38C857.589 1036.12 857.832 1035.71 857.997 1035.13ZM858.169 1032.08C858.147 1031.21 857.922 1030.55 857.492 1030.09C857.062 1029.64 856.54 1029.41 855.924 1029.41C855.265 1029.41 854.721 1029.65 854.291 1030.13C853.861 1030.61 853.65 1031.26 853.657 1032.08L858.169 1032.08Z"/>
<path d="M873.197 1036.5L873.197 1032.41L869.072 1032.41L869.072 1029.58L873.197 1029.58L873.197 1025.49L875.947 1025.49L875.947 1029.58L880.083 1029.58L880.083 1032.41L875.947 1032.41L875.947 1036.5L873.197 1036.5Z"/>
<path d="M787.512 1063.76L787.512 1048.02L790.531 1048.02L790.531 1063.76L787.512 1063.76Z"/>
<path d="M793.625 1050.81L793.625 1048.02L796.643 1048.02L796.643 1050.81L793.625 1050.81ZM793.625 1063.76L793.625 1052.36L796.643 1052.36L796.643 1063.76L793.625 1063.76Z"/>
<path d="M806.343 1060.13L809.351 1060.64C808.964 1061.74 808.354 1062.58 807.52 1063.16C806.685 1063.73 805.641 1064.02 804.388 1064.02C802.404 1064.02 800.936 1063.37 799.984 1062.08C799.232 1061.04 798.856 1059.73 798.856 1058.15C798.856 1056.26 799.35 1054.78 800.338 1053.7C801.327 1052.63 802.576 1052.1 804.087 1052.1C805.785 1052.1 807.124 1052.66 808.105 1053.78C809.086 1054.9 809.555 1056.62 809.512 1058.93L801.95 1058.93C801.971 1059.83 802.215 1060.52 802.68 1061.02C803.146 1061.52 803.726 1061.77 804.42 1061.77C804.893 1061.77 805.291 1061.64 805.613 1061.38C805.935 1061.12 806.179 1060.71 806.343 1060.13ZM806.515 1057.08C806.494 1056.21 806.268 1055.55 805.838 1055.09C805.409 1054.64 804.886 1054.41 804.27 1054.41C803.611 1054.41 803.067 1054.65 802.637 1055.13C802.208 1055.61 801.996 1056.26 802.003 1057.08L806.515 1057.08Z"/>
<path d="M822.349 1063.76L819.331 1063.76L819.331 1057.94C819.331 1056.71 819.266 1055.91 819.137 1055.55C819.008 1055.19 818.799 1054.91 818.509 1054.71C818.219 1054.51 817.87 1054.41 817.461 1054.41C816.939 1054.41 816.47 1054.55 816.054 1054.84C815.639 1055.12 815.354 1055.5 815.2 1055.98C815.046 1056.45 814.969 1057.32 814.969 1058.6L814.969 1063.76L811.951 1063.76L811.951 1052.36L814.754 1052.36L814.754 1054.03C815.75 1052.74 817.003 1052.1 818.514 1052.1C819.18 1052.1 819.789 1052.22 820.34 1052.46C820.892 1052.7 821.309 1053 821.592 1053.38C821.875 1053.75 822.072 1054.17 822.183 1054.64C822.294 1055.12 822.349 1055.79 822.349 1056.67L822.349 1063.76Z"/>
<path d="M824.347 1060.51L827.376 1060.05C827.505 1060.64 827.767 1061.08 828.161 1061.39C828.555 1061.69 829.106 1061.84 829.815 1061.84C830.596 1061.84 831.183 1061.7 831.577 1061.41C831.842 1061.21 831.974 1060.94 831.974 1060.61C831.974 1060.38 831.903 1060.19 831.759 1060.04C831.609 1059.89 831.272 1059.76 830.75 1059.64C828.315 1059.1 826.771 1058.61 826.12 1058.17C825.217 1057.55 824.766 1056.7 824.766 1055.6C824.766 1054.61 825.156 1053.78 825.937 1053.11C826.718 1052.44 827.928 1052.1 829.568 1052.1C831.129 1052.1 832.289 1052.35 833.048 1052.86C833.807 1053.37 834.33 1054.12 834.617 1055.12L831.77 1055.64C831.648 1055.2 831.417 1054.86 831.077 1054.62C830.737 1054.39 830.252 1054.27 829.622 1054.27C828.827 1054.27 828.257 1054.38 827.914 1054.6C827.684 1054.76 827.57 1054.96 827.57 1055.21C827.57 1055.43 827.67 1055.61 827.871 1055.76C828.143 1055.96 829.083 1056.25 830.69 1056.61C832.298 1056.98 833.421 1057.42 834.058 1057.95C834.688 1058.49 835.003 1059.24 835.003 1060.2C835.003 1061.24 834.567 1062.14 833.693 1062.89C832.819 1063.65 831.527 1064.02 829.815 1064.02C828.261 1064.02 827.031 1063.71 826.125 1063.08C825.219 1062.45 824.626 1061.59 824.347 1060.51Z"/>
</g>
<path d="M40 136.5L1040 136.5L1040 1220.06L40 1220.06L40 136.5Z" fill="none" opacity="1" stroke="#000000" stroke-linecap="butt" stroke-linejoin="round" stroke-width="5.07805" vectornator:layerName="Rectangle 11"/>
<path d="M230.853 266.616L849.147 266.616L849.147 491.616L230.853 491.616L230.853 266.616Z" fill="none" opacity="1" stroke="#000000" stroke-linecap="butt" stroke-linejoin="round" stroke-width="5.07805" vectornator:layerName="Rectangle 12"/>
<g fill="#000000" opacity="1" stroke="none" vectornator:layerName="Texte 9">
<path d="M419.25 379.116L419.25 343.325L430.847 343.325C435.241 343.325 438.106 343.504 439.441 343.862C441.491 344.399 443.208 345.567 444.592 347.365C445.975 349.164 446.667 351.487 446.667 354.335C446.667 356.533 446.268 358.38 445.471 359.877C444.673 361.375 443.66 362.551 442.431 363.405C441.202 364.26 439.953 364.825 438.684 365.102C436.958 365.444 434.46 365.615 431.189 365.615L426.477 365.615L426.477 379.116L419.25 379.116ZM426.477 349.379L426.477 359.536L430.432 359.536C433.28 359.536 435.184 359.348 436.145 358.974C437.105 358.6 437.858 358.014 438.403 357.216C438.948 356.419 439.221 355.491 439.221 354.433C439.221 353.131 438.838 352.057 438.073 351.21C437.308 350.364 436.34 349.835 435.168 349.623C434.305 349.461 432.572 349.379 429.968 349.379L426.477 349.379Z"/>
<path d="M457.678 361.098L451.452 359.975C452.152 357.469 453.357 355.613 455.066 354.409C456.774 353.204 459.314 352.602 462.683 352.602C465.743 352.602 468.021 352.964 469.519 353.688C471.016 354.413 472.07 355.332 472.68 356.447C473.291 357.562 473.596 359.609 473.596 362.587L473.523 370.595C473.523 372.874 473.632 374.554 473.852 375.637C474.072 376.719 474.483 377.879 475.085 379.116L468.298 379.116C468.119 378.66 467.899 377.984 467.639 377.089C467.525 376.682 467.443 376.414 467.395 376.284C466.223 377.423 464.969 378.277 463.635 378.847C462.3 379.417 460.876 379.702 459.362 379.702C456.693 379.702 454.589 378.977 453.051 377.529C451.513 376.08 450.744 374.249 450.744 372.036C450.744 370.571 451.094 369.265 451.794 368.117C452.494 366.97 453.475 366.091 454.736 365.48C455.997 364.87 457.816 364.337 460.192 363.881C463.399 363.279 465.621 362.718 466.858 362.197L466.858 361.513C466.858 360.195 466.532 359.255 465.881 358.693C465.23 358.132 464.001 357.851 462.194 357.851C460.974 357.851 460.022 358.091 459.338 358.571C458.654 359.051 458.101 359.894 457.678 361.098ZM466.858 366.665C465.979 366.957 464.587 367.307 462.683 367.714C460.778 368.121 459.533 368.52 458.947 368.911C458.052 369.545 457.605 370.351 457.605 371.328C457.605 372.288 457.963 373.118 458.679 373.818C459.395 374.518 460.306 374.868 461.413 374.868C462.65 374.868 463.83 374.461 464.953 373.647C465.783 373.028 466.329 372.272 466.589 371.376C466.768 370.79 466.858 369.676 466.858 368.032L466.858 366.665Z"/>
<path d="M486.926 379.116L480.066 379.116L480.066 353.188L486.438 353.188L486.438 356.874C487.528 355.133 488.509 353.985 489.379 353.432C490.25 352.879 491.239 352.602 492.346 352.602C493.908 352.602 495.414 353.033 496.862 353.896L494.738 359.877C493.583 359.129 492.509 358.754 491.516 358.754C490.555 358.754 489.742 359.019 489.074 359.548C488.407 360.077 487.882 361.033 487.5 362.416C487.117 363.8 486.926 366.697 486.926 371.108L486.926 379.116Z"/>
<path d="M504.943 361.098L498.718 359.975C499.418 357.469 500.622 355.613 502.331 354.409C504.04 353.204 506.579 352.602 509.948 352.602C513.008 352.602 515.287 352.964 516.784 353.688C518.282 354.413 519.336 355.332 519.946 356.447C520.556 357.562 520.861 359.609 520.861 362.587L520.788 370.595C520.788 372.874 520.898 374.554 521.118 375.637C521.337 376.719 521.748 377.879 522.351 379.116L515.564 379.116C515.385 378.66 515.165 377.984 514.904 377.089C514.79 376.682 514.709 376.414 514.66 376.284C513.488 377.423 512.235 378.277 510.9 378.847C509.566 379.417 508.142 379.702 506.628 379.702C503.959 379.702 501.855 378.977 500.317 377.529C498.779 376.08 498.01 374.249 498.01 372.036C498.01 370.571 498.36 369.265 499.06 368.117C499.76 366.97 500.74 366.091 502.002 365.48C503.263 364.87 505.082 364.337 507.458 363.881C510.664 363.279 512.886 362.718 514.123 362.197L514.123 361.513C514.123 360.195 513.798 359.255 513.147 358.693C512.496 358.132 511.267 357.851 509.46 357.851C508.239 357.851 507.287 358.091 506.604 358.571C505.92 359.051 505.367 359.894 504.943 361.098ZM514.123 366.665C513.244 366.957 511.853 367.307 509.948 367.714C508.044 368.121 506.799 368.52 506.213 368.911C505.318 369.545 504.87 370.351 504.87 371.328C504.87 372.288 505.228 373.118 505.944 373.818C506.661 374.518 507.572 374.868 508.679 374.868C509.916 374.868 511.096 374.461 512.219 373.647C513.049 373.028 513.594 372.272 513.855 371.376C514.034 370.79 514.123 369.676 514.123 368.032L514.123 366.665Z"/>
<path d="M526.989 380.825L534.826 381.777C534.956 382.688 535.258 383.315 535.73 383.657C536.381 384.145 537.406 384.389 538.806 384.389C540.596 384.389 541.939 384.121 542.834 383.583C543.436 383.225 543.892 382.648 544.201 381.85C544.413 381.28 544.519 380.231 544.519 378.701L544.519 374.916C542.468 377.716 539.88 379.116 536.755 379.116C533.272 379.116 530.513 377.643 528.479 374.697C526.884 372.369 526.086 369.472 526.086 366.005C526.086 361.66 527.132 358.339 529.223 356.044C531.315 353.749 533.915 352.602 537.024 352.602C540.23 352.602 542.875 354.01 544.958 356.826L544.958 353.188L551.379 353.188L551.379 376.455C551.379 379.514 551.127 381.801 550.622 383.315C550.118 384.829 549.41 386.017 548.498 386.879C547.587 387.742 546.37 388.417 544.848 388.906C543.326 389.394 541.402 389.638 539.074 389.638C534.68 389.638 531.563 388.885 529.724 387.38C527.885 385.874 526.965 383.966 526.965 381.655C526.965 381.427 526.973 381.15 526.989 380.825ZM533.117 365.615C533.117 368.365 533.65 370.38 534.716 371.657C535.782 372.935 537.097 373.574 538.659 373.574C540.336 373.574 541.752 372.919 542.907 371.608C544.063 370.298 544.641 368.357 544.641 365.786C544.641 363.1 544.087 361.106 542.981 359.804C541.874 358.502 540.474 357.851 538.781 357.851C537.137 357.851 535.782 358.49 534.716 359.768C533.65 361.045 533.117 362.994 533.117 365.615Z"/>
<path d="M564.733 379.116L557.873 379.116L557.873 353.188L564.245 353.188L564.245 356.874C565.336 355.133 566.316 353.985 567.187 353.432C568.058 352.879 569.047 352.602 570.153 352.602C571.716 352.602 573.221 353.033 574.67 353.896L572.546 359.877C571.39 359.129 570.316 358.754 569.323 358.754C568.363 358.754 567.549 359.019 566.882 359.548C566.215 360.077 565.69 361.033 565.307 362.416C564.925 363.8 564.733 366.697 564.733 371.108L564.733 379.116Z"/>
<path d="M582.751 361.098L576.525 359.975C577.225 357.469 578.43 355.613 580.139 354.409C581.848 353.204 584.387 352.602 587.756 352.602C590.816 352.602 593.094 352.964 594.592 353.688C596.089 354.413 597.143 355.332 597.754 356.447C598.364 357.562 598.669 359.609 598.669 362.587L598.596 370.595C598.596 372.874 598.706 374.554 598.925 375.637C599.145 376.719 599.556 377.879 600.158 379.116L593.371 379.116C593.192 378.66 592.972 377.984 592.712 377.089C592.598 376.682 592.517 376.414 592.468 376.284C591.296 377.423 590.043 378.277 588.708 378.847C587.373 379.417 585.949 379.702 584.436 379.702C581.766 379.702 579.663 378.977 578.125 377.529C576.587 376.08 575.817 374.249 575.817 372.036C575.817 370.571 576.167 369.265 576.867 368.117C577.567 366.97 578.548 366.091 579.809 365.48C581.071 364.87 582.889 364.337 585.266 363.881C588.472 363.279 590.694 362.718 591.931 362.197L591.931 361.513C591.931 360.195 591.605 359.255 590.954 358.693C590.303 358.132 589.074 357.851 587.268 357.851C586.047 357.851 585.095 358.091 584.411 358.571C583.728 359.051 583.174 359.894 582.751 361.098ZM591.931 366.665C591.052 366.957 589.66 367.307 587.756 367.714C585.852 368.121 584.607 368.52 584.021 368.911C583.125 369.545 582.678 370.351 582.678 371.328C582.678 372.288 583.036 373.118 583.752 373.818C584.468 374.518 585.38 374.868 586.486 374.868C587.723 374.868 588.903 374.461 590.026 373.647C590.857 373.028 591.402 372.272 591.662 371.376C591.841 370.79 591.931 369.676 591.931 368.032L591.931 366.665Z"/>
<path d="M605.236 353.188L611.633 353.188L611.633 356.997C612.463 355.694 613.586 354.637 615.002 353.823C616.418 353.009 617.989 352.602 619.714 352.602C622.725 352.602 625.28 353.782 627.38 356.142C629.48 358.502 630.529 361.79 630.529 366.005C630.529 370.335 629.471 373.7 627.356 376.101C625.24 378.501 622.676 379.702 619.665 379.702C618.233 379.702 616.935 379.417 615.771 378.847C614.607 378.277 613.383 377.301 612.097 375.917L612.097 388.979L605.236 388.979L605.236 353.188ZM612.024 365.712C612.024 368.626 612.601 370.778 613.757 372.17C614.913 373.561 616.32 374.257 617.981 374.257C619.576 374.257 620.902 373.618 621.96 372.341C623.018 371.063 623.547 368.968 623.547 366.054C623.547 363.336 623.002 361.318 621.911 359.999C620.821 358.681 619.47 358.022 617.858 358.022C616.182 358.022 614.79 358.669 613.684 359.963C612.577 361.257 612.024 363.173 612.024 365.712Z"/>
<path d="M642.81 343.325L642.81 356.484C645.023 353.896 647.668 352.602 650.744 352.602C652.323 352.602 653.747 352.895 655.017 353.481C656.286 354.067 657.242 354.816 657.885 355.727C658.528 356.638 658.968 357.648 659.204 358.754C659.44 359.861 659.558 361.578 659.558 363.906L659.558 379.116L652.697 379.116L652.697 365.419C652.697 362.701 652.567 360.976 652.307 360.244C652.046 359.511 651.587 358.929 650.927 358.498C650.268 358.067 649.442 357.851 648.449 357.851C647.31 357.851 646.293 358.128 645.398 358.681C644.502 359.234 643.847 360.069 643.432 361.184C643.017 362.298 642.81 363.946 642.81 366.127L642.81 379.116L635.949 379.116L635.949 343.325L642.81 343.325Z"/>
<path d="M681.53 370.864L688.366 372.011C687.487 374.518 686.1 376.426 684.204 377.736C682.308 379.047 679.935 379.702 677.087 379.702C672.579 379.702 669.242 378.229 667.077 375.283C665.368 372.923 664.514 369.944 664.514 366.347C664.514 362.05 665.637 358.685 667.883 356.252C670.129 353.819 672.969 352.602 676.403 352.602C680.261 352.602 683.304 353.876 685.534 356.423C687.764 358.97 688.83 362.872 688.733 368.129L671.545 368.129C671.594 370.164 672.147 371.747 673.205 372.878C674.263 374.009 675.581 374.575 677.16 374.575C678.234 374.575 679.138 374.282 679.87 373.696C680.603 373.11 681.156 372.166 681.53 370.864ZM681.921 363.93C681.872 361.944 681.359 360.435 680.383 359.401C679.406 358.368 678.218 357.851 676.818 357.851C675.321 357.851 674.084 358.396 673.108 359.487C672.131 360.577 671.651 362.058 671.667 363.93L681.921 363.93Z"/>
</g>
<path d="M152.048 950.812L352.048 950.812L352.048 1150.81L152.048 1150.81L152.048 950.812Z" fill="none" opacity="1" stroke="#000000" stroke-linecap="butt" stroke-linejoin="round" stroke-width="5.07805" vectornator:layerName="Rectangle 14"/>
<path d="M440 953.804L640 953.804L640 1153.8L440 1153.8L440 953.804Z" fill="none" opacity="1" stroke="#000000" stroke-linecap="butt" stroke-linejoin="round" stroke-width="5.07805" vectornator:layerName="Rectangle 15"/>
<path d="M703.449 950.812L903.449 950.812L903.449 1150.81L703.449 1150.81L703.449 950.812Z" fill="none" opacity="1" stroke="#000000" stroke-linecap="butt" stroke-linejoin="round" stroke-width="5.07805" vectornator:layerName="Rectangle 13"/>
<g fill="#000000" opacity="1" stroke="none" vectornator:layerName="Texte 10">
<path d="M196.181 1049.25L196.181 1031.5L199.794 1031.5L199.794 1046.23L208.779 1046.23L208.779 1049.25L196.181 1049.25Z"/>
<path d="M211.33 1034.53L211.33 1031.35L214.76 1031.35L214.76 1034.53L211.33 1034.53ZM211.33 1049.25L211.33 1036.28L214.76 1036.28L214.76 1049.25L211.33 1049.25Z"/>
<path d="M217.067 1045.55L220.51 1045.02C220.656 1045.69 220.953 1046.2 221.401 1046.54C221.848 1046.89 222.475 1047.06 223.281 1047.06C224.168 1047.06 224.835 1046.9 225.282 1046.57C225.584 1046.35 225.734 1046.04 225.734 1045.66C225.734 1045.4 225.653 1045.18 225.49 1045.01C225.319 1044.85 224.937 1044.7 224.343 1044.56C221.576 1043.95 219.822 1043.39 219.081 1042.89C218.056 1042.19 217.543 1041.22 217.543 1039.97C217.543 1038.85 217.987 1037.9 218.874 1037.14C219.761 1036.37 221.136 1035.99 223 1035.99C224.774 1035.99 226.092 1036.28 226.955 1036.86C227.817 1037.44 228.412 1038.29 228.737 1039.42L225.502 1040.02C225.364 1039.52 225.101 1039.13 224.715 1038.86C224.328 1038.59 223.777 1038.46 223.061 1038.46C222.157 1038.46 221.51 1038.58 221.12 1038.84C220.859 1039.01 220.729 1039.25 220.729 1039.53C220.729 1039.78 220.843 1039.98 221.071 1040.15C221.38 1040.38 222.448 1040.7 224.275 1041.12C226.102 1041.53 227.378 1042.04 228.102 1042.64C228.818 1043.25 229.176 1044.1 229.176 1045.2C229.176 1046.38 228.68 1047.4 227.687 1048.26C226.694 1049.11 225.225 1049.54 223.281 1049.54C221.515 1049.54 220.117 1049.18 219.087 1048.47C218.058 1047.75 217.385 1046.78 217.067 1045.55Z"/>
<path d="M238.124 1036.28L238.124 1039.02L235.781 1039.02L235.781 1044.24C235.781 1045.3 235.803 1045.92 235.848 1046.09C235.892 1046.27 235.994 1046.41 236.153 1046.53C236.312 1046.64 236.505 1046.7 236.733 1046.7C237.05 1046.7 237.51 1046.59 238.112 1046.37L238.405 1049.03C237.607 1049.37 236.704 1049.54 235.695 1049.54C235.077 1049.54 234.519 1049.44 234.023 1049.23C233.526 1049.02 233.162 1048.75 232.93 1048.42C232.698 1048.09 232.538 1047.65 232.448 1047.09C232.375 1046.69 232.338 1045.88 232.338 1044.67L232.338 1039.02L230.763 1039.02L230.763 1036.28L232.338 1036.28L232.338 1033.71L235.781 1031.71L235.781 1036.28L238.124 1036.28Z"/>
<path d="M248.012 1045.12L251.43 1045.7C250.99 1046.95 250.297 1047.9 249.349 1048.56C248.401 1049.21 247.214 1049.54 245.79 1049.54C243.536 1049.54 241.868 1048.8 240.785 1047.33C239.931 1046.15 239.504 1044.66 239.504 1042.86C239.504 1040.72 240.065 1039.03 241.188 1037.82C242.311 1036.6 243.731 1035.99 245.448 1035.99C247.377 1035.99 248.899 1036.63 250.014 1037.9C251.129 1039.18 251.662 1041.13 251.613 1043.75L243.019 1043.75C243.044 1044.77 243.32 1045.56 243.849 1046.13C244.378 1046.69 245.038 1046.98 245.827 1046.98C246.364 1046.98 246.816 1046.83 247.182 1046.54C247.548 1046.25 247.825 1045.77 248.012 1045.12ZM248.207 1041.66C248.183 1040.66 247.926 1039.91 247.438 1039.39C246.95 1038.87 246.356 1038.62 245.656 1038.62C244.907 1038.62 244.289 1038.89 243.801 1039.43C243.312 1039.98 243.072 1040.72 243.08 1041.66L248.207 1041.66Z"/>
<path d="M261.354 1049.25L261.354 1031.35L264.784 1031.35L264.784 1049.25L261.354 1049.25Z"/>
<path d="M268.3 1034.53L268.3 1031.35L271.73 1031.35L271.73 1034.53L268.3 1034.53ZM268.3 1049.25L268.3 1036.28L271.73 1036.28L271.73 1049.25L268.3 1049.25Z"/>
<path d="M282.753 1045.12L286.171 1045.7C285.732 1046.95 285.038 1047.9 284.09 1048.56C283.142 1049.21 281.956 1049.54 280.531 1049.54C278.277 1049.54 276.609 1048.8 275.527 1047.33C274.672 1046.15 274.245 1044.66 274.245 1042.86C274.245 1040.72 274.806 1039.03 275.929 1037.82C277.052 1036.6 278.473 1035.99 280.19 1035.99C282.118 1035.99 283.64 1036.63 284.755 1037.9C285.87 1039.18 286.403 1041.13 286.354 1043.75L277.76 1043.75C277.785 1044.77 278.062 1045.56 278.591 1046.13C279.12 1046.69 279.779 1046.98 280.568 1046.98C281.105 1046.98 281.557 1046.83 281.923 1046.54C282.289 1046.25 282.566 1045.77 282.753 1045.12ZM282.948 1041.66C282.924 1040.66 282.668 1039.91 282.179 1039.39C281.691 1038.87 281.097 1038.62 280.397 1038.62C279.649 1038.62 279.03 1038.89 278.542 1039.43C278.053 1039.98 277.813 1040.72 277.822 1041.66L282.948 1041.66Z"/>
<path d="M300.942 1049.25L297.511 1049.25L297.511 1042.63C297.511 1041.23 297.438 1040.33 297.292 1039.92C297.145 1039.5 296.907 1039.19 296.578 1038.96C296.248 1038.73 295.851 1038.62 295.387 1038.62C294.793 1038.62 294.26 1038.78 293.788 1039.1C293.316 1039.43 292.993 1039.86 292.818 1040.4C292.643 1040.94 292.555 1041.93 292.555 1043.38L292.555 1049.25L289.125 1049.25L289.125 1036.28L292.311 1036.28L292.311 1038.19C293.442 1036.72 294.867 1035.99 296.584 1035.99C297.341 1035.99 298.032 1036.13 298.659 1036.4C299.286 1036.67 299.76 1037.02 300.081 1037.44C300.402 1037.87 300.626 1038.35 300.752 1038.88C300.879 1039.42 300.942 1040.19 300.942 1041.19L300.942 1049.25Z"/>
<path d="M303.212 1045.55L306.655 1045.02C306.801 1045.69 307.098 1046.2 307.546 1046.54C307.993 1046.89 308.62 1047.06 309.426 1047.06C310.313 1047.06 310.98 1046.9 311.427 1046.57C311.729 1046.35 311.879 1046.04 311.879 1045.66C311.879 1045.4 311.798 1045.18 311.635 1045.01C311.464 1044.85 311.082 1044.7 310.488 1044.56C307.721 1043.95 305.967 1043.39 305.226 1042.89C304.201 1042.19 303.688 1041.22 303.688 1039.97C303.688 1038.85 304.132 1037.9 305.019 1037.14C305.906 1036.37 307.281 1035.99 309.145 1035.99C310.919 1035.99 312.237 1036.28 313.1 1036.86C313.962 1037.44 314.557 1038.29 314.882 1039.42L311.647 1040.02C311.509 1039.52 311.246 1039.13 310.86 1038.86C310.473 1038.59 309.922 1038.46 309.206 1038.46C308.302 1038.46 307.656 1038.58 307.265 1038.84C307.004 1039.01 306.874 1039.25 306.874 1039.53C306.874 1039.78 306.988 1039.98 307.216 1040.15C307.525 1040.38 308.593 1040.7 310.42 1041.12C312.247 1041.53 313.523 1042.04 314.247 1042.64C314.963 1043.25 315.322 1044.1 315.322 1045.2C315.322 1046.38 314.825 1047.4 313.832 1048.26C312.839 1049.11 311.371 1049.54 309.426 1049.54C307.66 1049.54 306.262 1049.18 305.232 1048.47C304.203 1047.75 303.53 1046.78 303.212 1045.55Z"/>
</g>
</g>
</svg>
